{"glyphs":{"0":{"ha":883,"x_min":58,"x_max":840,"o":"m 72 463 q 126 659 86 572 q 225 806 167 746 q 356 896 283 865 q 510 926 429 926 q 660 892 594 926 q 767 795 725 857 q 824 647 808 733 q 826 454 840 560 q 772 258 811 344 q 674 112 732 172 q 542 20 615 51 q 389 -11 469 -11 q 247 21 311 -11 q 139 113 182 53 q 77 261 96 174 q 72 463 58 349 m 200 458 q 201 325 190 388 q 241 215 213 263 q 311 140 269 168 q 404 113 353 113 q 505 139 456 113 q 594 213 554 165 q 663 323 635 260 q 699 457 690 386 q 701 569 706 508 q 673 681 696 629 q 607 768 650 733 q 494 803 564 803 q 369 767 422 803 q 281 677 317 731 q 226 564 246 624 q 200 458 206 504 z "},"1":{"ha":419,"x_min":104,"x_max":346,"o":"m 113 792 l 128 915 l 346 915 l 233 0 l 104 0 l 201 792 l 113 792 z "},"2":{"ha":754,"x_min":25,"x_max":685,"o":"m 346 124 l 671 124 l 656 0 l 25 0 q 222 176 126 92 q 390 341 317 261 q 508 495 464 421 q 553 639 553 569 q 539 712 553 681 q 503 763 525 743 q 456 793 482 783 q 408 803 431 803 q 316 782 353 803 q 257 732 279 761 q 225 670 235 703 q 215 614 215 638 q 226 547 215 576 q 254 494 236 517 l 169 415 q 133 452 149 429 q 108 503 118 475 q 92 560 97 531 q 88 615 88 590 q 110 729 88 674 q 177 828 133 785 q 283 899 221 872 q 424 926 344 926 q 533 906 485 926 q 615 849 582 885 q 667 765 649 813 q 685 663 685 717 q 657 522 685 590 q 583 388 629 454 q 474 256 536 322 q 346 124 413 190 z "},"3":{"ha":646,"x_min":0,"x_max":643,"o":"m 179 454 q 303 622 236 538 q 425 790 369 706 l 143 790 l 158 915 l 643 915 q 521 749 583 832 q 400 582 458 665 q 520 482 475 549 q 565 328 565 415 q 536 197 565 258 q 458 89 507 135 q 347 16 410 43 q 215 -11 283 -11 q 92 17 147 -11 q 0 89 38 44 l 104 176 q 157 129 125 146 q 229 113 189 113 q 307 128 269 113 q 373 172 344 144 q 419 237 401 200 q 436 314 436 274 q 424 377 436 347 q 390 429 411 407 q 338 464 368 451 q 274 476 308 476 q 179 454 224 476 z "},"4":{"ha":733,"x_min":-17,"x_max":681,"o":"m -17 236 q 298 581 133 404 q 614 926 463 758 l 544 360 l 681 360 l 665 236 l 529 236 l 500 0 l 371 0 l 400 236 l -17 236 m 442 581 l 246 360 l 415 360 l 442 581 z "},"5":{"ha":632,"x_min":11,"x_max":576,"o":"m 113 424 l 172 915 l 576 915 l 561 792 l 267 792 l 243 592 q 264 599 254 596 q 289 601 274 601 q 404 580 353 601 q 492 522 456 558 q 547 438 528 486 q 565 333 565 389 q 535 199 565 261 q 457 90 506 136 q 344 16 408 43 q 213 -11 281 -11 q 99 12 150 -11 q 11 75 47 35 q 64 118 38 97 q 115 161 90 139 q 164 126 135 139 q 229 113 193 113 q 306 128 268 113 q 372 172 343 144 q 419 237 401 200 q 436 314 436 274 q 424 377 436 347 q 389 429 411 407 q 338 465 367 451 q 274 478 308 478 q 194 468 236 478 q 113 424 151 458 z "},"6":{"ha":736,"x_min":44,"x_max":668,"o":"m 176 276 q 188 213 176 243 q 221 161 200 183 q 270 126 242 139 q 332 113 299 113 q 410 128 372 113 q 476 172 447 144 q 522 237 504 200 q 539 314 539 274 q 526 378 539 349 q 492 431 514 408 q 440 465 469 453 q 376 478 411 478 q 301 462 338 478 q 238 419 265 446 q 193 355 210 392 q 176 276 176 318 m 44 260 q 72 408 44 339 q 143 539 99 478 q 244 652 188 600 q 359 749 300 704 q 475 831 418 793 q 576 897 532 868 q 611 849 593 874 q 644 800 629 824 q 550 740 600 772 q 453 676 500 708 q 370 615 407 644 q 315 567 333 586 q 350 592 331 582 q 392 601 369 601 q 501 580 450 601 q 588 522 551 558 q 647 435 625 485 q 668 326 668 385 q 639 196 668 257 q 560 89 610 135 q 448 16 511 43 q 318 -11 385 -11 q 221 6 269 -11 q 133 56 172 22 q 69 140 93 89 q 44 260 44 190 z "},"7":{"ha":635,"x_min":67,"x_max":686,"o":"m 88 790 l 103 915 l 686 915 q 564 681 624 796 q 445 452 504 565 q 328 226 386 339 q 211 0 269 114 l 67 0 q 264 385 160 182 q 472 790 368 589 l 88 790 z "},"8":{"ha":735,"x_min":43,"x_max":667,"o":"m 301 690 q 330 627 301 653 q 396 601 358 601 q 438 610 417 601 q 474 633 458 618 q 500 667 490 647 q 510 708 510 686 q 484 775 510 747 q 421 803 458 803 q 377 793 399 803 q 339 768 356 783 q 312 733 322 753 q 301 690 301 713 m 175 276 q 187 213 175 243 q 219 161 199 183 q 269 126 240 139 q 331 113 297 113 q 408 128 371 113 q 475 172 446 144 q 522 237 504 200 q 539 314 539 274 q 527 377 539 347 q 494 429 515 407 q 444 465 474 451 q 382 478 415 478 q 305 463 342 479 q 239 420 268 447 q 192 356 210 393 q 175 276 175 318 m 43 258 q 59 363 43 315 q 101 447 75 410 q 163 510 128 483 q 233 551 197 536 q 189 608 201 575 q 176 674 176 642 q 197 772 176 726 q 253 853 218 818 q 335 907 289 888 q 432 926 381 926 q 512 911 475 926 q 575 868 549 896 q 617 802 601 840 q 632 719 632 764 q 611 628 632 672 q 539 551 590 585 q 629 468 592 525 q 667 325 667 411 q 640 198 667 258 q 567 91 614 138 q 456 17 519 44 q 315 -11 392 -11 q 200 10 250 -11 q 115 69 150 32 q 61 156 79 107 q 43 258 43 204 z "},"9":{"ha":735,"x_min":79,"x_max":703,"o":"m 703 626 q 676 478 703 547 q 604 347 649 408 q 503 234 560 286 q 387 138 446 182 q 271 56 328 93 q 169 -11 214 19 l 101 86 q 195 145 144 113 q 292 210 246 178 q 376 271 339 242 q 431 319 414 300 q 396 294 415 304 q 354 285 376 285 q 246 306 296 285 q 158 365 196 328 q 100 451 121 401 q 79 558 79 501 q 108 690 79 628 q 186 797 138 751 q 298 870 235 843 q 428 897 361 897 q 525 881 476 897 q 613 831 574 864 q 678 747 653 797 q 703 626 703 696 m 569 610 q 558 673 569 643 q 525 725 546 703 q 476 760 504 747 q 414 774 447 774 q 336 758 374 774 q 270 714 299 742 q 224 649 242 686 q 207 572 207 613 q 219 508 207 538 q 253 456 232 478 q 305 421 275 433 q 369 408 335 408 q 444 424 408 408 q 508 467 481 440 q 553 531 536 494 q 569 610 569 568 z "},"\u0000":{"ha":0,"x_min":0,"x_max":0,"o":""},"\r":{"ha":417,"x_min":0,"x_max":0,"o":""}," ":{"ha":317,"x_min":0,"x_max":0,"o":""},"t":{"ha":419,"x_min":38,"x_max":428,"o":"m 186 836 l 304 836 l 272 579 l 428 579 l 415 474 l 260 474 l 201 0 l 83 0 l 142 474 l 38 474 l 50 579 l 154 579 l 186 836 z "},"b":{"ha":747,"x_min":33,"x_max":693,"o":"m 693 329 q 667 193 693 256 q 594 85 640 131 q 484 13 547 39 q 349 -14 421 -14 q 228 15 278 -14 q 161 76 178 43 q 160 62 160 69 q 158 47 160 54 l 153 0 l 33 0 l 165 1079 l 285 1079 l 214 496 q 247 530 226 513 q 296 562 268 547 q 357 586 324 576 q 429 596 390 596 q 622 524 550 596 q 693 329 693 453 m 563 315 q 521 433 563 386 q 403 479 479 479 q 319 463 358 479 q 250 419 279 447 q 204 352 221 390 q 188 271 188 314 q 233 151 188 199 q 357 103 279 103 q 440 119 403 103 q 505 165 478 136 q 547 233 532 194 q 563 315 563 271 z "},"l":{"ha":283,"x_min":35,"x_max":285,"o":"m 153 0 l 35 0 l 167 1079 l 285 1079 l 153 0 z "},"m":{"ha":1111,"x_min":33,"x_max":1044,"o":"m 104 581 l 208 581 q 204 502 206 538 q 200 432 203 467 q 299 551 242 507 q 444 596 357 594 q 575 553 529 596 q 621 440 621 510 q 720 553 664 511 q 863 596 776 596 q 999 547 953 596 q 1038 422 1044 499 l 986 0 l 867 0 l 913 368 q 892 444 915 413 q 807 478 868 475 q 669 424 724 478 q 603 288 615 371 l 568 0 l 450 0 l 496 368 q 474 444 499 413 q 390 478 449 475 q 313 463 349 478 q 251 424 278 449 q 208 364 225 399 q 186 288 192 329 l 151 0 l 33 0 l 104 581 z "},"i":{"ha":281,"x_min":33,"x_max":268,"o":"m 117 796 q 144 856 117 832 q 203 881 172 881 q 248 860 228 881 q 268 810 268 840 q 240 750 268 774 q 183 726 213 726 q 137 746 157 726 q 117 796 117 765 m 151 0 l 33 0 l 104 581 l 222 581 l 151 0 z "},"h":{"ha":704,"x_min":33,"x_max":639,"o":"m 165 1079 l 283 1079 l 206 440 q 306 552 244 510 q 454 596 367 594 q 591 549 543 597 q 631 422 639 501 l 579 0 l 460 0 l 506 368 q 484 444 508 413 q 400 478 460 475 q 322 463 358 478 q 258 424 286 449 q 210 364 229 399 q 186 288 192 329 l 151 0 l 33 0 l 165 1079 z "},"c":{"ha":575,"x_min":26,"x_max":564,"o":"m 440 143 q 472 98 457 119 q 501 53 486 76 q 408 4 458 22 q 300 -14 357 -14 q 190 8 240 -14 q 103 67 140 29 q 47 154 67 104 q 26 261 26 204 q 55 390 26 329 q 132 496 83 450 q 243 569 181 542 q 375 596 306 596 q 481 578 433 596 q 564 529 528 560 l 476 439 q 426 469 456 458 q 360 479 396 479 q 275 463 314 479 q 208 419 236 447 q 163 352 179 390 q 146 271 146 314 q 191 151 146 200 q 314 103 236 103 q 382 113 350 103 q 440 143 414 124 z "},"q":{"ha":746,"x_min":29,"x_max":688,"o":"m 150 271 q 196 151 150 199 q 318 103 242 103 q 403 119 364 103 q 472 165 443 136 q 518 231 501 193 q 535 313 535 269 q 489 432 535 385 q 364 479 443 479 q 281 463 319 479 q 213 419 242 447 q 167 352 183 390 q 150 271 150 314 m 29 254 q 56 392 29 329 q 130 500 83 454 q 238 571 176 546 q 369 596 300 596 q 445 585 413 596 q 501 560 478 575 q 538 528 524 546 q 558 496 551 510 q 565 540 561 515 q 572 581 569 564 l 688 581 l 582 -279 l 464 -279 l 503 43 q 506 62 504 51 q 510 79 508 72 q 474 47 494 63 q 426 17 453 31 q 365 -6 399 3 q 290 -14 332 -14 q 179 7 228 -14 q 97 65 131 28 q 47 150 64 101 q 29 254 29 199 z "},"u":{"ha":703,"x_min":40,"x_max":644,"o":"m 572 -12 l 472 -12 l 478 149 q 374 32 438 78 q 222 -14 311 -14 q 87 34 133 -14 q 47 160 40 82 l 99 581 l 217 581 l 172 213 q 194 139 169 169 q 278 104 219 108 q 356 119 319 104 q 420 158 392 133 q 467 218 449 183 q 490 294 485 253 l 525 581 l 644 581 l 572 -12 z "},"r":{"ha":432,"x_min":33,"x_max":453,"o":"m 407 443 q 331 433 368 443 q 263 401 293 422 q 212 349 232 381 q 186 278 192 318 l 151 0 l 33 0 l 104 581 l 208 581 q 204 502 206 538 q 200 432 203 467 q 256 500 222 469 q 324 551 289 531 q 394 584 360 572 q 453 596 428 596 l 407 443 z "},"e":{"ha":640,"x_min":26,"x_max":621,"o":"m 533 68 q 425 8 488 31 q 300 -14 363 -14 q 190 8 240 -14 q 103 66 140 29 q 47 153 67 103 q 26 260 26 203 q 55 389 26 328 q 131 496 83 450 q 242 569 179 542 q 371 596 304 596 q 535 537 469 596 q 621 382 601 478 q 517 344 575 367 q 396 298 458 322 q 271 250 333 274 q 154 207 208 226 q 215 131 174 160 q 311 103 256 103 q 388 117 349 103 q 456 154 428 131 l 533 68 m 475 410 q 428 462 463 444 q 357 479 394 479 q 277 463 315 479 q 210 419 239 446 q 164 358 181 392 q 147 289 147 324 l 147 282 q 229 313 185 296 q 317 348 274 331 q 402 381 361 365 q 475 410 443 397 z "},"p":{"ha":746,"x_min":-1,"x_max":692,"o":"m 563 315 q 521 433 563 386 q 403 479 479 479 q 317 463 357 479 q 249 419 278 447 q 203 352 219 390 q 186 271 186 314 q 233 151 186 199 q 357 103 279 103 q 440 119 403 103 q 505 165 478 136 q 547 233 532 194 q 563 315 563 271 m 692 329 q 665 193 692 256 q 592 85 639 131 q 483 13 546 39 q 347 -14 419 -14 q 227 15 276 -14 q 160 76 178 43 q 160 62 160 69 q 158 47 160 54 l 118 -279 l -1 -279 l 104 581 l 219 581 q 217 540 217 564 q 214 496 217 515 q 247 530 226 513 q 295 562 268 547 q 356 586 322 576 q 428 596 389 596 q 621 524 550 596 q 692 329 692 453 z "},"á":{"ha":743,"x_min":25,"x_max":683,"o":"m 25 256 q 53 385 25 324 q 130 494 82 447 q 240 568 178 540 q 369 596 303 596 q 444 585 411 596 q 501 560 478 575 q 537 528 524 544 q 554 499 550 511 l 569 581 l 683 581 l 613 0 l 493 0 l 503 74 q 477 47 494 63 q 434 19 460 32 q 374 -4 408 6 q 296 -14 339 -14 q 185 8 235 -14 q 99 66 135 29 q 44 152 64 103 q 25 256 25 201 m 146 271 q 192 151 146 199 q 314 103 238 103 q 399 119 360 103 q 468 165 439 136 q 514 231 497 193 q 531 313 531 269 q 485 432 531 385 q 360 479 439 479 q 276 463 315 479 q 208 419 238 447 q 163 352 179 390 q 146 271 146 314 m 328 675 q 403 768 365 721 q 478 861 440 815 l 606 861 l 418 675 l 328 675 z "},"é":{"ha":640,"x_min":26,"x_max":621,"o":"m 533 68 q 425 8 488 31 q 300 -14 363 -14 q 190 8 240 -14 q 103 66 140 29 q 47 153 67 103 q 26 260 26 203 q 55 389 26 328 q 131 496 83 450 q 242 569 179 542 q 371 596 304 596 q 535 537 469 596 q 621 382 601 478 q 517 344 575 367 q 396 298 458 322 q 271 250 333 274 q 154 207 208 226 q 215 131 174 160 q 311 103 256 103 q 388 117 349 103 q 456 154 428 131 l 533 68 m 475 410 q 428 462 463 444 q 357 479 394 479 q 277 463 315 479 q 210 419 239 446 q 164 358 181 392 q 147 289 147 324 l 147 282 q 229 313 185 296 q 317 348 274 331 q 402 381 361 365 q 475 410 443 397 m 296 675 q 371 768 333 721 q 446 861 408 815 l 574 861 l 386 675 l 296 675 z "},"í":{"ha":282,"x_min":33,"x_max":396,"o":"m 151 0 l 33 0 l 104 581 l 222 581 l 151 0 m 118 675 q 193 768 156 721 q 268 861 231 815 l 396 861 l 208 675 l 118 675 z "},"ó":{"ha":699,"x_min":26,"x_max":660,"o":"m 26 257 q 55 388 26 326 q 131 496 83 450 q 243 569 179 542 q 376 596 307 596 q 486 574 436 596 q 572 516 536 553 q 626 429 607 479 q 646 324 646 379 q 619 193 646 254 q 544 86 592 132 q 434 13 497 40 q 300 -14 371 -14 q 191 6 242 -14 q 104 61 140 25 q 47 147 68 97 q 26 257 26 196 m 146 271 q 158 204 146 235 q 192 151 171 174 q 244 116 214 129 q 311 103 275 103 q 392 119 353 103 q 460 163 431 135 q 508 229 490 192 q 526 308 526 267 q 514 376 526 344 q 478 430 501 407 q 424 466 456 453 q 357 479 393 479 q 277 463 315 479 q 210 417 239 446 q 163 351 181 389 q 146 271 146 314 m 382 675 q 457 768 419 721 q 532 861 494 815 l 660 861 l 472 675 l 382 675 z "},"ú":{"ha":703,"x_min":40,"x_max":644,"o":"m 572 -12 l 472 -12 l 478 149 q 374 32 438 78 q 222 -14 311 -14 q 87 34 133 -14 q 47 160 40 82 l 99 581 l 217 581 l 172 213 q 194 139 169 169 q 278 104 219 108 q 356 119 319 104 q 420 158 392 133 q 467 218 449 183 q 490 294 485 253 l 525 581 l 644 581 l 572 -12 m 313 675 q 388 768 350 721 q 463 861 425 815 l 590 861 l 403 675 l 313 675 z "},"ä":{"ha":743,"x_min":25,"x_max":683,"o":"m 25 256 q 53 385 25 324 q 130 494 82 447 q 240 568 178 540 q 369 596 303 596 q 444 585 411 596 q 501 560 478 575 q 537 528 524 544 q 554 499 550 511 l 569 581 l 683 581 l 613 0 l 493 0 l 503 74 q 477 47 494 63 q 434 19 460 32 q 374 -4 408 6 q 296 -14 339 -14 q 185 8 235 -14 q 99 66 135 29 q 44 152 64 103 q 25 256 25 201 m 146 271 q 192 151 146 199 q 314 103 238 103 q 399 119 360 103 q 468 165 439 136 q 514 231 497 193 q 531 313 531 269 q 485 432 531 385 q 360 479 439 479 q 276 463 315 479 q 208 419 238 447 q 163 352 179 390 q 146 271 146 314 m 185 726 q 213 789 185 764 q 274 814 242 814 q 319 794 299 814 q 340 743 340 774 q 312 681 340 706 q 254 657 283 657 q 206 676 226 657 q 185 726 185 696 m 449 726 q 476 789 449 764 q 536 814 504 814 q 583 794 563 814 q 603 743 603 775 q 575 681 603 706 q 517 657 547 657 q 469 676 489 657 q 449 726 449 696 z "},"ë":{"ha":640,"x_min":26,"x_max":621,"o":"m 533 68 q 425 8 488 31 q 300 -14 363 -14 q 190 8 240 -14 q 103 66 140 29 q 47 153 67 103 q 26 260 26 203 q 55 389 26 328 q 131 496 83 450 q 242 569 179 542 q 371 596 304 596 q 535 537 469 596 q 621 382 601 478 q 517 344 575 367 q 396 298 458 322 q 271 250 333 274 q 154 207 208 226 q 215 131 174 160 q 311 103 256 103 q 388 117 349 103 q 456 154 428 131 l 533 68 m 475 410 q 428 462 463 444 q 357 479 394 479 q 277 463 315 479 q 210 419 239 446 q 164 358 181 392 q 147 289 147 324 l 147 282 q 229 313 185 296 q 317 348 274 331 q 402 381 361 365 q 475 410 443 397 m 415 726 q 424 761 415 744 q 444 789 432 778 q 473 807 457 800 q 504 814 489 814 q 551 794 531 814 q 571 743 571 775 q 543 681 571 706 q 485 657 515 657 q 436 676 457 657 q 415 726 415 696 m 151 726 q 160 761 151 744 q 181 789 168 778 q 209 807 193 800 q 242 814 225 814 q 288 794 267 814 q 308 743 308 774 q 280 681 308 706 q 222 657 251 657 q 173 676 194 657 q 151 726 151 696 z "},"ö":{"ha":699,"x_min":21,"x_max":646,"o":"m 29 292 q 68 410 38 354 q 146 506 99 465 q 252 572 193 547 q 376 596 311 596 q 486 574 436 596 q 572 516 536 553 q 626 429 607 479 q 646 324 646 379 q 619 193 646 254 q 544 86 592 132 q 434 13 497 40 q 300 -14 371 -14 q 183 8 236 -14 q 92 71 129 31 q 38 167 56 111 q 29 292 21 224 m 147 290 q 152 217 142 251 q 185 158 163 183 q 240 117 207 132 q 311 103 272 103 q 392 119 353 103 q 460 163 431 135 q 508 229 490 192 q 526 308 526 267 q 514 376 526 344 q 478 430 501 407 q 424 466 456 453 q 357 479 393 479 q 282 465 318 479 q 217 424 246 450 q 170 364 189 399 q 147 290 151 329 m 465 726 q 493 789 465 764 q 553 814 521 814 q 599 794 579 814 q 619 743 619 775 q 592 681 619 706 q 533 657 564 657 q 485 676 506 657 q 465 726 465 696 m 201 726 q 230 789 201 764 q 290 814 258 814 q 336 794 315 814 q 357 743 357 774 q 328 681 357 706 q 271 657 300 657 q 222 676 243 657 q 201 726 201 696 z "},"ü":{"ha":703,"x_min":40,"x_max":644,"o":"m 572 -12 l 472 -12 l 478 149 q 374 32 438 78 q 222 -14 311 -14 q 87 34 133 -14 q 47 160 40 82 l 99 581 l 217 581 l 172 213 q 194 139 169 169 q 278 104 219 108 q 356 119 319 104 q 420 158 392 133 q 467 218 449 183 q 490 294 485 253 l 525 581 l 644 581 l 572 -12 m 428 726 q 436 761 428 744 q 457 789 444 778 q 485 807 469 800 q 517 814 501 814 q 563 794 543 814 q 583 743 583 775 q 556 681 583 706 q 497 657 528 657 q 449 676 469 657 q 428 726 428 696 m 164 726 q 172 761 164 744 q 193 789 181 778 q 222 807 206 800 q 254 814 238 814 q 300 794 279 814 q 321 743 321 774 q 292 681 321 706 q 235 657 264 657 q 185 676 207 657 q 164 726 164 696 z "},"à":{"ha":743,"x_min":25,"x_max":683,"o":"m 25 256 q 53 385 25 324 q 130 494 82 447 q 240 568 178 540 q 369 596 303 596 q 444 585 411 596 q 501 560 478 575 q 537 528 524 544 q 554 499 550 511 l 569 581 l 683 581 l 613 0 l 493 0 l 503 74 q 477 47 494 63 q 434 19 460 32 q 374 -4 408 6 q 296 -14 339 -14 q 185 8 235 -14 q 99 66 135 29 q 44 152 64 103 q 25 256 25 201 m 146 271 q 192 151 146 199 q 314 103 238 103 q 399 119 360 103 q 468 165 439 136 q 514 231 497 193 q 531 313 531 269 q 485 432 531 385 q 360 479 439 479 q 276 463 315 479 q 208 419 238 447 q 163 352 179 390 q 146 271 146 314 m 311 861 q 364 768 339 815 q 415 675 389 721 l 326 675 q 255 768 290 721 q 183 861 219 815 l 311 861 z "},"è":{"ha":640,"x_min":26,"x_max":621,"o":"m 533 68 q 425 8 488 31 q 300 -14 363 -14 q 190 8 240 -14 q 103 66 140 29 q 47 153 67 103 q 26 260 26 203 q 55 389 26 328 q 131 496 83 450 q 242 569 179 542 q 371 596 304 596 q 535 537 469 596 q 621 382 601 478 q 517 344 575 367 q 396 298 458 322 q 271 250 333 274 q 154 207 208 226 q 215 131 174 160 q 311 103 256 103 q 388 117 349 103 q 456 154 428 131 l 533 68 m 475 410 q 428 462 463 444 q 357 479 394 479 q 277 463 315 479 q 210 419 239 446 q 164 358 181 392 q 147 289 147 324 l 147 282 q 229 313 185 296 q 317 348 274 331 q 402 381 361 365 q 475 410 443 397 m 288 861 q 340 768 315 815 q 392 675 365 721 l 303 675 q 231 768 267 721 q 160 861 196 815 l 288 861 z "},"ì":{"ha":281,"x_min":0,"x_max":232,"o":"m 151 0 l 33 0 l 104 581 l 222 581 l 151 0 m 128 861 q 181 768 156 815 q 232 675 206 721 l 143 675 q 72 768 107 721 q 0 861 36 815 l 128 861 z "},"ò":{"ha":699,"x_min":21,"x_max":646,"o":"m 29 292 q 68 410 38 354 q 146 506 99 465 q 252 572 193 547 q 376 596 311 596 q 486 574 436 596 q 572 516 536 553 q 626 429 607 479 q 646 324 646 379 q 619 193 646 254 q 544 86 592 132 q 434 13 497 40 q 300 -14 371 -14 q 183 8 236 -14 q 92 71 129 31 q 38 167 56 111 q 29 292 21 224 m 147 290 q 152 217 142 251 q 185 158 163 183 q 240 117 207 132 q 311 103 272 103 q 392 119 353 103 q 460 163 431 135 q 508 229 490 192 q 526 308 526 267 q 514 376 526 344 q 478 430 501 407 q 424 466 456 453 q 357 479 393 479 q 282 465 318 479 q 217 424 246 450 q 170 364 189 399 q 147 290 151 329 m 307 861 q 360 768 335 815 q 411 675 385 721 l 322 675 q 251 768 286 721 q 179 861 215 815 l 307 861 z "},"ù":{"ha":703,"x_min":40,"x_max":644,"o":"m 572 -12 l 472 -12 l 478 149 q 374 32 438 78 q 222 -14 311 -14 q 87 34 133 -14 q 47 160 40 82 l 99 581 l 217 581 l 172 213 q 194 139 169 169 q 278 104 219 108 q 356 119 319 104 q 420 158 392 133 q 467 218 449 183 q 490 294 485 253 l 525 581 l 644 581 l 572 -12 m 328 861 q 381 768 356 815 q 432 675 406 721 l 343 675 q 272 768 307 721 q 200 861 236 815 l 328 861 z "},",":{"ha":335,"x_min":-60,"x_max":213,"o":"m 213 121 l 54 -168 l -60 -168 q 12 -24 -24 -96 q 85 121 47 47 l 213 121 z "},".":{"ha":303,"x_min":36,"x_max":193,"o":"m 36 69 q 44 103 36 88 q 65 131 53 119 q 94 150 78 143 q 126 157 110 157 q 172 136 151 157 q 193 85 193 115 q 165 24 193 47 q 107 0 136 0 q 58 19 79 0 q 36 69 36 38 z "},"f":{"ha":449,"x_min":42,"x_max":543,"o":"m 42 465 l 56 582 l 154 582 l 171 717 q 290 987 193 899 q 543 1079 386 1075 l 529 965 q 363 896 421 960 q 290 714 306 832 l 274 582 l 457 582 l 443 465 l 260 465 l 203 0 l 83 0 l 140 465 l 42 465 z "},"å":{"ha":743,"x_min":25,"x_max":683,"o":"m 25 256 q 53 385 25 324 q 130 494 82 447 q 240 568 178 540 q 369 596 303 596 q 444 585 411 596 q 501 560 478 575 q 537 528 524 544 q 554 499 550 511 l 569 581 l 683 581 l 613 0 l 493 0 l 503 74 q 477 47 494 63 q 434 19 460 32 q 374 -4 408 6 q 296 -14 339 -14 q 185 8 235 -14 q 99 66 135 29 q 44 152 64 103 q 25 256 25 201 m 146 271 q 192 151 146 199 q 314 103 238 103 q 399 119 360 103 q 468 165 439 136 q 514 231 497 193 q 531 313 531 269 q 485 432 531 385 q 360 479 439 479 q 276 463 315 479 q 208 419 238 447 q 163 352 179 390 q 146 271 146 314 m 281 744 q 292 794 281 771 q 322 835 303 817 q 365 863 340 853 q 415 874 389 874 q 489 842 460 874 q 518 767 518 811 q 507 717 518 740 q 477 675 496 693 q 435 647 458 657 q 386 636 411 636 q 310 668 340 636 q 281 744 281 700 m 351 747 q 363 717 351 729 q 394 706 375 706 q 433 721 417 706 q 450 758 450 736 q 438 790 450 778 q 407 803 425 803 q 367 787 383 803 q 351 747 351 771 z "},"v":{"ha":615,"x_min":26,"x_max":636,"o":"m 256 -35 q 140 273 193 121 q 26 581 86 425 l 156 581 q 215 419 193 482 q 250 315 238 357 q 269 245 263 274 q 282 188 275 217 q 301 226 292 207 q 321 267 310 244 q 347 316 332 289 q 384 380 363 343 q 435 466 406 417 q 507 581 465 515 l 636 581 q 446 273 538 425 q 256 -35 354 121 z "},"j":{"ha":281,"x_min":-75,"x_max":271,"o":"m -3 -281 l -75 -192 q -3 -112 -31 -160 q 33 3 25 -64 l 104 581 l 222 581 l 151 -1 q 100 -165 140 -96 q -3 -281 60 -235 m 118 794 q 126 828 118 813 q 146 856 133 844 q 174 874 158 867 q 206 881 190 881 q 251 861 232 881 q 271 811 271 842 q 244 751 271 775 q 186 726 217 726 q 138 746 158 726 q 118 794 118 765 z "},"s":{"ha":471,"x_min":-1,"x_max":424,"o":"m 424 529 l 351 446 q 342 453 350 447 q 322 464 335 458 q 293 474 310 469 q 258 479 276 479 q 208 467 233 479 q 182 421 182 454 q 199 382 182 397 q 240 353 215 367 q 292 328 264 340 q 345 297 321 315 q 386 251 369 278 q 403 185 403 225 q 387 107 403 143 q 342 44 371 71 q 271 3 313 18 q 179 -12 229 -12 q 76 6 125 -12 q -1 61 26 25 q 23 86 8 71 q 51 115 38 101 q 73 138 64 129 q 83 147 82 147 q 92 139 83 146 q 117 124 101 132 q 153 110 133 117 q 194 104 174 104 q 257 122 231 104 q 283 171 283 140 q 267 207 283 193 q 225 233 250 221 q 172 256 200 244 q 118 287 143 268 q 76 333 93 306 q 60 404 60 361 q 80 493 60 457 q 131 552 100 529 q 198 585 161 575 q 268 594 235 594 q 352 578 308 594 q 424 529 396 561 z "},"k":{"ha":610,"x_min":33,"x_max":581,"o":"m 519 596 l 581 525 q 469 431 522 476 q 357 335 415 385 q 458 167 408 251 q 558 0 508 83 l 422 0 q 343 128 383 65 q 264 257 303 192 l 174 183 l 151 0 l 33 0 l 165 1079 l 283 1079 l 190 322 q 356 459 278 393 q 519 596 435 525 z "},"y":{"ha":658,"x_min":28,"x_max":676,"o":"m 157 -279 l 38 -279 q 84 -202 63 -239 q 127 -127 106 -165 q 172 -48 149 -89 q 224 40 196 -7 q 175 172 200 103 q 126 310 150 240 q 76 449 101 379 q 28 581 51 518 l 157 581 q 219 414 194 482 q 260 297 244 346 q 283 213 275 247 q 299 149 292 178 q 331 213 313 178 q 376 297 349 247 q 444 414 403 346 q 547 581 485 482 l 676 581 l 157 -279 z "},"ø":{"ha":699,"x_min":0,"x_max":651,"o":"m 26 256 q 55 387 26 325 q 132 495 83 449 q 244 569 181 542 q 376 596 307 596 q 460 584 421 596 q 532 551 500 572 q 568 590 551 574 q 596 617 585 606 l 651 567 l 586 501 q 631 419 615 465 q 646 324 646 374 q 619 193 646 254 q 544 86 592 132 q 434 13 497 40 q 300 -14 371 -14 q 125 39 197 -14 l 51 -36 l 0 18 l 74 93 q 38 167 50 125 q 26 256 26 208 m 215 129 q 311 103 260 103 q 392 119 353 103 q 460 163 431 135 q 508 229 490 192 q 526 308 526 267 q 519 363 526 336 q 496 410 511 389 l 215 129 m 146 271 q 151 225 146 247 q 165 185 156 203 q 303 323 231 251 q 440 460 375 394 q 357 479 401 479 q 277 463 315 479 q 210 417 239 446 q 163 351 181 389 q 146 271 146 314 z "},"w":{"ha":906,"x_min":33,"x_max":924,"o":"m 410 488 l 378 581 l 481 581 q 530 430 510 493 q 564 320 550 367 q 586 242 578 274 q 600 188 594 210 q 630 263 614 229 q 669 340 646 297 q 724 438 692 382 q 804 581 757 494 l 924 581 l 574 -35 q 510 168 535 69 q 446 371 485 267 l 221 -35 l 33 581 l 153 581 q 196 438 179 494 q 223 339 213 381 q 239 263 233 297 q 247 188 244 229 q 265 225 256 204 q 293 278 275 246 q 339 361 311 311 q 410 488 367 411 z "},"x":{"ha":599,"x_min":-35,"x_max":589,"o":"m 215 307 q 131 444 175 376 q 49 581 88 513 l 194 581 q 222 531 208 553 q 248 488 235 508 q 274 445 261 467 q 303 397 288 424 q 379 488 343 449 q 457 581 415 528 l 589 581 q 531 509 558 542 q 477 444 504 476 q 422 377 450 411 q 361 301 393 343 q 406 229 382 268 q 453 151 429 190 q 501 72 478 111 q 543 0 524 33 l 392 0 q 328 100 360 54 q 264 199 296 146 q 181 100 221 146 q 97 0 140 54 l -35 0 q 91 155 28 79 q 215 307 154 231 z "},"z":{"ha":607,"x_min":-28,"x_max":594,"o":"m 519 0 l -28 0 l 364 479 l 169 479 q 92 506 121 479 q 69 576 64 532 l 76 636 l 185 636 l 182 618 q 189 588 179 594 q 224 581 199 581 l 594 581 l 214 117 l 533 117 l 519 0 z "},"o":{"ha":699,"x_min":21,"x_max":646,"o":"m 29 292 q 68 410 38 354 q 146 506 99 465 q 252 572 193 547 q 376 596 311 596 q 486 574 436 596 q 572 516 536 553 q 626 429 607 479 q 646 324 646 379 q 619 193 646 254 q 544 86 592 132 q 434 13 497 40 q 300 -14 371 -14 q 183 8 236 -14 q 92 71 129 31 q 38 167 56 111 q 29 292 21 224 m 147 290 q 152 217 142 251 q 185 158 163 183 q 240 117 207 132 q 311 103 272 103 q 392 119 353 103 q 460 163 431 135 q 508 229 490 192 q 526 308 526 267 q 514 376 526 344 q 478 430 501 407 q 424 466 456 453 q 357 479 393 479 q 282 465 318 479 q 217 424 246 450 q 170 364 189 399 q 147 290 151 329 z "},"æ":{"ha":963,"x_min":7,"x_max":943,"o":"m 856 68 q 747 8 810 31 q 622 -14 685 -14 q 511 7 561 -14 q 425 64 461 28 q 322 8 382 28 q 196 -12 263 -12 q 108 0 144 -12 q 50 33 72 13 q 17 82 28 54 q 7 139 7 110 q 28 223 7 188 q 80 281 49 258 q 149 315 111 304 q 221 326 186 326 l 357 326 q 377 383 364 356 q 407 438 390 411 q 294 479 381 479 q 195 467 239 479 q 118 436 151 454 l 81 528 q 192 578 129 560 q 325 596 256 596 q 430 578 386 596 q 496 529 474 561 q 590 578 540 561 q 693 596 640 596 q 858 537 792 596 q 943 382 924 478 q 839 344 897 367 q 718 298 781 322 q 593 250 656 274 q 476 207 531 226 q 537 131 496 160 q 633 103 578 103 q 710 117 671 103 q 778 154 750 131 l 856 68 m 797 410 q 751 462 785 444 q 679 479 717 479 q 599 463 638 479 q 532 419 561 446 q 486 358 503 392 q 469 289 469 324 l 469 282 q 551 313 507 296 q 640 348 596 331 q 724 381 683 365 q 797 410 765 397 m 119 163 q 128 133 119 144 q 150 115 136 121 q 182 106 164 108 q 218 103 200 103 q 306 114 267 103 q 368 149 346 125 q 349 239 350 192 l 276 239 q 200 233 231 239 q 151 216 169 226 q 126 192 133 206 q 119 163 119 178 z "},"A":{"ha":899,"x_min":-47,"x_max":849,"o":"m 699 0 q 685 44 694 15 q 665 112 676 74 q 641 195 654 150 q 614 289 628 240 l 258 289 l 103 0 l -47 0 l 531 1054 q 551 983 536 1035 q 588 860 567 932 q 636 702 610 789 q 690 526 663 615 q 742 351 717 438 q 790 193 768 265 q 828 70 813 121 q 849 0 843 19 l 699 0 m 326 417 l 578 417 q 553 505 565 463 q 530 583 540 547 q 512 644 519 618 q 500 686 504 671 q 496 706 499 689 q 492 736 493 722 q 479 706 486 722 q 471 686 472 689 l 326 417 z "},"ï":{"ha":282,"x_min":-21,"x_max":397,"o":"m 151 0 l 33 0 l 104 581 l 222 581 l 151 0 m 243 726 q 271 789 243 764 q 331 814 299 814 q 377 794 357 814 q 397 743 397 775 q 369 681 397 706 q 311 657 342 657 q 263 676 283 657 q 243 726 243 696 m -21 726 q 8 789 -21 764 q 68 814 36 814 q 114 794 93 814 q 135 743 135 774 q 106 681 135 706 q 49 657 78 657 q 0 676 21 657 q -21 726 -21 696 z "},"ý":{"ha":658,"x_min":28,"x_max":676,"o":"m 157 -279 l 38 -279 q 84 -202 63 -239 q 127 -127 106 -165 q 172 -48 149 -89 q 224 40 196 -7 q 175 172 200 103 q 126 310 150 240 q 76 449 101 379 q 28 581 51 518 l 157 581 q 219 414 194 482 q 260 297 244 346 q 283 213 275 247 q 299 149 292 178 q 331 213 313 178 q 376 297 349 247 q 444 414 403 346 q 547 581 485 482 l 676 581 l 157 -279 m 314 675 q 390 768 353 721 q 465 861 426 815 l 593 861 l 404 675 l 314 675 z "},"ÿ":{"ha":658,"x_min":28,"x_max":676,"o":"m 157 -279 l 38 -279 q 84 -202 63 -239 q 127 -127 106 -165 q 172 -48 149 -89 q 224 40 196 -7 q 175 172 200 103 q 126 310 150 240 q 76 449 101 379 q 28 581 51 518 l 157 581 q 219 414 194 482 q 260 297 244 346 q 283 213 275 247 q 299 149 292 178 q 331 213 313 178 q 376 297 349 247 q 444 414 403 346 q 547 581 485 482 l 676 581 l 157 -279 m 411 726 q 419 761 411 744 q 440 789 428 778 q 469 807 453 800 q 500 814 485 814 q 547 794 526 814 q 567 743 567 775 q 539 681 567 706 q 481 657 511 657 q 432 676 453 657 q 411 726 411 696 m 147 726 q 156 761 147 744 q 176 789 164 778 q 205 807 189 800 q 238 814 221 814 q 283 794 263 814 q 304 743 304 774 q 276 681 304 706 q 218 657 247 657 q 169 676 190 657 q 147 726 147 696 z "},"B":{"ha":825,"x_min":74,"x_max":757,"o":"m 333 869 l 297 572 l 433 572 q 506 586 475 572 q 559 624 538 600 q 592 678 581 647 q 603 744 603 710 q 563 840 603 810 q 454 869 522 869 l 333 869 m 281 443 l 243 138 l 385 138 q 467 148 428 138 q 535 180 506 158 q 583 233 565 201 q 600 308 600 265 q 583 372 600 346 q 540 413 567 397 q 477 436 513 429 q 404 443 442 443 l 281 443 m 74 0 l 197 1007 l 464 1007 q 678 955 599 1007 q 757 783 757 903 q 748 699 757 742 q 718 619 739 656 q 663 553 697 582 q 576 510 628 524 q 639 488 608 503 q 694 449 669 474 q 733 388 718 424 q 747 303 747 351 q 715 166 747 224 q 632 72 683 108 q 515 17 581 35 q 381 0 449 0 l 74 0 z "},"D":{"ha":986,"x_min":74,"x_max":947,"o":"m 197 1007 l 450 1007 q 683 967 588 1007 q 836 863 778 928 q 921 717 894 799 q 947 550 947 635 q 899 322 947 424 q 772 149 851 221 q 590 39 693 78 q 376 0 488 0 l 74 0 l 197 1007 m 372 144 q 538 172 460 144 q 672 249 615 199 q 763 374 729 300 q 796 544 796 449 q 768 684 796 625 q 695 783 740 743 q 592 842 650 822 q 474 861 535 861 l 331 861 l 243 144 l 372 144 z "},"E":{"ha":853,"x_min":74,"x_max":858,"o":"m 74 0 l 197 1007 l 858 1007 l 842 869 l 333 869 l 297 575 l 750 575 l 732 435 l 279 435 l 243 140 l 771 140 l 754 0 l 74 0 z "},"H":{"ha":1051,"x_min":74,"x_max":1006,"o":"m 74 0 l 197 1007 l 349 1007 l 296 579 l 800 579 l 853 1007 l 1006 1007 q 997 940 1003 989 q 983 822 992 890 q 964 672 974 754 q 943 503 954 589 q 922 335 932 418 q 903 185 913 253 q 889 67 894 117 q 881 0 883 18 l 729 0 l 782 435 l 278 435 l 225 0 l 74 0 z "},"I":{"ha":396,"x_min":74,"x_max":349,"o":"m 197 1007 l 349 1007 l 225 0 l 74 0 l 197 1007 z "},"J":{"ha":457,"x_min":-110,"x_max":413,"o":"m -110 -208 l -92 -65 q -1 -47 -43 -62 q 75 1 42 -31 q 130 79 108 32 q 160 192 151 126 l 260 1007 l 413 1007 l 313 188 q 265 22 301 94 q 172 -101 228 -50 q 43 -178 115 -151 q -110 -208 -29 -206 z "},"K":{"ha":896,"x_min":74,"x_max":963,"o":"m 671 0 q 592 119 629 63 q 519 233 556 176 q 447 349 483 290 q 369 469 410 407 q 329 434 349 450 q 289 401 310 418 q 266 201 276 294 q 242 0 256 107 l 74 0 l 197 1007 l 365 1007 l 319 631 q 314 606 317 618 q 308 582 311 594 q 324 599 317 592 q 342 618 332 607 q 556 812 451 711 q 769 1007 660 913 l 963 1007 q 729 789 844 899 q 496 571 614 679 q 591 426 546 496 q 679 286 636 356 q 766 146 722 217 q 858 0 810 75 l 671 0 z "},"M":{"ha":1253,"x_min":74,"x_max":1211,"o":"m 203 1051 q 246 977 214 1032 q 322 850 278 922 q 414 697 365 778 q 505 544 463 615 q 579 419 547 472 q 621 350 611 367 q 652 388 626 357 q 717 464 678 418 q 803 567 756 510 q 902 685 851 625 q 1003 806 953 746 q 1095 915 1053 865 q 1168 1001 1138 964 q 1211 1051 1199 1038 l 1082 0 l 921 0 l 990 564 q 995 588 992 575 q 1000 606 999 600 q 953 549 986 589 q 879 459 921 510 q 792 352 838 408 q 705 246 746 296 q 633 158 664 196 q 590 104 601 119 q 558 156 582 117 q 503 249 535 196 q 438 361 472 301 q 372 472 403 421 q 321 560 342 524 q 296 606 300 597 q 295 588 294 600 q 294 564 296 575 l 225 0 l 74 0 l 203 1051 z "},"N":{"ha":1128,"x_min":74,"x_max":1081,"o":"m 1081 1007 l 951 -46 q 886 35 935 -21 q 774 162 838 90 q 638 313 710 233 q 503 465 567 393 q 392 592 439 536 q 331 672 344 647 l 310 708 l 308 664 l 226 0 l 74 0 l 203 1054 q 268 974 219 1029 q 381 847 317 918 q 516 699 444 776 q 651 551 588 621 q 762 426 714 481 q 826 347 810 371 l 847 308 l 849 356 l 929 1007 l 1081 1007 z "},"P":{"ha":800,"x_min":74,"x_max":796,"o":"m 288 503 l 425 503 q 528 525 486 503 q 594 578 569 547 q 631 644 619 610 q 642 704 642 679 q 633 758 642 729 q 606 810 625 786 q 553 850 586 835 q 471 865 521 865 l 332 865 l 288 503 m 74 0 l 197 1007 l 472 1007 q 604 988 544 1007 q 706 934 664 969 q 772 847 749 899 q 796 728 796 794 q 775 599 796 665 q 708 481 754 533 q 590 394 663 428 q 413 360 517 360 l 271 360 l 226 0 l 74 0 z "},"R":{"ha":869,"x_min":74,"x_max":807,"o":"m 74 0 l 197 1007 l 472 1007 q 604 988 544 1007 q 706 934 664 969 q 772 847 749 899 q 796 728 796 794 q 785 637 796 683 q 751 547 774 590 q 691 465 728 503 q 603 401 654 428 q 701 208 647 314 q 807 0 754 101 l 625 0 q 578 90 603 43 q 531 184 554 138 q 484 276 507 231 q 440 360 461 321 l 413 360 l 271 360 l 226 0 l 74 0 m 288 503 l 425 503 q 528 524 486 503 q 594 577 569 546 q 631 643 619 608 q 642 704 642 678 q 633 758 642 729 q 606 810 625 786 q 553 850 586 835 q 471 865 521 865 l 332 865 l 288 503 z "},"U":{"ha":989,"x_min":96,"x_max":954,"o":"m 443 -11 q 297 15 363 -11 q 185 90 231 42 q 117 205 139 138 q 106 356 96 272 l 186 1007 l 338 1007 l 258 360 q 265 270 253 311 q 305 198 278 229 q 372 149 332 167 q 461 132 411 132 q 554 149 510 132 q 634 198 599 167 q 692 270 669 229 q 721 360 715 311 l 800 1007 l 954 1007 l 874 356 q 826 205 864 272 q 729 90 788 138 q 597 15 671 42 q 443 -11 524 -11 z "},"Y":{"ha":908,"x_min":79,"x_max":976,"o":"m 522 332 l 482 0 l 329 0 l 369 332 q 340 399 363 347 q 288 520 318 450 q 225 669 258 590 q 162 819 192 749 q 109 940 132 889 q 79 1007 86 992 l 251 1007 q 272 961 258 993 q 303 887 285 929 q 341 794 321 844 q 381 693 361 743 q 420 597 401 643 q 453 514 439 550 l 463 468 q 475 491 469 479 q 486 514 481 503 q 540 597 510 550 q 602 693 569 643 q 667 794 635 743 q 726 887 699 844 q 774 961 753 929 q 806 1007 796 993 l 976 1007 l 522 332 z "},"~":{"ha":643,"x_min":126,"x_max":592,"o":"m 343 675 q 309 703 324 696 q 275 711 294 711 q 229 699 256 711 q 194 647 203 686 l 126 651 q 147 704 132 681 q 183 744 163 728 q 226 770 203 761 q 272 779 250 779 q 331 767 306 779 q 375 732 356 754 q 410 704 394 711 q 444 697 425 697 q 490 709 464 697 q 526 761 515 721 l 592 757 q 572 705 588 728 q 536 665 557 682 q 492 640 515 649 q 447 631 468 631 q 343 675 385 631 z "},"ñ":{"ha":704,"x_min":33,"x_max":660,"o":"m 104 581 l 208 581 q 204 502 206 538 q 200 432 203 467 q 306 551 242 507 q 457 596 371 596 q 591 547 544 596 q 631 422 638 499 l 579 0 l 460 0 l 506 368 q 484 444 508 413 q 400 478 460 475 q 322 463 358 478 q 258 424 286 449 q 210 364 229 399 q 186 288 192 329 l 151 0 l 33 0 l 104 581 m 411 707 q 377 735 392 728 q 343 743 363 743 q 297 731 324 743 q 261 679 271 718 l 193 683 q 214 736 199 713 q 250 776 229 760 q 294 802 271 793 q 340 811 318 811 q 399 799 374 811 q 443 764 424 786 q 477 736 463 743 q 511 729 492 729 q 556 741 531 729 q 593 793 582 753 l 660 789 q 639 737 654 760 q 603 697 624 714 q 560 672 583 681 q 515 663 536 663 q 411 707 453 663 z "},"F":{"ha":771,"x_min":74,"x_max":800,"o":"m 74 0 l 197 1007 l 800 1007 l 783 867 l 332 867 l 294 563 l 689 563 l 671 421 l 276 421 l 225 0 l 74 0 z "},"L":{"ha":786,"x_min":74,"x_max":744,"o":"m 74 0 l 197 1007 l 350 1007 l 244 144 l 744 144 l 726 0 l 74 0 z "},"C":{"ha":883,"x_min":63,"x_max":913,"o":"m 832 72 q 781 45 813 60 q 708 18 750 31 q 616 -3 667 6 q 510 -11 565 -11 q 318 24 401 -11 q 178 122 235 60 q 92 265 121 183 q 63 439 63 347 q 111 669 63 564 q 241 853 160 775 q 429 974 322 931 q 651 1018 536 1018 q 733 1013 692 1018 q 809 997 774 1007 q 872 974 844 988 q 913 947 899 961 q 892 919 900 931 q 876 897 885 908 q 858 869 868 885 q 831 829 847 854 q 790 850 814 842 q 741 864 767 858 q 689 872 715 869 q 640 875 663 875 q 477 842 554 875 q 342 753 400 808 q 251 624 285 697 q 217 472 217 551 q 240 349 217 408 q 304 243 263 289 q 406 170 346 197 q 540 143 465 143 q 625 151 583 143 q 700 171 667 160 q 756 193 733 182 q 785 210 779 204 l 832 72 z "},"Q":{"ha":1140,"x_min":61,"x_max":1097,"o":"m 61 451 q 109 668 61 565 q 237 849 157 771 q 422 972 317 926 q 640 1018 526 1018 q 822 981 738 1018 q 967 881 906 944 q 1063 733 1028 817 q 1097 553 1097 649 q 1047 327 1097 432 q 907 132 996 222 l 1082 144 l 1064 0 l 624 0 q 569 -8 596 -6 q 514 -11 542 -11 q 333 25 415 -11 q 190 124 250 61 q 95 271 129 186 q 61 451 61 356 m 213 464 q 237 334 213 394 q 304 228 261 274 q 406 158 347 183 q 536 132 465 132 q 691 165 617 132 q 822 253 765 197 q 912 383 878 308 q 946 540 946 457 q 922 670 946 610 q 854 776 897 731 q 752 847 811 821 q 624 872 693 872 q 467 840 542 872 q 337 751 393 807 q 247 622 281 696 q 213 464 213 547 z "},"T":{"ha":761,"x_min":110,"x_max":782,"o":"m 782 1007 l 764 863 l 510 863 l 404 0 l 253 0 l 358 863 l 110 863 l 128 1007 l 782 1007 z "},"‹":{"ha":389,"x_min":47,"x_max":321,"o":"m 254 69 l 47 336 q 75 363 54 342 q 124 410 96 383 q 183 469 151 438 q 244 528 215 501 q 293 576 272 556 q 321 603 314 597 l 303 457 q 278 433 294 450 q 246 397 263 415 q 213 361 229 378 q 189 336 197 344 q 206 312 194 329 q 231 276 218 294 q 254 240 243 257 q 272 215 265 222 l 254 69 z "},">":{"ha":771,"x_min":61,"x_max":719,"o":"m 61 -19 l 82 154 l 418 335 l 126 517 l 149 690 l 719 335 l 61 -19 z "},"<":{"ha":768,"x_min":36,"x_max":694,"o":"m 629 154 l 608 -19 l 36 335 l 694 690 l 674 517 l 338 335 l 629 154 z "},"=":{"ha":881,"x_min":54,"x_max":815,"o":"m 782 276 l 767 151 l 54 151 l 69 276 l 782 276 m 815 550 l 800 425 l 88 425 l 103 550 l 815 550 z "},"@":{"ha":1314,"x_min":38,"x_max":1242,"o":"m 310 256 q 338 385 310 324 q 415 494 367 447 q 525 568 463 540 q 654 596 588 596 q 729 585 696 596 q 785 560 763 575 q 822 528 808 544 q 839 499 835 511 l 854 581 l 968 581 l 911 111 l 953 111 q 1003 125 974 111 q 1060 171 1033 139 q 1105 255 1086 203 q 1124 385 1124 307 q 1099 527 1124 458 q 1024 649 1074 596 q 897 733 974 701 q 718 765 821 765 q 470 715 576 765 q 293 585 364 664 q 188 413 222 507 q 153 233 153 319 q 185 66 153 144 q 274 -71 217 -12 q 409 -162 331 -129 q 581 -196 488 -196 q 739 -171 661 -196 q 885 -101 817 -146 l 944 -183 q 759 -276 863 -246 q 560 -306 656 -306 q 352 -264 447 -306 q 187 -151 257 -222 q 77 18 117 -79 q 38 226 38 115 q 85 460 38 343 q 224 669 133 576 q 443 820 314 763 q 736 878 572 878 q 958 838 863 878 q 1116 731 1053 797 q 1210 577 1179 664 q 1242 397 1242 490 q 1217 232 1242 306 q 1151 107 1193 158 q 1055 28 1110 56 q 939 0 1000 0 l 778 0 l 788 74 q 762 47 779 63 q 719 19 744 32 q 658 -4 693 6 q 581 -14 624 -14 q 469 8 519 -14 q 384 66 419 29 q 329 152 349 103 q 310 256 310 201 m 431 271 q 476 151 431 199 q 599 103 522 103 q 684 119 644 103 q 753 165 724 136 q 799 231 782 193 q 815 313 815 269 q 769 432 815 385 q 644 479 724 479 q 561 463 600 479 q 493 419 522 447 q 447 352 464 390 q 431 271 431 314 z "},"?":{"ha":661,"x_min":97,"x_max":653,"o":"m 203 771 l 97 813 q 132 880 110 842 q 190 951 154 918 q 279 1008 226 985 q 407 1031 332 1031 q 506 1011 461 1031 q 584 958 551 992 q 635 881 617 925 q 653 785 653 836 q 608 631 653 696 q 483 513 563 565 q 438 483 463 499 q 392 449 414 468 q 352 403 369 429 q 331 340 335 376 l 317 231 l 190 231 l 207 367 q 230 441 213 413 q 273 491 247 469 q 331 531 299 513 q 397 575 363 550 q 491 669 461 621 q 521 775 521 718 q 487 869 521 832 q 392 907 453 907 q 324 899 353 907 q 274 873 296 890 q 234 830 251 856 q 203 771 217 804 m 224 -3 q 175 16 196 -3 q 154 65 154 35 q 163 100 154 83 q 183 128 171 117 q 212 146 196 139 q 243 153 228 153 q 290 133 269 153 q 310 82 310 114 q 282 21 310 44 q 224 -3 254 -3 z "},"!":{"ha":369,"x_min":63,"x_max":329,"o":"m 201 1056 l 329 1056 l 228 233 l 100 233 l 201 1056 m 135 -6 q 84 17 106 -6 q 67 74 63 39 q 98 131 71 108 q 154 153 125 153 q 204 131 183 153 q 221 74 225 108 q 190 17 217 39 q 135 -6 164 -6 z "},":":{"ha":307,"x_min":36,"x_max":239,"o":"m 83 451 q 92 485 83 469 q 113 513 100 501 q 141 532 125 525 q 172 539 157 539 q 219 519 199 539 q 239 467 239 499 q 211 405 239 429 q 153 381 183 381 q 104 400 125 381 q 83 451 83 419 m 36 69 q 44 103 36 88 q 65 131 53 119 q 94 150 78 143 q 125 157 110 157 q 172 137 151 157 q 192 85 192 117 q 164 24 192 47 q 106 0 136 0 q 57 19 78 0 q 36 69 36 38 z "},";":{"ha":351,"x_min":-64,"x_max":271,"o":"m 208 121 l 51 -168 l -64 -168 q 8 -24 -28 -96 q 82 121 44 47 l 208 121 m 117 422 q 125 456 117 440 q 146 484 133 472 q 174 503 158 496 q 204 510 189 510 q 251 490 232 510 q 271 439 271 469 q 244 376 271 400 q 185 351 217 351 q 138 371 158 351 q 117 422 117 390 z "},"\"":{"ha":483,"x_min":118,"x_max":475,"o":"m 306 664 l 349 1014 l 475 1014 l 426 664 l 306 664 m 118 664 l 161 1014 l 286 1014 l 238 664 l 118 664 z "},"#":{"ha":808,"x_min":39,"x_max":782,"o":"m 361 0 l 424 258 l 293 258 l 231 0 l 101 0 l 164 258 l 39 258 q 54 321 46 290 q 69 383 63 351 l 194 383 l 228 518 l 103 518 l 131 642 l 257 642 q 289 774 274 708 q 322 906 304 839 l 450 906 l 385 642 l 515 642 l 581 906 l 710 906 l 644 642 l 782 642 q 769 579 775 610 q 756 518 763 549 l 615 518 l 582 383 l 721 383 q 706 321 714 351 q 692 258 699 290 l 551 258 q 521 129 536 193 q 490 0 506 65 l 361 0 m 356 518 q 340 450 349 483 q 324 383 332 417 l 454 383 l 486 518 l 356 518 z "},"%":{"ha":999,"x_min":72,"x_max":918,"o":"m 679 150 q 691 113 679 128 q 726 99 703 99 q 772 117 756 99 q 789 164 789 136 q 776 199 789 185 q 740 213 764 213 q 696 194 713 213 q 679 150 679 176 m 711 -25 q 647 -12 676 -25 q 595 22 617 0 q 561 73 574 43 q 549 138 549 103 q 566 214 549 178 q 612 277 583 250 q 678 320 640 304 q 756 336 715 336 q 819 324 790 336 q 871 289 849 311 q 906 237 893 267 q 918 174 918 207 q 901 96 918 132 q 854 33 883 60 q 788 -10 825 6 q 711 -25 750 -25 m 200 540 q 213 505 200 519 q 250 490 226 490 q 294 509 278 490 q 311 554 311 528 q 299 590 311 576 q 264 604 288 604 q 217 586 235 604 q 200 540 200 568 m 235 367 q 170 379 200 367 q 119 414 140 392 q 85 466 97 436 q 72 531 72 496 q 90 606 72 571 q 135 669 107 642 q 201 712 164 696 q 279 728 239 728 q 343 715 314 728 q 394 681 372 703 q 428 629 415 658 q 440 567 440 600 q 423 489 440 525 q 377 426 406 453 q 311 383 349 399 q 235 367 274 367 m 169 0 q 424 352 297 178 q 676 704 550 526 l 817 704 q 563 352 690 526 q 310 0 436 178 l 169 0 z "},"’":{"ha":249,"x_min":108,"x_max":260,"o":"m 167 796 l 108 831 q 161 901 143 858 q 176 992 179 943 l 256 1001 q 235 890 260 943 q 167 796 211 836 z "},"(":{"ha":407,"x_min":44,"x_max":472,"o":"m 44 307 q 73 542 44 431 q 147 749 101 654 q 249 919 192 843 q 363 1050 306 996 q 418 1034 390 1042 q 472 1018 446 1026 q 366 892 419 965 q 269 730 313 819 q 200 535 226 640 q 174 311 174 429 q 186 154 174 229 q 219 14 199 79 q 266 -106 239 -51 q 322 -199 293 -160 q 264 -216 294 -208 q 204 -232 233 -224 q 143 -135 172 -192 q 92 -10 114 -79 q 58 140 71 60 q 44 307 44 219 z "},")":{"ha":410,"x_min":-61,"x_max":368,"o":"m 368 508 q 340 272 368 383 q 266 65 311 160 q 163 -106 221 -29 q 47 -236 106 -182 q -6 -222 21 -229 q -61 -206 -33 -214 q 45 -81 -8 -153 q 141 81 99 -8 q 210 276 183 171 q 238 500 238 381 q 225 657 238 582 q 192 797 213 732 q 144 917 171 863 q 88 1010 117 971 q 147 1028 117 1018 q 206 1046 178 1038 q 268 949 239 1006 q 319 824 297 893 q 355 674 342 754 q 368 508 368 594 z "},"*":{"ha":521,"x_min":107,"x_max":511,"o":"m 393 799 q 442 768 417 783 q 493 738 467 753 q 466 699 479 718 q 439 660 453 679 l 340 724 q 331 663 336 693 q 324 603 326 633 l 240 603 l 256 724 q 199 694 228 708 q 142 664 169 679 l 107 740 l 221 800 l 124 864 q 149 899 136 882 q 172 936 161 917 l 274 872 l 289 1000 l 378 1000 q 369 936 374 968 q 361 872 364 904 l 478 935 l 511 863 q 451 831 481 847 q 393 799 422 814 z "},"+":{"ha":618,"x_min":39,"x_max":561,"o":"m 204 72 l 228 263 l 39 263 l 54 386 l 243 386 l 267 579 l 396 579 l 372 386 l 561 386 l 546 263 l 357 263 l 333 72 l 204 72 z "},"|":{"ha":365,"x_min":29,"x_max":319,"o":"m 29 -328 l 190 986 l 319 986 l 158 -328 l 29 -328 z "},"{":{"ha":451,"x_min":31,"x_max":492,"o":"m 31 356 l 46 479 q 104 499 81 481 q 144 547 128 518 q 168 608 160 575 q 181 669 176 640 l 207 885 q 233 984 215 950 q 276 1033 251 1018 q 333 1049 301 1047 q 399 1050 364 1050 l 492 1050 l 476 926 l 417 926 q 379 922 394 926 q 353 901 364 917 q 336 857 343 885 q 324 783 329 829 l 301 604 q 283 533 296 564 q 254 481 271 503 q 220 443 238 458 q 189 419 203 428 q 215 396 201 411 q 240 358 229 381 q 256 306 250 336 q 257 236 261 275 l 235 58 q 229 -16 229 13 q 235 -60 229 -44 q 256 -81 242 -75 q 292 -86 269 -86 l 351 -86 l 336 -211 l 243 -211 q 179 -210 210 -211 q 127 -194 149 -208 q 95 -146 106 -179 q 93 -49 85 -112 l 119 165 q 123 227 124 194 q 113 288 122 260 q 83 335 103 315 q 31 356 64 354 z "},"}":{"ha":451,"x_min":7,"x_max":467,"o":"m 467 479 l 451 356 q 394 336 418 354 q 356 291 371 318 q 331 232 340 264 q 318 171 322 200 l 292 -43 q 265 -143 283 -108 q 222 -193 247 -178 q 166 -210 197 -208 q 100 -211 135 -211 l 7 -211 l 22 -86 l 82 -86 q 119 -81 104 -86 q 144 -60 133 -75 q 161 -16 154 -44 q 174 58 168 13 l 194 231 q 213 304 200 272 q 243 359 226 336 q 278 397 260 382 q 310 419 296 411 q 283 443 297 428 q 258 481 269 458 q 240 533 246 503 q 240 604 235 564 l 263 783 q 268 857 268 829 q 262 901 268 885 q 242 922 256 917 q 207 926 229 926 l 147 926 l 161 1050 l 254 1050 q 319 1049 288 1050 q 372 1034 350 1049 q 404 985 394 1019 q 406 885 414 951 l 378 664 q 375 602 374 635 q 385 542 376 569 q 414 497 394 515 q 467 479 433 479 z "},"-":{"ha":410,"x_min":56,"x_max":329,"o":"m 56 240 l 71 364 l 329 364 l 314 240 l 56 240 z "},"/":{"ha":611,"x_min":-7,"x_max":644,"o":"m -7 -26 l 515 1036 l 644 1036 q 383 505 513 769 q 121 -26 253 240 l -7 -26 z "},"\\":{"ha":621,"x_min":121,"x_max":526,"o":"m 265 1036 q 396 505 332 769 q 526 -26 460 240 l 382 -26 l 121 1036 l 265 1036 z "},"G":{"ha":950,"x_min":61,"x_max":939,"o":"m 886 482 l 835 60 q 689 8 772 26 q 522 -11 606 -11 q 328 22 414 -11 q 183 113 243 54 q 92 251 124 171 q 61 426 61 332 q 84 590 61 513 q 148 733 107 667 q 245 851 189 799 q 368 941 301 904 q 508 998 435 978 q 658 1018 582 1018 q 733 1013 694 1018 q 808 999 771 1008 q 878 976 844 990 q 939 946 913 963 l 850 822 q 751 860 811 846 q 639 875 692 875 q 483 842 560 875 q 347 753 407 810 q 251 620 288 696 q 215 457 215 544 q 238 331 215 390 q 303 228 261 272 q 407 158 346 183 q 543 132 468 132 q 620 138 575 132 q 707 160 665 144 l 729 351 l 533 351 l 550 482 l 886 482 z "},"V":{"ha":899,"x_min":76,"x_max":972,"o":"m 226 1007 q 249 930 233 983 q 285 808 265 876 q 326 664 304 740 q 368 519 349 588 q 403 398 388 451 q 425 321 418 344 q 430 301 426 318 q 435 272 433 285 l 454 321 q 496 398 467 344 q 561 519 525 451 q 638 664 597 588 q 715 808 679 740 q 781 930 751 876 q 822 1007 810 983 l 972 1007 q 933 937 961 988 q 866 814 906 886 q 779 656 826 742 q 683 481 732 569 q 588 306 635 392 q 501 147 540 219 q 433 24 461 75 q 396 -46 406 -26 l 76 1007 l 226 1007 z "},"S":{"ha":786,"x_min":-6,"x_max":768,"o":"m 768 951 l 700 828 q 591 861 646 849 q 485 874 536 874 q 400 863 439 874 q 334 834 361 853 q 292 790 307 815 q 276 736 276 765 q 310 667 276 693 q 393 619 343 640 q 501 575 443 597 q 608 520 558 553 q 692 438 658 488 q 725 314 725 389 q 698 182 725 242 q 618 79 671 122 q 486 13 565 36 q 303 -11 407 -11 q 194 -3 242 -11 q 108 19 146 6 q 42 47 71 32 q -6 75 14 63 l 78 207 q 194 156 129 175 q 315 136 260 136 q 389 144 344 136 q 474 170 433 151 q 544 220 515 189 q 574 300 574 251 q 540 378 574 347 q 457 434 507 410 q 349 481 407 458 q 240 533 290 503 q 157 605 190 563 q 124 713 124 647 q 148 820 124 767 q 219 917 172 874 q 333 986 265 960 q 490 1013 401 1013 q 587 1004 540 1013 q 672 985 633 996 q 735 965 710 975 q 768 951 761 956 z "},"Z":{"ha":881,"x_min":-46,"x_max":914,"o":"m 318 1007 l 914 1007 l 236 146 l 821 146 l 803 0 l -46 0 q 28 94 -25 25 q 152 253 82 163 q 301 447 222 344 q 449 639 379 549 q 573 797 519 729 q 647 889 626 865 l 244 889 q 201 895 222 889 q 165 913 181 901 q 140 940 149 924 q 135 978 132 957 l 144 1058 l 282 1058 l 279 1039 q 285 1010 276 1014 q 318 1007 294 1007 z "},"W":{"ha":1315,"x_min":85,"x_max":1381,"o":"m 1381 1003 q 1240 726 1314 871 q 1094 440 1165 581 q 958 174 1022 300 q 849 -44 894 47 l 693 518 q 689 535 690 529 q 685 551 688 540 q 679 531 682 538 q 674 519 676 525 q 556 307 613 411 q 504 215 531 263 q 451 122 478 168 q 401 32 425 75 q 358 -46 378 -11 q 222 478 290 217 q 85 1003 153 739 l 256 1003 q 301 818 278 911 q 346 639 325 725 q 383 479 367 553 q 407 354 400 406 l 411 306 q 422 328 414 313 q 432 351 429 344 q 445 376 435 357 q 470 423 456 396 q 503 482 485 450 q 539 547 521 514 q 633 717 582 624 q 607 839 619 782 q 597 888 601 863 q 587 935 592 913 q 578 974 582 957 q 574 1003 575 992 l 719 1003 q 796 713 761 846 q 824 599 810 656 q 851 493 839 542 q 873 408 864 444 q 886 354 882 371 q 890 330 889 342 q 890 306 890 318 q 900 331 896 318 q 907 354 904 343 q 960 483 925 408 q 1040 644 996 558 q 1131 823 1083 731 q 1222 1003 1178 915 l 1381 1003 z "},"X":{"ha":874,"x_min":-40,"x_max":926,"o":"m 353 515 l 97 1007 l 283 1007 q 302 969 289 996 q 332 909 315 943 q 367 837 349 875 q 403 765 386 799 q 433 704 419 731 q 451 667 446 678 q 459 648 453 664 q 468 619 465 632 q 484 648 474 632 q 496 667 494 664 q 523 704 504 678 q 567 765 542 731 q 618 837 592 799 q 669 909 644 875 q 713 969 694 943 q 740 1007 732 996 l 926 1007 q 888 956 917 994 q 821 867 860 918 q 739 757 782 815 q 657 647 696 699 q 589 558 618 596 q 551 507 560 519 l 817 0 l 628 0 l 463 331 q 456 343 460 335 q 447 362 451 351 q 438 382 443 372 q 432 397 433 392 q 418 371 426 385 q 408 356 410 357 q 358 287 394 338 q 278 178 321 236 q 199 69 236 119 q 149 0 163 18 l -40 0 l 353 515 z "},"Æ":{"ha":1007,"x_min":-44,"x_max":1014,"o":"m 383 0 l 419 289 l 261 289 l 106 0 l -44 0 l 507 1007 l 1014 1007 l 997 869 l 632 869 l 596 575 l 906 575 l 888 435 l 578 435 l 542 140 l 926 140 l 910 0 l 383 0 m 324 407 l 433 407 l 467 674 l 324 407 z "},"Ñ":{"ha":1126,"x_min":72,"x_max":1079,"o":"m 1079 1007 l 950 -46 q 885 35 933 -21 q 772 162 836 90 q 637 313 708 233 q 501 465 565 393 q 390 592 438 536 q 329 672 343 647 l 308 708 l 307 664 l 225 0 l 72 0 l 201 1054 q 267 974 218 1029 q 379 847 315 918 q 515 699 443 776 q 649 551 586 621 q 760 426 713 481 q 825 347 808 371 l 846 308 l 847 356 l 928 1007 l 1079 1007 m 633 1096 q 599 1124 614 1117 q 565 1132 585 1132 q 519 1119 546 1132 q 483 1068 493 1107 l 417 1072 q 438 1125 422 1101 q 473 1165 453 1149 q 517 1191 493 1182 q 563 1200 540 1200 q 621 1188 596 1200 q 665 1153 646 1175 q 700 1125 685 1132 q 735 1118 715 1118 q 756 1121 744 1118 q 780 1131 768 1124 q 801 1150 792 1138 q 815 1182 811 1163 l 882 1178 q 861 1126 876 1149 q 826 1086 846 1103 q 782 1060 806 1069 q 738 1051 758 1051 q 633 1096 675 1051 z "},"Å":{"ha":899,"x_min":-47,"x_max":849,"o":"m 699 0 q 685 44 694 15 q 665 112 676 74 q 641 195 654 150 q 614 289 628 240 l 258 289 l 103 0 l -47 0 l 531 1054 q 551 983 536 1035 q 588 860 567 932 q 636 702 610 789 q 690 526 663 615 q 742 351 717 438 q 790 193 768 265 q 828 70 813 121 q 849 0 843 19 l 699 0 m 428 1168 q 439 1217 428 1194 q 469 1258 450 1240 q 512 1287 488 1276 q 563 1297 536 1297 q 636 1266 607 1297 q 665 1190 665 1235 q 654 1140 665 1164 q 624 1099 643 1117 q 582 1072 606 1082 q 533 1061 558 1061 q 458 1092 488 1061 q 428 1168 428 1124 m 326 417 l 578 417 q 553 505 565 463 q 530 583 540 547 q 512 644 519 618 q 500 686 504 671 q 496 706 499 689 q 492 736 493 722 q 479 706 486 722 q 471 686 472 689 l 326 417 m 499 1172 q 510 1142 499 1154 q 542 1131 522 1131 q 579 1146 563 1131 q 596 1183 596 1161 q 584 1215 596 1203 q 554 1228 572 1228 q 515 1212 531 1228 q 499 1172 499 1196 z "},"Á":{"ha":899,"x_min":-47,"x_max":849,"o":"m 849 0 q 828 70 843 19 q 790 193 813 121 q 742 351 768 265 q 690 526 717 438 q 636 702 663 615 q 588 860 610 789 q 551 983 567 932 q 531 1054 536 1035 l -47 0 l 103 0 l 258 289 l 614 289 q 641 195 628 240 q 665 112 654 150 q 685 44 676 74 q 699 0 694 15 l 849 0 m 471 686 q 479 706 472 689 q 492 736 486 722 q 496 706 493 722 q 500 686 499 689 q 512 644 504 671 q 530 583 519 618 q 553 505 540 547 q 578 417 565 463 l 326 417 l 471 686 m 467 1065 q 542 1158 506 1111 q 618 1251 579 1206 l 746 1251 l 557 1065 l 467 1065 z "},"É":{"ha":853,"x_min":74,"x_max":858,"o":"m 74 0 l 197 1007 l 858 1007 l 842 869 l 333 869 l 297 575 l 750 575 l 732 435 l 279 435 l 243 140 l 771 140 l 754 0 l 74 0 m 463 1065 q 538 1158 501 1111 q 614 1251 575 1206 l 742 1251 l 553 1065 l 463 1065 z "},"Í":{"ha":396,"x_min":74,"x_max":492,"o":"m 197 1007 l 349 1007 l 225 0 l 74 0 l 197 1007 m 213 1065 q 288 1158 251 1111 q 364 1251 325 1206 l 492 1251 l 303 1065 l 213 1065 z "},"Ó":{"ha":1133,"x_min":63,"x_max":1099,"o":"m 63 451 q 110 668 63 565 q 239 849 158 771 q 424 972 319 926 q 643 1018 529 1018 q 824 981 740 1018 q 969 881 908 944 q 1064 733 1029 817 q 1099 553 1099 649 q 1050 335 1099 438 q 921 156 1001 233 q 735 34 840 79 q 517 -11 631 -11 q 335 25 418 -11 q 191 124 251 61 q 97 271 131 186 q 63 451 63 356 m 214 464 q 238 334 214 394 q 306 228 263 274 q 408 158 349 183 q 538 132 468 132 q 692 165 618 132 q 823 253 767 197 q 913 383 879 308 q 947 540 947 457 q 923 670 947 610 q 856 776 899 731 q 755 847 814 821 q 626 872 696 872 q 470 840 544 872 q 339 751 396 807 q 248 622 282 696 q 214 464 214 547 m 574 1065 q 649 1158 613 1111 q 725 1251 686 1206 l 853 1251 l 664 1065 l 574 1065 z "},"Ú":{"ha":989,"x_min":96,"x_max":954,"o":"m 443 -11 q 297 15 363 -11 q 185 90 231 42 q 117 205 139 138 q 106 356 96 272 l 186 1007 l 338 1007 l 258 360 q 265 270 253 311 q 305 198 278 229 q 372 149 332 167 q 461 132 411 132 q 554 149 510 132 q 634 198 599 167 q 692 270 669 229 q 721 360 715 311 l 800 1007 l 954 1007 l 874 356 q 826 205 864 272 q 729 90 788 138 q 597 15 671 42 q 443 -11 524 -11 m 506 1065 q 581 1158 544 1111 q 657 1251 618 1206 l 785 1251 l 596 1065 l 506 1065 z "},"Ä":{"ha":899,"x_min":-47,"x_max":849,"o":"m 849 0 q 828 70 843 19 q 790 193 813 121 q 742 351 768 265 q 690 526 717 438 q 636 702 663 615 q 588 860 610 789 q 551 983 567 932 q 531 1054 536 1035 l -47 0 l 103 0 l 258 289 l 614 289 q 641 195 628 240 q 665 112 654 150 q 685 44 676 74 q 699 0 694 15 l 849 0 m 471 686 q 479 706 472 689 q 492 736 486 722 q 496 706 493 722 q 500 686 499 689 q 512 644 504 671 q 530 583 519 618 q 553 505 540 547 q 578 417 565 463 l 326 417 l 471 686 m 331 1144 q 339 1179 331 1163 q 360 1207 347 1196 q 388 1225 372 1218 q 421 1232 404 1232 q 467 1212 446 1232 q 488 1161 488 1192 q 459 1099 488 1124 q 401 1075 431 1075 q 352 1094 374 1075 q 331 1144 331 1114 m 594 1144 q 603 1179 594 1163 q 624 1207 611 1196 q 652 1225 636 1218 q 683 1232 668 1232 q 730 1213 710 1232 q 750 1161 750 1193 q 722 1099 750 1124 q 664 1075 694 1075 q 615 1094 636 1075 q 594 1144 594 1114 z "},"Ë":{"ha":853,"x_min":74,"x_max":858,"o":"m 74 0 l 197 1007 l 858 1007 l 842 869 l 333 869 l 297 575 l 750 575 l 732 435 l 279 435 l 243 140 l 771 140 l 754 0 l 74 0 m 618 1144 q 626 1179 618 1163 q 647 1207 635 1196 q 676 1225 660 1218 q 707 1232 692 1232 q 753 1213 733 1232 q 774 1161 774 1193 q 746 1099 774 1124 q 688 1075 718 1075 q 639 1094 660 1075 q 618 1144 618 1114 m 354 1144 q 363 1179 354 1163 q 383 1207 371 1196 q 412 1225 396 1218 q 444 1232 428 1232 q 490 1212 469 1232 q 511 1161 511 1192 q 483 1099 511 1124 q 425 1075 454 1075 q 376 1094 397 1075 q 354 1144 354 1114 z "},"Ï":{"ha":396,"x_min":74,"x_max":503,"o":"m 197 1007 l 349 1007 l 225 0 l 74 0 l 197 1007 m 347 1144 q 356 1179 347 1163 q 376 1207 364 1196 q 405 1225 389 1218 q 436 1232 421 1232 q 483 1213 463 1232 q 503 1161 503 1193 q 475 1099 503 1124 q 417 1075 447 1075 q 368 1094 389 1075 q 347 1144 347 1114 m 83 1144 q 92 1179 83 1163 q 113 1207 100 1196 q 141 1225 125 1218 q 174 1232 157 1232 q 219 1212 199 1232 q 240 1161 240 1192 q 212 1099 240 1124 q 154 1075 183 1075 q 105 1094 126 1075 q 83 1144 83 1114 z "},"Ö":{"ha":1132,"x_min":51,"x_max":1097,"o":"m 64 503 q 128 701 76 607 q 259 865 181 794 q 436 977 338 936 q 642 1018 535 1018 q 823 981 739 1018 q 967 881 907 944 q 1063 733 1028 817 q 1097 553 1097 649 q 1049 335 1097 438 q 919 156 1000 233 q 734 34 839 79 q 515 -11 629 -11 q 320 29 408 -11 q 170 140 232 69 q 80 303 108 210 q 64 503 51 396 m 215 501 q 226 358 206 425 q 291 240 247 290 q 398 161 335 190 q 536 132 461 132 q 691 165 617 132 q 822 253 765 197 q 912 383 878 308 q 946 540 946 457 q 922 670 946 610 q 855 776 897 731 q 753 847 813 821 q 625 872 694 872 q 480 843 550 872 q 354 764 410 814 q 262 646 299 714 q 215 501 225 578 m 718 1144 q 726 1179 718 1163 q 747 1207 735 1196 q 776 1225 760 1218 q 807 1232 792 1232 q 853 1213 833 1232 q 874 1161 874 1193 q 846 1099 874 1124 q 788 1075 818 1075 q 739 1094 760 1075 q 718 1144 718 1114 m 454 1144 q 463 1179 454 1163 q 483 1207 471 1196 q 512 1225 496 1218 q 544 1232 528 1232 q 590 1212 569 1232 q 611 1161 611 1192 q 583 1099 611 1124 q 525 1075 554 1075 q 476 1094 497 1075 q 454 1144 454 1114 z "},"Ü":{"ha":989,"x_min":96,"x_max":954,"o":"m 443 -11 q 297 15 363 -11 q 185 90 231 42 q 117 205 139 138 q 106 356 96 272 l 186 1007 l 338 1007 l 258 360 q 265 270 253 311 q 305 198 278 229 q 372 149 332 167 q 461 132 411 132 q 554 149 510 132 q 634 198 599 167 q 692 270 669 229 q 721 360 715 311 l 800 1007 l 954 1007 l 874 356 q 826 205 864 272 q 729 90 788 138 q 597 15 671 42 q 443 -11 524 -11 m 656 1144 q 683 1207 656 1182 q 743 1232 711 1232 q 790 1213 769 1232 q 810 1161 810 1193 q 782 1099 810 1124 q 724 1075 754 1075 q 676 1094 696 1075 q 656 1144 656 1114 m 392 1144 q 420 1207 392 1182 q 481 1232 449 1232 q 526 1212 506 1232 q 547 1161 547 1192 q 519 1099 547 1124 q 461 1075 490 1075 q 413 1094 433 1075 q 392 1144 392 1114 z "},"À":{"ha":899,"x_min":-47,"x_max":849,"o":"m 849 0 q 828 70 843 19 q 790 193 813 121 q 742 351 768 265 q 690 526 717 438 q 636 702 663 615 q 588 860 610 789 q 551 983 567 932 q 531 1054 536 1035 l -47 0 l 103 0 l 258 289 l 614 289 q 641 195 628 240 q 665 112 654 150 q 685 44 676 74 q 699 0 694 15 l 849 0 m 471 686 q 479 706 472 689 q 492 736 486 722 q 496 706 493 722 q 500 686 499 689 q 512 644 504 671 q 530 583 519 618 q 553 505 540 547 q 578 417 565 463 l 326 417 l 471 686 m 497 1251 q 549 1158 524 1206 q 600 1065 575 1111 l 511 1065 q 369 1251 440 1157 l 497 1251 z "},"È":{"ha":853,"x_min":74,"x_max":858,"o":"m 74 0 l 197 1007 l 858 1007 l 842 869 l 333 869 l 297 575 l 750 575 l 732 435 l 279 435 l 243 140 l 771 140 l 754 0 l 74 0 m 538 1251 q 590 1158 564 1206 q 640 1065 615 1111 l 551 1065 q 410 1251 481 1157 l 538 1251 z "},"Ì":{"ha":396,"x_min":74,"x_max":350,"o":"m 197 1007 l 349 1007 l 225 0 l 74 0 l 197 1007 m 247 1251 q 299 1158 274 1206 q 350 1065 325 1111 l 261 1065 q 119 1251 190 1157 l 247 1251 z "},"Ò":{"ha":1132,"x_min":51,"x_max":1097,"o":"m 64 503 q 128 701 76 607 q 259 865 181 794 q 436 977 338 936 q 642 1018 535 1018 q 823 981 739 1018 q 967 881 907 944 q 1063 733 1028 817 q 1097 553 1097 649 q 1049 335 1097 438 q 919 156 1000 233 q 734 34 839 79 q 515 -11 629 -11 q 320 29 408 -11 q 170 140 232 69 q 80 303 108 210 q 64 503 51 396 m 215 501 q 226 358 206 425 q 291 240 247 290 q 398 161 335 190 q 536 132 461 132 q 691 165 617 132 q 822 253 765 197 q 912 383 878 308 q 946 540 946 457 q 922 670 946 610 q 855 776 897 731 q 753 847 813 821 q 625 872 694 872 q 480 843 550 872 q 354 764 410 814 q 262 646 299 714 q 215 501 225 578 m 642 1251 q 694 1158 668 1206 q 744 1065 719 1111 l 656 1065 q 514 1251 585 1157 l 642 1251 z "},"Ù":{"ha":989,"x_min":96,"x_max":954,"o":"m 443 -11 q 297 15 363 -11 q 185 90 231 42 q 117 205 139 138 q 106 356 96 272 l 186 1007 l 338 1007 l 258 360 q 265 270 253 311 q 305 198 278 229 q 372 149 332 167 q 461 132 411 132 q 554 149 510 132 q 634 198 599 167 q 692 270 669 229 q 721 360 715 311 l 800 1007 l 954 1007 l 874 356 q 826 205 864 272 q 729 90 788 138 q 597 15 671 42 q 443 -11 524 -11 m 564 1251 q 616 1158 590 1206 q 667 1065 642 1111 l 578 1065 q 436 1251 507 1157 l 564 1251 z "},"Ý":{"ha":908,"x_min":79,"x_max":976,"o":"m 522 332 l 482 0 l 329 0 l 369 332 q 340 399 363 347 q 288 520 318 450 q 225 669 258 590 q 162 819 192 749 q 109 940 132 889 q 79 1007 86 992 l 251 1007 q 272 961 258 993 q 303 887 285 929 q 341 794 321 844 q 381 693 361 743 q 420 597 401 643 q 453 514 439 550 l 463 468 q 475 491 469 479 q 486 514 481 503 q 540 597 510 550 q 602 693 569 643 q 667 794 635 743 q 726 887 699 844 q 774 961 753 929 q 806 1007 796 993 l 976 1007 l 522 332 m 471 1065 q 547 1158 510 1111 q 622 1251 583 1206 l 750 1251 l 561 1065 l 471 1065 z "},"¡":{"ha":365,"x_min":33,"x_max":299,"o":"m 135 528 l 263 528 l 161 -294 l 33 -294 l 135 528 m 228 767 q 278 744 257 767 q 294 688 299 722 q 264 631 290 653 q 208 608 238 608 q 158 631 179 608 q 140 688 136 653 q 172 744 144 722 q 228 767 199 767 z "},"Ø":{"ha":1135,"x_min":64,"x_max":1100,"o":"m 64 450 q 112 667 64 564 q 240 848 160 769 q 426 972 321 926 q 644 1018 531 1018 q 798 992 726 1018 q 928 922 869 967 l 1019 1017 l 1082 951 l 993 860 q 1072 720 1043 800 q 1100 553 1100 640 q 1051 335 1100 438 q 922 156 1003 233 q 737 34 842 79 q 518 -11 632 -11 q 363 14 435 -11 q 233 83 292 39 q 176 24 203 51 q 131 -22 150 -3 l 65 42 l 167 146 q 91 284 118 206 q 64 450 64 363 m 342 194 q 432 148 382 164 q 539 132 482 132 q 694 165 619 132 q 825 253 768 197 q 916 383 882 308 q 950 540 950 457 q 933 653 950 599 q 883 749 915 708 q 753 615 822 686 q 614 472 685 544 q 474 329 543 400 q 342 194 404 258 m 215 463 q 231 353 215 406 q 278 260 247 300 l 819 811 q 731 856 779 840 q 628 872 682 872 q 472 840 546 872 q 340 751 397 807 q 249 621 283 696 q 215 463 215 546 z "},"¿":{"ha":661,"x_min":4,"x_max":560,"o":"m 453 -22 l 560 -64 q 524 -131 547 -93 q 465 -203 501 -169 q 376 -259 429 -236 q 249 -282 324 -282 q 150 -262 194 -282 q 73 -210 106 -243 q 22 -132 40 -176 q 4 -36 4 -87 q 49 118 4 53 q 174 236 94 183 q 219 265 194 250 q 265 300 243 281 q 304 346 288 319 q 325 408 321 372 l 339 518 l 467 518 l 450 382 q 427 308 444 336 q 384 258 410 279 q 326 217 358 236 q 260 174 294 199 q 166 79 196 128 q 136 -26 136 31 q 170 -121 136 -83 q 264 -158 204 -158 q 382 -124 340 -158 q 453 -22 424 -90 m 433 751 q 481 733 461 751 q 501 683 501 714 q 474 621 501 646 q 414 596 446 596 q 367 615 388 596 q 346 667 346 635 q 374 728 346 704 q 433 751 403 751 z "},"Ã":{"ha":899,"x_min":-47,"x_max":849,"o":"m 849 0 q 828 70 843 19 q 790 193 813 121 q 742 351 768 265 q 690 526 717 438 q 636 702 663 615 q 588 860 610 789 q 551 983 567 932 q 531 1054 536 1035 l -47 0 l 103 0 l 258 289 l 614 289 q 641 195 628 240 q 665 112 654 150 q 685 44 676 74 q 699 0 694 15 l 849 0 m 471 686 q 479 706 472 689 q 492 736 486 722 q 496 706 493 722 q 500 686 499 689 q 512 644 504 671 q 530 583 519 618 q 553 505 540 547 q 578 417 565 463 l 326 417 l 471 686 m 525 1108 q 491 1137 506 1129 q 457 1144 476 1144 q 411 1132 438 1144 q 376 1081 385 1119 l 308 1085 q 329 1138 314 1114 q 365 1178 344 1161 q 408 1203 385 1194 q 454 1213 432 1213 q 513 1200 488 1213 q 557 1165 538 1188 q 592 1138 576 1144 q 626 1131 607 1131 q 672 1142 646 1131 q 708 1194 697 1154 l 774 1190 q 753 1138 768 1161 q 717 1099 738 1115 q 674 1073 697 1082 q 629 1064 650 1064 q 525 1108 567 1064 z "},"Õ":{"ha":1133,"x_min":63,"x_max":1099,"o":"m 63 451 q 110 668 63 565 q 239 849 158 771 q 424 972 319 926 q 643 1018 529 1018 q 824 981 740 1018 q 969 881 908 944 q 1064 733 1029 817 q 1099 553 1099 649 q 1050 335 1099 438 q 921 156 1001 233 q 735 34 840 79 q 517 -11 631 -11 q 335 25 418 -11 q 191 124 251 61 q 97 271 131 186 q 63 451 63 356 m 214 464 q 238 334 214 394 q 306 228 263 274 q 408 158 349 183 q 538 132 468 132 q 692 165 618 132 q 823 253 767 197 q 913 383 879 308 q 947 540 947 457 q 923 670 947 610 q 856 776 899 731 q 755 847 814 821 q 626 872 696 872 q 470 840 544 872 q 339 751 396 807 q 248 622 282 696 q 214 464 214 547 m 644 1143 q 610 1172 625 1164 q 576 1179 596 1179 q 531 1167 557 1179 q 496 1115 504 1154 l 428 1119 q 449 1172 433 1149 q 484 1213 464 1196 q 528 1238 504 1229 q 574 1247 551 1247 q 632 1235 607 1247 q 676 1200 657 1222 q 711 1172 696 1179 q 746 1165 726 1165 q 791 1177 765 1165 q 828 1229 817 1189 l 893 1225 q 874 1173 889 1196 q 838 1133 858 1150 q 793 1108 817 1117 q 749 1099 769 1099 q 644 1143 686 1099 z "},"â":{"ha":743,"x_min":25,"x_max":683,"o":"m 25 256 q 53 385 25 324 q 130 494 82 447 q 240 568 178 540 q 369 596 303 596 q 444 585 411 596 q 501 560 478 575 q 537 528 524 544 q 554 499 550 511 l 569 581 l 683 581 l 613 0 l 493 0 l 503 74 q 477 47 494 63 q 434 19 460 32 q 374 -4 408 6 q 296 -14 339 -14 q 185 8 235 -14 q 99 66 135 29 q 44 152 64 103 q 25 256 25 201 m 146 271 q 192 151 146 199 q 314 103 238 103 q 399 119 360 103 q 468 165 439 136 q 514 231 497 193 q 531 313 531 269 q 485 432 531 385 q 360 479 439 479 q 276 463 315 479 q 208 419 238 447 q 163 352 179 390 q 146 271 146 314 m 421 928 q 490 801 456 864 q 560 674 524 738 l 471 674 q 456 697 465 682 q 435 727 446 711 q 416 758 425 743 q 403 782 407 774 q 383 758 396 774 q 356 727 369 743 q 329 697 342 711 q 311 674 317 682 l 221 674 q 322 801 271 738 q 421 928 372 864 z "},"ê":{"ha":640,"x_min":26,"x_max":621,"o":"m 533 68 q 425 8 488 31 q 300 -14 363 -14 q 190 8 240 -14 q 103 66 140 29 q 47 153 67 103 q 26 260 26 203 q 55 389 26 328 q 131 496 83 450 q 242 569 179 542 q 371 596 304 596 q 535 537 469 596 q 621 382 601 478 q 517 344 575 367 q 396 298 458 322 q 271 250 333 274 q 154 207 208 226 q 215 131 174 160 q 311 103 256 103 q 388 117 349 103 q 456 154 428 131 l 533 68 m 475 410 q 428 462 463 444 q 357 479 394 479 q 277 463 315 479 q 210 419 239 446 q 164 358 181 392 q 147 289 147 324 l 147 282 q 229 313 185 296 q 317 348 274 331 q 402 381 361 365 q 475 410 443 397 m 376 929 q 445 802 411 865 q 515 675 479 739 l 426 675 q 411 698 421 683 q 391 728 401 713 q 372 760 381 744 q 358 783 363 775 q 338 760 351 775 q 311 728 325 744 q 285 698 297 713 q 267 675 272 683 l 176 675 q 277 802 226 739 q 376 929 328 865 z "},"î":{"ha":282,"x_min":8,"x_max":347,"o":"m 151 0 l 33 0 l 106 581 l 224 581 l 151 0 m 208 929 q 277 802 243 865 q 347 675 311 739 l 258 675 q 244 698 254 683 q 224 728 235 713 q 205 760 214 744 q 192 783 196 775 q 172 760 185 775 q 144 728 158 744 q 117 698 131 713 q 99 675 104 683 l 8 675 q 109 802 58 739 q 208 929 160 865 z "},"ô":{"ha":699,"x_min":21,"x_max":646,"o":"m 29 292 q 68 410 38 354 q 146 506 99 465 q 252 572 193 547 q 376 596 311 596 q 486 574 436 596 q 572 516 536 553 q 626 429 607 479 q 646 324 646 379 q 619 193 646 254 q 544 86 592 132 q 434 13 497 40 q 300 -14 371 -14 q 183 8 236 -14 q 92 71 129 31 q 38 167 56 111 q 29 292 21 224 m 147 290 q 152 217 142 251 q 185 158 163 183 q 240 117 207 132 q 311 103 272 103 q 392 119 353 103 q 460 163 431 135 q 508 229 490 192 q 526 308 526 267 q 514 376 526 344 q 478 430 501 407 q 424 466 456 453 q 357 479 393 479 q 282 465 318 479 q 217 424 246 450 q 170 364 189 399 q 147 290 151 329 m 415 929 q 484 802 450 865 q 554 675 518 739 l 465 675 q 451 698 461 683 q 431 728 442 713 q 411 760 421 744 q 397 783 401 775 q 378 760 390 775 q 351 728 365 744 q 324 698 338 713 q 306 675 311 683 l 215 675 q 316 802 265 739 q 415 929 367 865 z "},"û":{"ha":703,"x_min":40,"x_max":644,"o":"m 572 -12 l 472 -12 l 478 149 q 374 32 438 78 q 222 -14 311 -14 q 87 34 133 -14 q 47 160 40 82 l 99 581 l 217 581 l 172 213 q 194 139 169 169 q 278 104 219 108 q 356 119 319 104 q 420 158 392 133 q 467 218 449 183 q 490 294 485 253 l 525 581 l 644 581 l 572 -12 m 394 929 q 463 802 429 865 q 533 675 497 739 l 444 675 q 429 698 439 683 q 409 728 419 713 q 390 760 399 744 q 376 783 381 775 q 356 760 369 775 q 329 728 343 744 q 303 698 315 713 q 285 675 290 683 l 194 675 q 295 802 244 739 q 394 929 346 865 z "},"ã":{"ha":743,"x_min":25,"x_max":683,"o":"m 25 256 q 53 385 25 324 q 130 494 82 447 q 240 568 178 540 q 369 596 303 596 q 444 585 411 596 q 501 560 478 575 q 537 528 524 544 q 554 499 550 511 l 569 581 l 683 581 l 613 0 l 493 0 l 503 74 q 477 47 494 63 q 434 19 460 32 q 374 -4 408 6 q 296 -14 339 -14 q 185 8 235 -14 q 99 66 135 29 q 44 152 64 103 q 25 256 25 201 m 146 271 q 192 151 146 199 q 314 103 238 103 q 399 119 360 103 q 468 165 439 136 q 514 231 497 193 q 531 313 531 269 q 485 432 531 385 q 360 479 439 479 q 276 463 315 479 q 208 419 238 447 q 163 352 179 390 q 146 271 146 314 m 378 675 q 344 703 358 696 q 310 711 329 711 q 264 699 290 711 q 228 647 238 686 l 161 651 q 181 704 165 681 q 217 744 196 728 q 261 770 238 761 q 307 779 285 779 q 365 767 340 779 q 410 732 390 754 q 444 704 429 711 q 479 697 460 697 q 501 700 489 697 q 524 710 513 703 q 546 729 536 717 q 560 761 556 742 l 626 757 q 606 705 621 728 q 570 665 590 682 q 526 640 550 649 q 482 631 503 631 q 378 675 419 631 z "},"`":{"ha":282,"x_min":29,"x_max":261,"o":"m 157 861 q 210 768 185 815 q 261 675 235 721 l 172 675 q 101 768 136 721 q 29 861 65 815 l 157 861 z "},"^":{"ha":503,"x_min":118,"x_max":457,"o":"m 318 929 q 387 802 353 865 q 457 675 421 739 l 368 675 q 354 698 364 683 q 334 728 344 713 q 315 760 324 744 q 301 783 306 775 q 281 760 294 775 q 254 728 268 744 q 227 698 240 713 q 208 675 214 683 l 118 675 q 219 802 168 739 q 318 929 269 865 z "},"õ":{"ha":699,"x_min":26,"x_max":646,"o":"m 26 257 q 55 388 26 326 q 131 496 83 450 q 243 569 179 542 q 376 596 307 596 q 486 574 436 596 q 572 516 536 553 q 626 429 607 479 q 646 324 646 379 q 619 193 646 254 q 544 86 592 132 q 434 13 497 40 q 300 -14 371 -14 q 191 6 242 -14 q 104 61 140 25 q 47 147 68 97 q 26 257 26 196 m 146 271 q 158 204 146 235 q 192 151 171 174 q 244 116 214 129 q 311 103 275 103 q 392 119 353 103 q 460 163 431 135 q 508 229 490 192 q 526 308 526 267 q 514 376 526 344 q 478 430 501 407 q 424 466 456 453 q 357 479 393 479 q 277 463 315 479 q 210 417 239 446 q 163 351 181 389 q 146 271 146 314 m 385 675 q 351 703 365 696 q 317 711 336 711 q 271 699 297 711 q 235 647 244 686 l 168 651 q 188 704 172 681 q 224 744 203 728 q 268 770 244 761 q 314 779 292 779 q 372 767 347 779 q 417 732 397 754 q 451 704 436 711 q 486 697 467 697 q 508 700 496 697 q 531 710 519 703 q 553 729 543 717 q 567 761 563 742 l 633 757 q 613 705 628 728 q 577 665 597 682 q 533 640 557 649 q 489 631 510 631 q 385 675 426 631 z "},"'":{"ha":297,"x_min":118,"x_max":289,"o":"m 118 664 l 161 1014 l 289 1014 l 240 664 l 118 664 z "},"_":{"ha":718,"x_min":29,"x_max":608,"o":"m 593 0 l 29 0 l 44 124 l 608 124 l 593 0 z "},"[":{"ha":433,"x_min":44,"x_max":474,"o":"m 44 -210 l 199 1050 l 474 1050 l 458 926 l 311 926 l 188 -86 l 335 -86 l 319 -210 l 44 -210 z "},"]":{"ha":433,"x_min":-35,"x_max":394,"o":"m 394 1050 l 240 -210 l -35 -210 l -19 -86 l 129 -86 l 253 926 l 104 926 l 119 1050 l 394 1050 z "},"°":{"ha":408,"x_min":104,"x_max":397,"o":"m 244 722 q 297 742 274 722 q 319 794 319 763 q 303 837 319 819 q 261 854 286 854 q 207 833 229 854 q 185 781 185 811 q 201 739 185 756 q 244 722 218 722 m 104 774 q 118 836 104 807 q 155 887 132 865 q 208 921 178 908 q 271 933 238 933 q 362 896 326 933 q 397 804 397 858 q 384 742 397 771 q 348 692 371 714 q 296 657 325 669 q 235 644 267 644 q 140 682 176 644 q 104 774 104 719 z "},"ç":{"ha":575,"x_min":26,"x_max":564,"o":"m 440 143 q 472 98 457 119 q 501 53 486 76 q 410 5 460 22 q 306 -14 360 -12 q 308 -44 303 -33 q 321 -62 313 -54 q 338 -74 329 -69 q 356 -86 347 -79 q 387 -128 378 -104 q 396 -181 396 -151 q 385 -245 396 -214 q 351 -301 374 -276 q 297 -342 329 -326 q 224 -357 265 -357 q 138 -330 175 -357 q 88 -247 100 -303 q 125 -230 107 -239 q 161 -211 143 -221 q 183 -248 167 -233 q 225 -262 199 -262 q 283 -237 263 -262 q 303 -178 303 -212 q 290 -140 303 -153 q 260 -113 276 -126 q 233 -82 244 -100 q 225 -31 221 -64 l 228 -6 q 146 31 183 6 q 82 90 108 56 q 41 169 56 125 q 26 261 26 213 q 55 390 26 329 q 132 496 83 450 q 243 569 181 542 q 375 596 306 596 q 481 578 433 596 q 564 529 528 560 l 476 439 q 426 469 456 458 q 360 479 396 479 q 275 463 314 479 q 208 419 236 447 q 163 352 179 390 q 146 271 146 314 q 191 151 146 200 q 314 103 236 103 q 382 113 350 103 q 440 143 414 124 z "},"Ç":{"ha":883,"x_min":63,"x_max":913,"o":"m 832 72 q 785 47 814 61 q 717 22 756 33 q 633 1 679 10 q 536 -10 588 -8 q 538 -42 533 -31 q 551 -62 543 -54 q 569 -74 560 -69 q 588 -86 579 -79 q 619 -128 610 -104 q 628 -181 628 -151 q 617 -245 628 -214 q 583 -301 606 -276 q 529 -342 561 -326 q 456 -357 497 -357 q 369 -330 407 -357 q 318 -247 331 -303 q 356 -230 338 -239 q 393 -211 375 -221 q 413 -248 397 -233 q 456 -262 429 -262 q 513 -237 493 -262 q 533 -178 533 -212 q 520 -140 533 -153 q 491 -113 507 -126 q 464 -82 475 -100 q 457 -31 453 -64 l 460 -8 q 290 38 364 0 q 165 136 215 76 q 88 274 114 196 q 63 438 63 351 q 111 669 63 563 q 241 853 160 775 q 429 974 322 931 q 651 1018 536 1018 q 733 1013 692 1018 q 809 997 774 1007 q 872 974 844 988 q 913 947 899 961 q 892 919 900 931 q 876 897 885 908 q 858 869 868 885 q 831 829 847 854 q 790 850 814 842 q 741 864 767 858 q 689 872 715 869 q 640 875 663 875 q 477 842 554 875 q 342 753 400 808 q 251 624 285 697 q 217 472 217 551 q 240 349 217 408 q 304 243 263 289 q 406 170 346 197 q 540 143 465 143 q 625 151 583 143 q 701 171 667 160 q 757 193 735 182 q 785 210 779 204 l 832 72 z "},"–":{"ha":581,"x_min":58,"x_max":499,"o":"m 58 235 l 74 358 l 499 358 l 483 235 l 58 235 z "},"—":{"ha":863,"x_min":58,"x_max":781,"o":"m 58 235 l 74 358 l 781 358 l 765 235 l 58 235 z "},"¸":{"ha":636,"x_min":115,"x_max":424,"o":"m 256 0 l 335 0 l 333 -10 q 335 -42 331 -31 q 347 -62 339 -54 q 365 -74 356 -69 q 383 -86 375 -79 q 415 -128 406 -104 q 424 -181 424 -151 q 413 -245 424 -214 q 379 -301 401 -276 q 325 -342 357 -326 q 251 -357 293 -357 q 165 -330 203 -357 q 115 -247 126 -303 q 153 -230 135 -239 q 189 -211 171 -221 q 210 -248 194 -233 q 253 -262 226 -262 q 310 -237 289 -262 q 331 -178 331 -212 q 317 -138 331 -153 q 288 -112 303 -124 q 260 -86 272 -100 q 250 -50 247 -72 l 256 0 z "},"´":{"ha":394,"x_min":224,"x_max":501,"o":"m 224 675 q 299 768 261 721 q 374 861 336 815 l 501 861 l 314 675 l 224 675 z "},"¨":{"ha":522,"x_min":154,"x_max":572,"o":"m 418 726 q 446 789 418 764 q 506 814 474 814 q 552 794 532 814 q 572 743 572 775 q 544 681 572 706 q 486 657 517 657 q 438 676 458 657 q 418 726 418 696 m 154 726 q 183 789 154 764 q 243 814 211 814 q 289 794 268 814 q 310 743 310 774 q 281 681 310 706 q 224 657 253 657 q 175 676 196 657 q 154 726 154 696 z "},"Ð":{"ha":994,"x_min":38,"x_max":956,"o":"m 50 543 l 149 543 l 206 1007 l 458 1007 q 691 967 596 1007 q 844 863 786 928 q 929 717 903 799 q 956 550 956 635 q 908 322 956 424 q 781 149 860 221 q 599 39 701 78 q 385 0 496 0 l 82 0 l 136 442 l 38 442 l 50 543 m 381 144 q 546 172 468 144 q 681 249 624 199 q 771 374 738 300 q 804 544 804 449 q 776 684 804 625 q 703 783 749 743 q 601 842 658 822 q 482 861 543 861 l 339 861 l 300 543 l 467 543 l 454 442 l 288 442 l 251 144 l 381 144 z "},"þ":{"ha":746,"x_min":-1,"x_max":692,"o":"m 692 329 q 665 193 692 256 q 592 85 639 131 q 483 13 546 39 q 347 -14 419 -14 q 227 15 276 -14 q 160 76 178 43 q 160 62 160 69 q 158 47 160 54 l 118 -279 l -1 -279 l 165 1079 l 285 1079 l 214 496 q 247 530 226 513 q 295 562 268 547 q 356 586 322 576 q 428 596 389 596 q 621 524 550 596 q 692 329 692 453 m 563 315 q 521 433 563 386 q 403 479 479 479 q 317 463 357 479 q 249 419 278 447 q 203 352 219 390 q 186 271 186 314 q 233 151 186 199 q 357 103 279 103 q 440 119 403 103 q 505 165 478 136 q 547 233 532 194 q 563 315 563 271 z "},"ð":{"ha":697,"x_min":26,"x_max":649,"o":"m 26 257 q 55 388 26 326 q 132 496 83 450 q 244 569 181 542 q 376 596 307 596 q 497 569 442 596 q 456 704 485 633 q 381 847 426 775 q 334 802 357 824 q 288 758 311 781 q 257 790 272 775 q 226 821 242 804 l 333 922 q 272 996 303 961 q 208 1063 242 1031 l 288 1128 q 351 1067 319 1100 q 411 999 383 1035 q 457 1042 435 1021 q 501 1086 479 1063 q 532 1056 517 1071 q 564 1025 547 1040 l 463 926 q 540 783 506 861 q 599 624 575 706 q 636 458 624 542 q 644 299 649 375 l 639 292 q 578 197 610 250 q 506 98 546 144 q 417 19 467 51 q 300 -14 367 -14 q 191 6 242 -14 q 104 61 140 25 q 47 147 68 97 q 26 257 26 196 m 146 271 q 158 204 146 235 q 192 151 171 174 q 244 116 214 129 q 311 103 275 103 q 392 119 353 103 q 460 163 431 135 q 508 229 490 192 q 526 308 526 267 q 514 376 526 344 q 478 430 501 407 q 424 466 456 453 q 357 479 393 479 q 277 463 315 479 q 210 417 239 446 q 163 351 181 389 q 146 271 146 314 z "},"Þ":{"ha":788,"x_min":74,"x_max":774,"o":"m 74 0 l 194 986 l 347 986 l 328 822 l 450 822 q 582 803 522 822 q 684 749 642 785 q 750 662 726 714 q 774 543 774 610 q 753 415 774 481 q 685 296 732 349 q 566 209 639 243 q 389 175 493 175 l 247 175 l 226 0 l 74 0 m 265 318 l 403 318 q 506 340 464 318 q 572 392 547 361 q 608 458 597 424 q 618 519 618 493 q 610 573 618 544 q 583 625 603 601 q 531 664 564 649 q 449 679 499 679 l 310 679 l 265 318 z "},"Â":{"ha":899,"x_min":-47,"x_max":849,"o":"m 849 0 q 828 70 843 19 q 790 193 813 121 q 742 351 768 265 q 690 526 717 438 q 636 702 663 615 q 588 860 610 789 q 551 983 567 932 q 531 1054 536 1035 l -47 0 l 103 0 l 258 289 l 614 289 q 641 195 628 240 q 665 112 654 150 q 685 44 676 74 q 699 0 694 15 l 849 0 m 471 686 q 479 706 472 689 q 492 736 486 722 q 496 706 493 722 q 500 686 499 689 q 512 644 504 671 q 530 583 519 618 q 553 505 540 547 q 578 417 565 463 l 326 417 l 471 686 m 582 1321 q 650 1194 615 1257 q 719 1067 685 1131 l 631 1067 q 617 1090 626 1075 q 597 1120 607 1104 q 577 1151 586 1136 q 564 1175 568 1167 q 544 1151 557 1167 q 517 1120 531 1136 q 490 1090 503 1104 q 471 1067 476 1075 l 381 1067 q 482 1194 432 1131 q 582 1321 532 1257 z "},"Ê":{"ha":853,"x_min":74,"x_max":858,"o":"m 74 0 l 197 1007 l 858 1007 l 842 869 l 333 869 l 297 575 l 750 575 l 732 435 l 279 435 l 243 140 l 771 140 l 754 0 l 74 0 m 583 1321 q 651 1194 617 1257 q 721 1067 686 1131 l 632 1067 q 618 1090 628 1075 q 598 1120 608 1104 q 578 1151 588 1136 q 565 1175 569 1167 q 545 1151 558 1167 q 518 1120 532 1136 q 491 1090 504 1104 q 472 1067 478 1075 l 382 1067 q 483 1194 433 1131 q 583 1321 533 1257 z "},"Î":{"ha":396,"x_min":74,"x_max":451,"o":"m 197 1007 l 349 1007 l 225 0 l 74 0 l 197 1007 m 314 1321 q 382 1194 347 1257 q 451 1067 417 1131 l 363 1067 q 349 1090 358 1075 q 328 1120 339 1104 q 309 1151 318 1136 q 296 1175 300 1167 q 276 1151 289 1167 q 249 1120 263 1136 q 222 1090 235 1104 q 203 1067 208 1075 l 113 1067 q 214 1194 164 1131 q 314 1321 264 1257 z "},"Ô":{"ha":1132,"x_min":51,"x_max":1097,"o":"m 64 503 q 128 701 76 607 q 259 865 181 794 q 436 977 338 936 q 642 1018 535 1018 q 823 981 739 1018 q 967 881 907 944 q 1063 733 1028 817 q 1097 553 1097 649 q 1049 335 1097 438 q 919 156 1000 233 q 734 34 839 79 q 515 -11 629 -11 q 320 29 408 -11 q 170 140 232 69 q 80 303 108 210 q 64 503 51 396 m 215 501 q 226 358 206 425 q 291 240 247 290 q 398 161 335 190 q 536 132 461 132 q 691 165 617 132 q 822 253 765 197 q 912 383 878 308 q 946 540 946 457 q 922 670 946 610 q 855 776 897 731 q 753 847 813 821 q 625 872 694 872 q 480 843 550 872 q 354 764 410 814 q 262 646 299 714 q 215 501 225 578 m 688 1321 q 756 1194 721 1257 q 825 1067 790 1131 l 736 1067 q 722 1090 732 1075 q 702 1120 713 1104 q 683 1151 692 1136 q 669 1175 674 1167 q 649 1151 663 1167 q 622 1120 636 1136 q 595 1090 608 1104 q 576 1067 582 1075 l 486 1067 q 588 1194 538 1131 q 688 1321 638 1257 z "},"Û":{"ha":989,"x_min":96,"x_max":954,"o":"m 443 -11 q 297 15 363 -11 q 185 90 231 42 q 117 205 139 138 q 106 356 96 272 l 186 1007 l 338 1007 l 258 360 q 265 270 253 311 q 305 198 278 229 q 372 149 332 167 q 461 132 411 132 q 554 149 510 132 q 634 198 599 167 q 692 270 669 229 q 721 360 715 311 l 800 1007 l 954 1007 l 874 356 q 826 205 864 272 q 729 90 788 138 q 597 15 671 42 q 443 -11 524 -11 m 619 1351 q 688 1224 653 1288 q 757 1097 722 1161 l 668 1097 q 654 1120 664 1106 q 634 1151 644 1135 q 615 1182 624 1167 q 601 1206 606 1197 q 581 1182 594 1197 q 554 1151 568 1167 q 527 1120 540 1135 q 508 1097 514 1106 l 418 1097 q 519 1224 469 1161 q 619 1351 569 1288 z "},"±":{"ha":686,"x_min":57,"x_max":625,"o":"m 268 297 l 292 488 l 103 488 l 118 611 l 307 611 l 331 804 l 460 804 l 436 611 l 625 611 l 610 488 l 421 488 l 397 297 l 268 297 m 564 115 l 57 115 l 72 240 l 579 240 l 564 115 z "},"$":{"ha":810,"x_min":10,"x_max":783,"o":"m 783 951 l 715 828 q 613 859 664 847 q 514 874 561 871 l 478 589 q 571 549 524 571 q 656 497 618 528 q 717 422 693 465 q 740 317 740 378 q 717 197 740 251 q 649 101 693 142 q 544 33 606 60 q 406 -4 482 6 l 394 -94 l 307 -94 l 317 -11 l 314 -11 q 206 -2 254 -11 q 120 20 158 7 q 55 48 82 33 q 10 75 28 63 l 93 207 q 210 156 144 175 q 331 136 275 136 l 335 136 l 376 474 q 290 512 332 492 q 214 560 247 532 q 160 624 181 588 q 139 713 139 661 q 159 810 139 761 q 217 900 179 860 q 313 969 256 940 q 443 1008 369 999 l 454 1100 l 542 1100 l 531 1011 q 619 1000 576 1008 q 696 982 661 992 q 753 963 731 972 q 783 951 776 954 m 589 300 q 551 383 589 350 q 460 440 514 415 l 425 149 q 484 168 454 156 q 537 199 514 181 q 574 242 560 217 q 589 300 589 267 m 292 738 q 321 671 292 697 q 394 624 350 644 l 425 865 q 327 816 363 850 q 292 738 292 782 z "},"¢":{"ha":604,"x_min":33,"x_max":571,"o":"m 447 143 q 478 98 464 119 q 508 53 493 76 q 421 7 468 25 q 321 -14 374 -11 l 311 -94 l 224 -94 l 233 -4 q 152 32 189 7 q 89 92 115 57 q 48 169 63 126 q 33 261 33 213 q 55 373 33 319 q 113 469 76 426 q 200 543 150 513 q 307 586 250 574 l 318 675 l 406 675 l 396 596 q 492 575 449 593 q 571 529 536 557 l 483 439 q 438 466 464 456 q 381 479 413 476 l 335 103 q 447 143 399 107 m 153 271 q 178 176 153 218 q 249 115 204 135 l 292 465 q 191 391 229 443 q 153 271 153 339 z "},"•":{"ha":560,"x_min":93,"x_max":471,"o":"m 93 403 q 110 484 93 446 q 157 551 128 522 q 224 596 186 579 q 304 613 263 613 q 371 599 340 613 q 424 563 401 586 q 458 509 446 540 q 471 442 471 478 q 453 361 471 399 q 407 296 436 324 q 340 252 378 268 q 258 236 301 236 q 192 249 222 236 q 140 283 163 261 q 106 336 118 306 q 93 403 93 367 z "},"“":{"ha":389,"x_min":119,"x_max":389,"o":"m 389 831 l 322 796 q 276 890 286 836 q 285 1001 265 943 l 361 992 q 354 901 346 943 q 389 831 363 858 m 243 831 q 209 813 225 822 q 176 796 193 804 q 130 890 140 836 q 139 1001 119 943 l 215 992 q 208 901 200 943 q 243 831 217 858 z "},"”":{"ha":393,"x_min":107,"x_max":404,"o":"m 311 796 l 253 831 q 306 901 288 858 q 321 992 324 943 l 400 1001 q 380 890 404 943 q 311 796 356 836 m 165 796 q 136 813 150 804 q 107 831 122 822 q 158 901 140 858 q 174 992 176 943 l 253 1001 q 233 890 257 943 q 165 796 210 836 z "},"‘":{"ha":242,"x_min":118,"x_max":242,"o":"m 242 831 l 175 796 q 128 890 139 836 q 138 1001 118 943 l 214 992 q 207 901 199 943 q 242 831 215 858 z "},"„":{"ha":413,"x_min":-4,"x_max":292,"o":"m 54 -76 q 25 -58 39 -67 q -4 -42 11 -50 q 48 29 29 -12 q 63 119 67 71 l 142 129 q 122 17 146 71 q 54 -76 99 -36 m 201 -76 q 172 -58 186 -67 q 143 -42 158 -50 q 194 29 175 -12 q 208 119 213 71 l 288 129 q 269 17 292 71 q 201 -76 246 -36 z "},"‚":{"ha":267,"x_min":-4,"x_max":146,"o":"m 54 -76 q 25 -58 39 -67 q -4 -42 11 -50 q 48 29 29 -12 q 63 119 67 71 l 142 129 q 122 17 146 71 q 54 -76 99 -36 z "},"›":{"ha":389,"x_min":54,"x_max":328,"o":"m 72 215 q 97 240 81 222 q 129 276 113 257 q 162 312 146 294 q 186 336 178 329 q 167 361 179 344 q 143 397 156 378 q 119 433 131 415 q 101 457 108 450 l 119 603 q 141 576 125 597 q 178 528 157 556 q 224 469 200 501 q 269 410 247 438 q 306 363 290 383 q 328 336 322 342 l 54 69 l 72 215 z "},"«":{"ha":631,"x_min":47,"x_max":563,"o":"m 496 69 l 288 336 q 315 363 294 342 q 365 410 336 383 q 425 469 393 438 q 485 528 457 501 q 535 576 514 556 q 563 603 556 597 l 544 458 q 520 433 536 450 q 487 397 504 417 q 453 361 469 378 q 429 336 438 344 q 447 312 435 329 q 472 276 458 294 q 496 240 485 257 q 514 215 507 222 l 496 69 m 254 69 l 47 336 q 75 363 54 342 q 124 410 96 383 q 183 469 151 438 q 244 528 215 501 q 293 576 272 556 q 321 603 314 597 l 303 457 q 278 433 294 450 q 246 397 263 415 q 213 361 229 378 q 189 336 197 344 q 206 312 194 329 q 231 276 218 294 q 254 240 243 257 q 272 215 265 222 l 254 69 z "},"»":{"ha":629,"x_min":53,"x_max":568,"o":"m 71 215 q 95 240 79 222 q 128 276 111 257 q 162 312 146 294 q 186 336 178 329 q 167 361 179 344 q 143 397 156 378 q 119 433 131 417 q 100 458 107 450 l 118 603 q 140 576 124 597 q 177 528 156 556 q 223 469 199 501 q 269 410 247 438 q 306 363 290 383 q 328 336 322 342 l 53 69 l 71 215 m 313 215 q 337 240 321 222 q 369 276 353 257 q 402 312 386 294 q 426 336 418 329 q 408 361 419 344 q 383 397 396 378 q 360 433 371 415 q 342 457 349 450 l 360 603 q 381 576 365 597 q 419 528 397 556 q 464 469 440 501 q 509 410 488 438 q 547 363 531 383 q 568 336 563 342 l 294 69 l 313 215 z "},"¥":{"ha":976,"x_min":111,"x_max":1008,"o":"m 554 332 l 542 224 l 690 224 l 679 139 l 531 139 l 514 0 l 361 0 l 378 139 l 217 139 l 228 224 l 389 224 l 401 332 q 395 345 399 336 q 386 365 392 354 l 244 365 l 256 450 l 350 450 q 306 551 331 496 q 258 665 282 607 q 209 778 233 722 q 165 882 185 835 q 131 963 146 929 q 111 1007 117 996 l 283 1007 q 303 961 290 993 q 335 887 317 929 q 373 794 353 844 q 413 693 393 743 q 452 597 433 643 q 485 514 471 550 l 494 468 q 507 491 501 479 q 518 514 513 503 q 572 597 542 550 q 634 693 601 643 q 699 794 667 743 q 758 887 731 844 q 806 961 785 929 q 838 1007 828 993 l 1008 1007 l 633 450 l 718 450 l 707 365 l 576 365 l 554 332 z "},"©":{"ha":874,"x_min":86,"x_max":817,"o":"m 413 199 q 549 226 485 199 q 663 301 614 253 q 742 413 713 349 q 771 553 771 478 q 750 666 771 614 q 692 756 729 718 q 603 815 654 793 q 490 836 551 836 q 353 809 418 836 q 239 735 288 782 q 161 622 190 688 q 132 482 132 557 q 153 369 132 421 q 211 279 174 317 q 300 220 249 242 q 413 199 351 199 m 407 157 q 278 181 338 157 q 177 249 219 206 q 110 351 135 292 q 86 479 86 410 q 120 637 86 564 q 210 763 154 710 q 341 847 267 817 q 496 878 415 878 q 624 853 565 878 q 726 786 683 829 q 792 684 768 743 q 817 556 817 625 q 783 398 817 471 q 692 272 749 325 q 562 188 636 218 q 407 157 488 157 m 574 326 q 519 301 557 315 q 429 288 481 288 q 342 303 381 288 q 278 347 304 319 q 240 413 253 375 q 226 492 226 450 q 249 596 226 547 q 308 679 271 644 q 392 734 344 714 q 493 754 440 754 q 564 744 529 754 q 611 722 599 735 q 594 699 599 707 q 572 668 589 690 q 533 684 558 679 q 488 689 507 689 q 414 674 449 689 q 353 633 379 658 q 313 576 328 608 q 297 507 297 543 q 308 451 297 478 q 337 403 318 424 q 383 371 356 383 q 443 358 410 358 q 515 370 482 358 q 553 388 547 382 l 574 326 z "},"®":{"ha":874,"x_min":86,"x_max":817,"o":"m 407 157 q 278 181 338 157 q 177 249 219 206 q 110 351 135 292 q 86 479 86 410 q 120 637 86 564 q 210 763 154 710 q 341 847 267 817 q 496 878 415 878 q 624 853 565 878 q 726 786 683 829 q 792 684 768 743 q 817 556 817 625 q 783 398 817 471 q 692 272 749 325 q 562 188 636 218 q 407 157 488 157 m 413 199 q 549 226 485 199 q 663 301 614 253 q 742 413 713 349 q 771 553 771 478 q 750 666 771 614 q 692 756 729 718 q 603 815 654 793 q 490 836 551 836 q 353 809 418 836 q 239 735 288 782 q 161 622 190 688 q 132 482 132 557 q 153 369 132 421 q 211 279 174 317 q 300 220 249 242 q 413 199 351 199 m 276 292 l 335 768 l 465 768 q 576 734 535 768 q 618 636 618 700 q 597 550 618 593 q 528 482 576 507 q 574 390 550 440 q 624 292 599 340 l 538 292 q 494 378 517 332 q 450 461 471 425 l 436 461 l 369 461 l 349 292 l 276 292 m 378 529 l 443 529 q 492 540 472 529 q 523 565 511 550 q 540 596 535 579 q 544 625 544 613 q 541 651 544 638 q 528 675 538 664 q 503 694 518 686 q 464 701 488 701 l 399 701 l 378 529 z "},"÷":{"ha":635,"x_min":50,"x_max":572,"o":"m 557 290 l 50 290 l 65 413 l 572 413 l 557 290 m 261 551 q 269 585 261 569 q 290 613 278 601 q 319 632 303 625 q 350 639 335 639 q 397 619 376 639 q 417 567 417 599 q 389 504 417 528 q 331 481 361 481 q 282 500 303 481 q 261 551 261 519 m 211 140 q 219 174 211 158 q 240 202 228 190 q 268 221 253 214 q 299 228 283 228 q 347 208 326 228 q 367 156 367 188 q 339 94 367 118 q 281 71 311 71 q 232 90 253 71 q 211 140 211 108 z "},"½":{"ha":1164,"x_min":113,"x_max":1086,"o":"m 210 -26 l 732 1036 l 861 1036 q 599 505 729 769 q 338 -26 469 240 l 210 -26 m 847 86 l 1078 86 l 1067 -1 l 619 -1 q 760 123 692 63 q 880 240 828 183 q 963 349 932 296 q 994 451 994 401 q 984 503 994 481 q 958 540 974 525 q 925 561 943 554 q 890 568 907 568 q 825 553 851 568 q 783 518 799 539 q 761 474 768 497 q 754 433 754 451 q 762 386 754 407 q 782 349 769 365 l 722 293 q 678 356 693 313 q 664 435 664 399 q 681 516 664 476 q 728 587 697 556 q 802 637 758 618 q 901 656 846 656 q 978 640 944 656 q 1037 600 1013 625 q 1074 541 1061 575 q 1086 469 1086 507 q 1067 369 1086 418 q 1014 274 1047 321 q 938 180 981 226 q 847 86 894 133 m 119 888 l 129 975 l 283 975 l 204 325 l 113 325 l 182 888 l 119 888 z "},"¼":{"ha":1113,"x_min":114,"x_max":1050,"o":"m 204 -26 l 726 1036 l 856 1036 q 594 505 724 769 q 332 -26 464 240 l 204 -26 m 532 176 q 765 433 642 301 q 1000 690 889 565 l 949 268 l 1050 268 l 1039 176 l 938 176 l 915 0 l 819 0 l 842 176 l 532 176 m 121 886 l 131 975 l 285 975 l 206 325 l 114 325 l 183 886 l 121 886 m 872 432 l 726 268 l 853 268 l 872 432 z "},"ª":{"ha":593,"x_min":81,"x_max":557,"o":"m 81 608 q 101 703 81 658 q 156 781 122 747 q 235 834 190 814 q 329 854 281 854 q 383 847 360 854 q 424 828 407 839 q 450 806 440 818 q 463 785 460 793 q 468 815 465 800 q 474 843 471 829 l 557 843 l 506 425 l 419 425 l 425 478 q 407 459 419 469 q 376 439 394 449 q 332 422 357 429 q 276 415 307 415 q 196 431 232 415 q 134 472 160 446 q 94 534 108 499 q 81 608 81 569 m 167 619 q 201 533 167 568 q 289 499 235 499 q 351 510 322 499 q 400 543 379 522 q 433 591 421 564 q 446 650 446 618 q 412 737 446 703 q 322 771 378 771 q 262 759 290 771 q 213 727 233 747 q 179 679 192 707 q 167 619 167 651 z "},"£":{"ha":850,"x_min":6,"x_max":801,"o":"m 256 124 l 488 124 q 562 127 533 124 q 606 139 590 131 q 629 162 622 147 q 639 197 636 176 l 646 257 q 712 258 679 257 q 776 258 744 258 l 760 119 q 747 72 757 93 q 717 34 738 50 q 663 9 697 18 q 578 0 629 0 l 6 0 l 21 124 l 83 124 q 120 128 106 124 q 145 147 135 133 q 162 188 156 161 q 174 257 168 214 l 189 378 l 96 378 l 111 503 l 204 503 l 235 753 q 267 844 240 803 q 337 916 294 886 q 436 963 379 946 q 560 981 493 981 q 717 942 660 981 q 801 838 775 904 q 750 810 775 824 q 697 782 725 796 q 683 800 690 788 q 662 825 676 813 q 620 847 647 838 q 547 856 593 856 q 415 820 464 856 q 357 718 365 785 l 331 503 l 494 503 l 479 378 l 315 378 l 297 231 q 286 169 293 194 q 256 124 279 143 z "},"¹":{"ha":249,"x_min":121,"x_max":231,"o":"m 124 921 l 131 978 l 231 978 l 179 557 l 121 557 l 165 921 l 124 921 z "},"¾":{"ha":1372,"x_min":46,"x_max":1310,"o":"m 439 -26 l 961 1036 l 1090 1036 q 829 505 958 769 q 567 -26 700 240 l 439 -26 m 790 176 q 1024 433 901 301 q 1260 690 1147 565 l 1208 268 l 1310 268 l 1297 176 l 1196 176 l 1175 0 l 1079 0 l 1100 176 l 790 176 m 185 636 q 280 765 229 701 q 375 896 331 829 l 157 896 l 168 992 l 542 992 q 449 864 497 928 q 356 735 400 800 q 449 658 414 710 q 483 538 483 606 q 460 437 483 485 q 400 353 438 389 q 313 297 363 318 q 213 276 264 276 q 117 297 160 276 q 46 353 75 318 q 86 388 65 371 q 126 421 107 404 q 224 372 161 372 q 283 385 254 372 q 335 418 313 397 q 370 467 357 439 q 383 528 383 496 q 348 617 383 581 q 258 653 313 653 q 185 636 219 653 m 1132 432 l 986 268 l 1113 268 l 1132 432 z "},"²":{"ha":465,"x_min":99,"x_max":424,"o":"m 256 582 l 417 582 l 410 521 l 99 521 q 196 608 149 565 q 279 689 243 650 q 338 765 315 728 q 360 836 360 801 q 335 897 360 878 q 288 917 311 917 q 242 907 260 917 q 213 883 224 897 q 197 852 201 868 q 192 825 192 836 q 197 791 192 806 q 211 765 203 776 q 190 745 200 754 q 169 726 181 736 q 140 769 150 739 q 129 825 129 800 q 140 881 129 854 q 173 930 151 908 q 225 965 194 951 q 294 978 256 978 q 390 940 356 978 q 424 849 424 901 q 410 779 424 813 q 373 713 396 746 q 319 648 350 681 q 256 582 289 615 z "},"¶":{"ha":785,"x_min":99,"x_max":715,"o":"m 354 0 l 228 0 l 301 596 q 219 612 257 596 q 155 656 182 628 q 113 721 128 683 q 99 801 99 758 q 119 901 99 854 q 176 981 140 947 q 259 1035 213 1015 q 358 1056 306 1056 l 715 1056 l 585 0 l 458 0 l 574 933 l 469 933 l 354 0 z "},"¬":{"ha":679,"x_min":71,"x_max":589,"o":"m 444 208 l 450 258 l 71 258 l 82 350 l 589 350 l 572 208 l 444 208 z "},"³":{"ha":390,"x_min":81,"x_max":396,"o":"m 167 751 q 228 833 194 792 q 289 917 261 875 l 150 917 l 157 978 l 396 978 q 337 897 368 938 q 276 814 306 856 q 336 765 314 799 q 358 689 358 732 q 344 625 358 656 q 305 572 329 594 q 250 535 281 549 q 186 522 219 522 q 125 535 151 522 q 81 572 99 549 l 131 615 q 193 583 154 583 q 231 591 213 583 q 264 613 250 599 q 286 644 278 626 q 294 682 294 661 q 272 739 294 715 q 214 763 250 763 q 167 751 192 763 z "},"¦":{"ha":369,"x_min":31,"x_max":321,"o":"m 160 -329 l 31 -329 l 92 164 l 221 164 l 160 -329 m 261 493 l 132 493 l 192 986 l 321 986 l 261 493 z "},"&":{"ha":904,"x_min":32,"x_max":894,"o":"m 835 0 l 693 0 q 672 29 683 14 q 649 62 663 43 q 619 104 635 81 q 493 19 569 51 q 326 -14 417 -14 q 206 6 260 -14 q 113 62 151 26 q 53 147 75 97 q 32 254 32 196 q 53 369 32 315 q 113 465 75 422 q 201 539 150 508 q 308 585 251 569 q 280 640 293 614 q 260 685 267 665 q 237 754 246 721 q 228 824 228 788 q 250 919 228 876 q 309 990 272 961 q 394 1035 346 1019 q 494 1053 442 1051 q 613 1038 561 1056 q 694 997 665 1019 q 682 983 694 997 q 656 951 669 968 q 629 920 642 935 q 617 904 617 906 q 582 924 603 915 q 532 936 561 933 q 469 935 501 940 q 412 916 438 931 q 370 877 386 901 q 354 815 354 853 q 363 758 354 783 q 376 728 372 733 l 629 325 l 768 596 l 894 596 l 697 215 l 835 0 m 371 479 q 292 462 331 478 q 222 417 253 446 q 172 351 190 389 q 153 271 153 314 q 169 196 153 228 q 213 143 186 164 q 276 113 240 122 q 350 103 313 103 q 408 110 378 103 q 465 128 438 117 q 517 157 493 140 q 558 193 542 174 q 463 334 513 260 q 371 479 414 408 z "},"ß":{"ha":779,"x_min":46,"x_max":725,"o":"m 261 11 q 293 67 276 39 q 326 125 310 96 q 392 111 358 111 q 469 127 432 111 q 535 171 507 143 q 581 235 564 199 q 599 313 599 272 q 586 376 599 347 q 551 428 574 406 q 499 463 529 450 q 435 475 469 475 l 432 475 l 447 600 q 531 630 497 600 q 565 708 565 660 q 538 775 565 749 q 453 801 510 801 q 330 744 371 801 q 276 586 289 686 l 204 0 l 78 0 l 135 465 l 46 465 l 61 589 l 150 589 l 151 596 q 192 732 164 671 q 262 836 221 793 q 354 902 303 879 q 464 925 406 925 q 564 909 521 925 q 635 866 607 893 q 678 802 664 839 q 693 726 693 765 q 687 673 693 700 q 667 622 681 646 q 635 579 654 599 q 589 549 615 560 q 637 524 613 543 q 681 474 661 504 q 713 406 700 444 q 725 321 725 367 q 696 194 725 254 q 618 88 667 133 q 506 15 569 42 q 375 -12 443 -12 q 315 -7 346 -12 q 261 11 285 -1 z "},"¤":{"ha":650,"x_min":103,"x_max":572,"o":"m 125 481 q 139 552 125 519 q 175 614 153 585 q 158 633 165 624 q 142 653 150 642 l 210 714 l 246 675 q 303 700 274 690 q 364 710 332 710 q 475 675 428 710 l 518 714 l 572 653 l 531 615 q 553 519 553 571 q 539 449 553 482 q 500 385 525 415 l 535 344 l 467 283 l 429 325 q 313 292 376 292 q 204 324 249 292 l 157 282 l 103 343 l 149 383 q 125 481 125 424 m 214 488 q 245 409 214 442 q 324 376 276 376 q 377 388 351 376 q 422 417 403 399 q 453 460 442 436 q 465 513 465 485 q 434 593 465 560 q 354 626 403 626 q 301 615 326 626 q 257 585 276 604 q 226 541 238 567 q 214 488 214 515 z "},"§":{"ha":533,"x_min":74,"x_max":486,"o":"m 179 208 q 128 313 146 275 q 101 368 110 350 q 92 390 93 386 q 90 393 90 394 q 75 465 76 426 q 84 540 74 503 q 115 610 94 576 q 168 668 136 643 q 215 694 190 683 q 267 711 239 704 q 246 756 256 733 q 225 801 236 778 q 199 883 203 849 q 204 942 194 917 q 234 984 214 967 q 282 1015 254 1001 q 338 1047 310 1032 q 394 1078 367 1063 q 419 1024 407 1050 q 446 971 432 997 q 416 956 431 964 q 388 940 401 949 q 344 898 351 921 q 365 819 338 875 l 467 610 q 485 539 483 576 q 475 465 486 501 q 442 397 464 429 q 386 339 419 364 q 341 312 365 324 q 288 293 317 300 q 309 248 299 271 q 331 201 319 225 q 358 119 353 154 q 353 60 363 85 q 324 17 344 35 q 276 -15 303 -1 q 222 -47 249 -32 q 167 -76 194 -61 l 115 31 l 172 63 q 201 83 190 72 q 213 110 211 94 q 206 149 214 125 q 179 208 197 172 m 194 514 q 192 479 189 496 q 206 450 196 463 q 232 429 217 438 q 267 421 247 421 q 330 445 301 421 q 364 506 358 469 q 349 565 369 540 q 292 593 328 590 q 229 572 260 592 q 194 514 199 551 z "},"·":{"ha":308,"x_min":75,"x_max":232,"o":"m 75 389 q 103 451 75 425 q 164 476 132 476 q 210 456 189 476 q 232 404 232 435 q 203 343 232 367 q 144 319 174 319 q 96 338 117 319 q 75 389 75 357 z "},"º":{"ha":553,"x_min":78,"x_max":528,"o":"m 83 635 q 111 720 89 681 q 167 790 133 760 q 244 837 201 819 q 333 854 288 854 q 413 839 376 854 q 474 797 449 824 q 514 734 500 769 q 528 657 528 699 q 508 565 528 608 q 455 488 489 521 q 376 435 421 454 q 279 415 331 415 q 195 431 233 415 q 130 476 157 447 q 90 546 103 506 q 83 635 78 586 m 168 635 q 195 538 161 578 q 286 499 229 499 q 344 510 317 499 q 394 543 372 522 q 428 591 415 564 q 442 649 442 618 q 407 735 442 700 q 319 771 372 771 q 266 760 292 771 q 219 731 240 750 q 185 688 199 713 q 168 635 172 663 z "},"¯":{"ha":563,"x_min":201,"x_max":536,"o":"m 201 671 l 211 751 l 536 751 l 526 671 l 201 671 z "},"µ":{"ha":772,"x_min":28,"x_max":678,"o":"m 606 -12 l 506 -12 l 511 149 q 407 32 471 78 q 254 -14 343 -14 q 179 -1 210 -14 l 144 -279 l 28 -279 l 79 139 q 81 160 79 153 l 132 581 l 250 581 l 204 213 q 226 139 201 169 q 311 104 251 108 q 389 119 353 104 q 453 158 425 133 q 500 218 482 183 q 524 294 518 253 l 558 581 l 678 581 l 606 -12 z "},"×":{"ha":613,"x_min":35,"x_max":538,"o":"m 385 0 l 271 128 l 129 1 q 82 56 106 29 q 35 110 58 82 l 176 238 l 63 367 l 186 479 l 301 347 l 446 476 q 492 421 469 449 q 538 367 514 393 l 399 240 l 510 110 l 385 0 z "},"O":{"ha":1132,"x_min":51,"x_max":1097,"o":"m 64 503 q 128 701 76 607 q 259 865 181 794 q 436 977 338 936 q 642 1018 535 1018 q 823 981 739 1018 q 967 881 907 944 q 1063 733 1028 817 q 1097 553 1097 649 q 1049 335 1097 438 q 919 156 1000 233 q 734 34 839 79 q 515 -11 629 -11 q 320 29 408 -11 q 170 140 232 69 q 80 303 108 210 q 64 503 51 396 m 215 501 q 226 358 206 425 q 291 240 247 290 q 398 161 335 190 q 536 132 461 132 q 691 165 617 132 q 822 253 765 197 q 912 383 878 308 q 946 540 946 457 q 922 670 946 610 q 855 776 897 731 q 753 847 813 821 q 625 872 694 872 q 480 843 550 872 q 354 764 410 814 q 262 646 299 714 q 215 501 225 578 z "},"g":{"ha":744,"x_min":7,"x_max":686,"o":"m 28 256 q 56 390 28 328 q 130 497 83 451 q 238 569 176 543 q 365 596 299 596 q 447 583 413 596 q 506 554 482 571 q 542 522 529 538 q 557 499 554 506 q 565 540 560 518 q 572 581 569 561 l 686 581 l 618 26 q 506 -199 600 -118 q 267 -279 411 -279 q 178 -269 217 -279 q 110 -242 140 -258 q 56 -203 81 -225 q 7 -157 31 -181 l 93 -76 q 174 -140 131 -117 q 279 -164 217 -164 q 428 -119 372 -164 q 496 4 485 -75 l 501 44 q 507 69 503 56 q 513 89 511 82 q 477 53 497 72 q 429 20 457 35 q 367 -4 401 6 q 292 -14 333 -14 q 183 7 232 -14 q 100 64 135 28 q 47 149 65 100 q 28 256 28 199 m 149 271 q 194 151 149 199 q 317 103 240 103 q 402 119 363 103 q 471 165 442 136 q 517 231 500 193 q 533 313 533 269 q 488 432 533 385 q 363 479 442 479 q 279 463 318 479 q 211 419 240 447 q 165 352 182 390 q 149 271 149 314 z "},"d":{"ha":746,"x_min":29,"x_max":749,"o":"m 29 254 q 56 392 29 329 q 130 500 83 454 q 238 571 176 546 q 369 596 300 596 q 445 585 413 596 q 501 560 478 575 q 538 528 524 546 q 558 496 551 510 l 629 1079 l 749 1079 l 617 0 l 497 0 l 503 43 q 506 62 504 51 q 510 79 508 72 q 474 47 494 63 q 426 17 453 31 q 365 -6 399 3 q 290 -14 332 -14 q 179 7 228 -14 q 97 65 131 28 q 47 150 64 101 q 29 254 29 199 m 150 271 q 196 151 150 199 q 318 103 242 103 q 403 119 364 103 q 472 165 443 136 q 518 231 501 193 q 535 313 535 269 q 489 432 535 385 q 364 479 443 479 q 281 463 319 479 q 213 419 242 447 q 167 352 183 390 q 150 271 150 314 z "},"a":{"ha":744,"x_min":26,"x_max":685,"o":"m 26 256 q 55 385 26 324 q 131 494 83 447 q 242 568 179 540 q 371 596 304 596 q 446 585 413 596 q 502 560 479 575 q 538 528 525 544 q 556 499 551 511 l 571 581 l 685 581 l 614 0 l 494 0 l 504 74 q 478 47 496 63 q 435 19 461 32 q 375 -4 410 6 q 297 -14 340 -14 q 186 8 236 -14 q 101 66 136 29 q 46 152 65 103 q 26 256 26 201 m 147 271 q 193 151 147 199 q 315 103 239 103 q 401 119 361 103 q 469 165 440 136 q 515 231 499 193 q 532 313 532 269 q 486 432 532 385 q 361 479 440 479 q 278 463 317 479 q 210 419 239 447 q 164 352 181 390 q 147 271 147 314 z "},"n":{"ha":704,"x_min":33,"x_max":638,"o":"m 104 581 l 208 581 q 204 502 206 538 q 200 432 203 467 q 306 551 242 507 q 457 596 371 596 q 591 547 544 596 q 631 422 638 499 l 579 0 l 460 0 l 506 368 q 484 444 508 413 q 400 478 460 475 q 322 463 358 478 q 258 424 286 449 q 210 364 229 399 q 186 288 192 329 l 151 0 l 33 0 l 104 581 z "},"˛":{"ha":738,"x_min":119,"x_max":417,"o":"m 329 -50 q 308 -89 326 -75 q 270 -117 290 -103 q 233 -148 250 -131 q 217 -197 217 -165 q 231 -244 217 -225 q 276 -262 246 -262 q 324 -248 304 -262 q 351 -211 343 -233 q 384 -230 367 -221 q 417 -247 401 -239 q 347 -330 390 -303 q 254 -357 303 -357 q 194 -345 219 -357 q 153 -314 169 -333 q 128 -270 136 -294 q 119 -219 119 -246 q 134 -147 119 -179 q 189 -86 149 -114 q 210 -74 199 -79 q 230 -62 221 -69 q 247 -42 239 -54 q 257 -10 254 -31 l 258 0 l 336 0 l 329 -50 z "},"ˇ":{"ha":618,"x_min":271,"x_max":610,"o":"m 410 675 q 341 802 375 739 q 271 929 307 865 l 361 929 q 374 906 365 921 q 393 876 383 892 q 413 844 403 860 q 426 821 422 829 q 445 844 432 829 q 473 876 458 860 q 501 906 488 892 q 521 929 514 921 l 610 929 q 509 802 560 865 q 410 675 458 739 z "},"˝":{"ha":717,"x_min":175,"x_max":760,"o":"m 175 675 q 250 768 213 721 q 325 861 288 815 l 453 861 l 265 675 l 175 675 m 482 675 q 557 768 519 721 q 632 861 594 815 l 760 861 l 571 675 l 482 675 z "},"˙":{"ha":339,"x_min":194,"x_max":346,"o":"m 194 796 q 222 856 194 832 q 281 881 250 881 q 326 860 306 881 q 346 810 346 840 q 318 750 346 774 q 261 726 290 726 q 215 746 235 726 q 194 796 194 765 z "},"˘":{"ha":1022,"x_min":247,"x_max":701,"o":"m 451 694 q 367 711 406 694 q 301 757 328 728 q 260 826 274 786 q 251 913 247 867 l 319 913 q 352 803 313 846 q 460 761 392 761 q 575 803 528 761 q 633 913 622 846 l 701 913 q 673 826 696 867 q 616 757 650 786 q 540 711 582 728 q 451 694 497 694 z "},"Ą":{"ha":897,"x_min":-47,"x_max":857,"o":"m 776 0 l 771 -50 q 750 -89 768 -75 q 711 -117 732 -103 q 674 -148 690 -131 q 657 -197 657 -165 q 672 -244 657 -225 q 717 -262 686 -262 q 764 -248 744 -262 q 792 -211 783 -233 q 824 -230 807 -221 q 857 -247 842 -239 q 788 -330 832 -303 q 694 -357 743 -357 q 635 -345 660 -357 q 593 -314 610 -333 q 568 -270 576 -294 q 560 -219 560 -246 q 574 -147 560 -179 q 629 -86 589 -114 q 650 -74 639 -79 q 670 -62 661 -69 q 687 -42 679 -54 q 697 -10 694 -31 l 699 0 q 685 44 694 15 q 665 112 676 74 q 641 195 654 150 q 614 289 628 240 l 258 289 l 103 0 l -47 0 l 531 1054 q 551 983 536 1035 q 588 860 567 932 q 636 702 610 789 q 690 526 663 615 q 742 351 717 438 q 790 193 768 265 q 828 70 813 121 q 849 0 843 19 l 776 0 m 326 417 l 578 417 q 553 505 565 463 q 530 583 540 547 q 512 644 519 618 q 500 686 504 671 q 496 706 499 689 q 492 736 493 722 q 479 706 486 722 q 471 686 472 689 l 326 417 z "},"Ł":{"ha":796,"x_min":22,"x_max":754,"o":"m 83 0 l 129 367 l 22 335 l 38 458 l 144 490 l 207 1007 l 360 1007 l 303 538 l 604 629 l 589 506 l 288 414 l 254 144 l 754 144 l 736 0 l 83 0 z "},"Ľ":{"ha":788,"x_min":74,"x_max":744,"o":"m 74 0 l 197 1007 l 350 1007 l 244 144 l 744 144 l 726 0 l 74 0 m 558 796 l 500 831 q 553 901 535 858 q 568 992 571 943 l 647 1001 q 627 890 651 943 q 558 796 603 836 z "},"Ś":{"ha":786,"x_min":-6,"x_max":768,"o":"m 768 951 l 700 828 q 591 861 646 849 q 485 874 536 874 q 400 863 439 874 q 334 834 361 853 q 292 790 307 815 q 276 736 276 765 q 310 667 276 693 q 393 619 343 640 q 501 575 443 597 q 608 520 558 553 q 692 438 658 488 q 725 314 725 389 q 698 182 725 242 q 618 79 671 122 q 486 13 565 36 q 303 -11 407 -11 q 194 -3 242 -11 q 108 19 146 6 q 42 47 71 32 q -6 75 14 63 l 78 207 q 194 156 129 175 q 315 136 260 136 q 389 144 344 136 q 474 170 433 151 q 544 220 515 189 q 574 300 574 251 q 540 378 574 347 q 457 434 507 410 q 349 481 407 458 q 240 533 290 503 q 157 605 190 563 q 124 713 124 647 q 148 820 124 767 q 219 917 172 874 q 333 986 265 960 q 490 1013 401 1013 q 587 1004 540 1013 q 672 985 633 996 q 735 965 710 975 q 768 951 761 956 m 389 1065 q 464 1158 426 1111 q 539 1251 501 1206 l 667 1251 l 479 1065 l 389 1065 z "},"Š":{"ha":786,"x_min":-6,"x_max":768,"o":"m 768 951 l 700 828 q 591 861 646 849 q 485 874 536 874 q 400 863 439 874 q 334 834 361 853 q 292 790 307 815 q 276 736 276 765 q 310 667 276 693 q 393 619 343 640 q 501 575 443 597 q 608 520 558 553 q 692 438 658 488 q 725 314 725 389 q 698 182 725 242 q 618 79 671 122 q 486 13 565 36 q 303 -11 407 -11 q 194 -3 242 -11 q 108 19 146 6 q 42 47 71 32 q -6 75 14 63 l 78 207 q 194 156 129 175 q 315 136 260 136 q 389 144 344 136 q 474 170 433 151 q 544 220 515 189 q 574 300 574 251 q 540 378 574 347 q 457 434 507 410 q 349 481 407 458 q 240 533 290 503 q 157 605 190 563 q 124 713 124 647 q 148 820 124 767 q 219 917 172 874 q 333 986 265 960 q 490 1013 401 1013 q 587 1004 540 1013 q 672 985 633 996 q 735 965 710 975 q 768 951 761 956 m 476 1032 q 408 1159 442 1096 q 338 1286 374 1222 l 428 1286 q 441 1263 432 1278 q 460 1233 450 1249 q 479 1201 469 1217 q 493 1178 489 1186 q 512 1201 499 1186 q 540 1233 525 1217 q 567 1263 554 1249 q 588 1286 581 1278 l 676 1286 q 576 1159 626 1222 q 476 1032 525 1096 z "},"Ş":{"ha":786,"x_min":-6,"x_max":768,"o":"m 768 951 l 700 828 q 591 861 646 849 q 485 874 536 874 q 400 863 439 874 q 334 834 361 853 q 292 790 307 815 q 276 736 276 765 q 310 667 276 693 q 393 619 343 640 q 501 575 443 597 q 608 520 558 553 q 692 438 658 488 q 725 314 725 389 q 632 92 725 179 q 358 -8 539 4 l 358 -10 q 360 -42 356 -31 q 373 -62 365 -54 q 390 -74 381 -69 q 408 -86 400 -79 q 440 -128 431 -104 q 449 -181 449 -151 q 438 -245 449 -214 q 404 -301 426 -276 q 350 -342 382 -326 q 276 -357 318 -357 q 190 -330 228 -357 q 140 -247 151 -303 q 177 -230 158 -239 q 214 -211 196 -221 q 234 -248 218 -233 q 276 -262 250 -262 q 334 -237 314 -262 q 354 -178 354 -212 q 341 -138 354 -153 q 312 -112 328 -124 q 284 -86 296 -100 q 275 -50 272 -72 l 279 -11 q 101 22 169 -7 q -6 75 32 50 l 78 207 q 194 156 129 175 q 315 136 260 136 q 389 144 344 136 q 474 170 433 151 q 544 220 515 189 q 574 300 574 251 q 540 378 574 347 q 457 434 507 410 q 349 481 407 458 q 240 533 290 503 q 157 605 190 563 q 124 713 124 647 q 148 820 124 767 q 219 917 172 874 q 333 986 265 960 q 490 1013 401 1013 q 587 1004 540 1013 q 672 985 633 996 q 735 965 710 975 q 768 951 761 956 z "},"Ť":{"ha":761,"x_min":110,"x_max":782,"o":"m 782 1007 l 764 863 l 510 863 l 404 0 l 253 0 l 358 863 l 110 863 l 128 1007 l 782 1007 m 456 1032 q 555 1159 504 1096 q 656 1286 606 1222 l 567 1286 q 547 1263 560 1278 q 520 1233 535 1249 q 492 1201 506 1217 q 474 1178 479 1186 q 460 1201 469 1186 q 440 1233 450 1217 q 421 1263 431 1249 q 407 1286 411 1278 l 317 1286 q 387 1159 353 1222 q 456 1032 421 1096 z "},"Ź":{"ha":881,"x_min":-46,"x_max":914,"o":"m 318 1007 l 914 1007 l 236 146 l 821 146 l 803 0 l -46 0 q 28 94 -25 25 q 152 253 82 163 q 301 447 222 344 q 449 639 379 549 q 573 797 519 729 q 647 889 626 865 l 244 889 q 201 895 222 889 q 165 913 181 901 q 140 940 149 924 q 135 978 132 957 l 144 1058 l 282 1058 l 279 1039 q 285 1010 276 1014 q 318 1007 294 1007 m 467 1065 q 542 1158 506 1111 q 618 1251 579 1206 l 746 1251 l 557 1065 l 467 1065 z "},"Ž":{"ha":881,"x_min":-46,"x_max":914,"o":"m 318 1007 l 914 1007 l 236 146 l 821 146 l 803 0 l -46 0 q 28 94 -25 25 q 152 253 82 163 q 301 447 222 344 q 449 639 379 549 q 573 797 519 729 q 647 889 626 865 l 244 889 q 201 895 222 889 q 165 913 181 901 q 140 940 149 924 q 135 978 132 957 l 144 1058 l 282 1058 l 279 1039 q 285 1010 276 1014 q 318 1007 294 1007 m 522 1032 q 454 1159 489 1096 q 385 1286 419 1222 l 475 1286 q 488 1263 479 1278 q 507 1233 497 1249 q 526 1201 517 1217 q 540 1178 536 1186 q 559 1201 546 1186 q 587 1233 572 1217 q 615 1263 601 1249 q 635 1286 628 1278 l 724 1286 q 622 1159 672 1222 q 522 1032 572 1096 z "},"Ż":{"ha":881,"x_min":-46,"x_max":914,"o":"m 318 1007 l 914 1007 l 236 146 l 821 146 l 803 0 l -46 0 q 28 94 -25 25 q 152 253 82 163 q 301 447 222 344 q 449 639 379 549 q 573 797 519 729 q 647 889 626 865 l 244 889 q 201 895 222 889 q 165 913 181 901 q 140 940 149 924 q 135 978 132 957 l 144 1058 l 282 1058 l 279 1039 q 285 1010 276 1014 q 318 1007 294 1007 m 479 1135 q 507 1195 479 1171 q 565 1219 535 1219 q 610 1199 590 1219 q 631 1149 631 1179 q 603 1089 631 1113 q 546 1065 575 1065 q 499 1085 519 1065 q 479 1135 479 1104 z "},"ą":{"ha":744,"x_min":26,"x_max":686,"o":"m 614 0 l 494 0 l 504 74 q 478 47 496 63 q 435 19 461 32 q 375 -4 410 6 q 297 -14 340 -14 q 186 8 236 -14 q 101 66 136 29 q 46 152 65 103 q 26 256 26 201 q 55 385 26 324 q 131 494 83 447 q 242 568 179 540 q 371 596 304 596 q 446 585 413 596 q 502 560 479 575 q 539 528 525 544 q 557 499 553 511 l 572 581 l 686 581 l 614 0 m 147 271 q 194 151 147 199 q 317 103 240 103 q 401 119 363 103 q 469 165 440 136 q 515 231 499 193 q 532 313 532 269 q 486 432 532 385 q 363 479 440 479 q 278 463 318 479 q 210 419 239 447 q 164 352 181 390 q 147 271 147 314 m 572 0 l 496 0 l 494 -10 q 484 -42 492 -31 q 467 -62 476 -54 q 447 -74 458 -69 q 426 -86 436 -79 q 372 -147 386 -114 q 357 -219 357 -179 q 365 -270 357 -246 q 390 -314 374 -294 q 432 -345 407 -333 q 492 -357 457 -357 q 584 -330 540 -357 q 654 -247 628 -303 q 622 -230 639 -239 q 589 -211 604 -221 q 560 -248 579 -233 q 513 -262 540 -262 q 468 -244 483 -262 q 453 -197 453 -225 q 469 -148 453 -165 q 507 -117 486 -131 q 546 -89 528 -103 q 567 -50 564 -75 l 572 0 z "},"ł":{"ha":328,"x_min":17,"x_max":325,"o":"m 163 0 l 44 0 l 89 357 l 17 335 l 32 458 l 104 481 l 178 1079 l 296 1079 l 226 517 l 325 547 l 310 424 l 211 393 l 163 0 z "},"ľ":{"ha":283,"x_min":35,"x_max":468,"o":"m 153 0 l 35 0 l 167 1079 l 285 1079 l 153 0 m 375 796 l 317 831 q 369 901 351 858 q 385 992 388 943 l 464 1001 q 444 890 468 943 q 375 796 419 836 z "},"ś":{"ha":471,"x_min":-1,"x_max":485,"o":"m 424 529 l 351 446 q 342 453 350 447 q 322 464 335 458 q 293 474 310 469 q 258 479 276 479 q 208 467 233 479 q 182 421 182 454 q 199 382 182 397 q 240 353 215 367 q 292 328 264 340 q 345 297 321 315 q 386 251 369 278 q 403 185 403 225 q 387 107 403 143 q 342 44 371 71 q 271 3 313 18 q 179 -12 229 -12 q 76 6 125 -12 q -1 61 26 25 q 23 86 8 71 q 51 115 38 101 q 73 138 64 129 q 83 147 82 147 q 92 139 83 146 q 117 124 101 132 q 153 110 133 117 q 194 104 174 104 q 257 122 231 104 q 283 171 283 140 q 267 207 283 193 q 225 233 250 221 q 172 256 200 244 q 118 287 143 268 q 76 333 93 306 q 60 404 60 361 q 80 493 60 457 q 131 552 100 529 q 198 585 161 575 q 268 594 235 594 q 352 578 308 594 q 424 529 396 561 m 206 675 q 281 768 244 721 q 357 861 318 815 l 485 861 l 296 675 l 206 675 z "},"š":{"ha":471,"x_min":-1,"x_max":465,"o":"m 424 529 l 351 446 q 342 453 350 447 q 322 464 335 458 q 293 474 310 469 q 258 479 276 479 q 208 467 233 479 q 182 421 182 454 q 199 382 182 397 q 240 353 215 367 q 292 328 264 340 q 345 297 321 315 q 386 251 369 278 q 403 185 403 225 q 387 107 403 143 q 342 44 371 71 q 271 3 313 18 q 179 -12 229 -12 q 76 6 125 -12 q -1 61 26 25 q 23 86 8 71 q 51 115 38 101 q 73 138 64 129 q 83 147 82 147 q 92 139 83 146 q 117 124 101 132 q 153 110 133 117 q 194 104 174 104 q 257 122 231 104 q 283 171 283 140 q 267 207 283 193 q 225 233 250 221 q 172 256 200 244 q 118 287 143 268 q 76 333 93 306 q 60 404 60 361 q 80 493 60 457 q 131 552 100 529 q 198 585 161 575 q 268 594 235 594 q 352 578 308 594 q 424 529 396 561 m 264 675 q 196 802 231 739 q 126 929 161 865 l 217 929 q 230 906 221 921 q 249 876 239 892 q 268 844 258 860 q 282 821 278 829 q 301 844 288 829 q 328 876 314 860 q 356 906 343 892 q 376 929 369 921 l 465 929 q 364 802 414 865 q 264 675 314 739 z "},"ş":{"ha":471,"x_min":-1,"x_max":424,"o":"m 424 529 l 351 446 q 342 453 350 447 q 322 464 335 458 q 293 474 310 469 q 258 479 276 479 q 208 467 233 479 q 182 421 182 454 q 199 382 182 397 q 240 353 215 367 q 292 328 264 340 q 345 297 321 315 q 386 251 369 278 q 403 185 403 225 q 355 59 403 113 q 228 -8 307 6 l 228 -10 q 230 -42 225 -31 q 242 -62 235 -54 q 260 -74 250 -69 q 278 -86 269 -79 q 309 -128 300 -104 q 318 -181 318 -151 q 307 -245 318 -214 q 274 -301 296 -276 q 219 -342 251 -326 q 146 -357 188 -357 q 59 -330 97 -357 q 10 -247 21 -303 q 47 -230 29 -239 q 83 -211 65 -221 q 103 -248 88 -233 q 146 -262 119 -262 q 204 -237 183 -262 q 225 -178 225 -212 q 211 -138 225 -153 q 182 -112 197 -124 q 154 -86 167 -100 q 144 -50 142 -72 l 149 -11 q 63 13 103 -6 q -1 61 22 31 q 23 86 8 71 q 51 115 38 101 q 73 138 64 129 q 83 147 82 147 q 92 139 83 146 q 117 124 101 132 q 153 110 133 117 q 194 104 174 104 q 257 122 231 104 q 283 171 283 140 q 267 207 283 193 q 225 233 250 221 q 172 256 200 244 q 118 287 143 268 q 76 333 93 306 q 60 404 60 361 q 80 493 60 457 q 131 552 100 529 q 198 585 161 575 q 268 594 235 594 q 352 578 308 594 q 424 529 396 561 z "},"ť":{"ha":419,"x_min":38,"x_max":546,"o":"m 186 836 l 304 836 l 272 579 l 428 579 l 415 474 l 260 474 l 201 0 l 83 0 l 142 474 l 38 474 l 50 579 l 154 579 l 186 836 m 453 796 l 396 831 q 447 901 429 858 q 463 992 465 943 l 542 1001 q 522 890 546 943 q 453 796 497 836 z "},"ź":{"ha":607,"x_min":-28,"x_max":594,"o":"m 519 0 l -28 0 l 364 479 l 169 479 q 92 506 121 479 q 69 576 64 532 l 76 636 l 185 636 l 182 618 q 189 588 179 594 q 224 581 199 581 l 594 581 l 214 117 l 533 117 l 519 0 m 289 675 q 364 768 326 721 q 439 861 401 815 l 567 861 l 379 675 l 289 675 z "},"ž":{"ha":607,"x_min":-28,"x_max":594,"o":"m 519 0 l -28 0 l 364 479 l 169 479 q 92 506 121 479 q 69 576 64 532 l 76 636 l 185 636 l 182 618 q 189 588 179 594 q 224 581 199 581 l 594 581 l 214 117 l 533 117 l 519 0 m 350 675 q 281 802 315 739 q 211 929 247 865 l 301 929 q 315 906 306 921 q 334 876 324 892 q 354 844 344 860 q 368 821 364 829 q 387 844 374 829 q 414 876 400 860 q 441 906 428 892 q 461 929 454 921 l 550 929 q 449 802 500 865 q 350 675 399 739 z "},"ż":{"ha":607,"x_min":-28,"x_max":594,"o":"m 519 0 l -28 0 l 364 479 l 169 479 q 92 506 121 479 q 69 576 64 532 l 76 636 l 185 636 l 182 618 q 189 588 179 594 q 224 581 199 581 l 594 581 l 214 117 l 533 117 l 519 0 m 282 796 q 310 856 282 832 q 368 881 338 881 q 413 860 393 881 q 433 810 433 840 q 406 750 433 774 q 349 726 378 726 q 302 746 322 726 q 282 796 282 765 z "},"Ŕ":{"ha":869,"x_min":74,"x_max":807,"o":"m 74 0 l 197 1007 l 472 1007 q 604 988 544 1007 q 706 934 664 969 q 772 847 749 899 q 796 728 796 794 q 785 637 796 683 q 751 547 774 590 q 691 465 728 503 q 603 401 654 428 q 701 208 647 314 q 807 0 754 101 l 625 0 q 578 90 603 43 q 531 184 554 138 q 484 276 507 231 q 440 360 461 321 l 413 360 l 271 360 l 226 0 l 74 0 m 288 503 l 425 503 q 528 524 486 503 q 594 577 569 546 q 631 643 619 608 q 642 704 642 678 q 633 758 642 729 q 606 810 625 786 q 553 850 586 835 q 471 865 521 865 l 332 865 l 288 503 m 417 1065 q 492 1158 456 1111 q 568 1251 529 1206 l 696 1251 l 507 1065 l 417 1065 z "},"Ă":{"ha":899,"x_min":-47,"x_max":849,"o":"m 849 0 q 828 70 843 19 q 790 193 813 121 q 742 351 768 265 q 690 526 717 438 q 636 702 663 615 q 588 860 610 789 q 551 983 567 932 q 531 1054 536 1035 l -47 0 l 103 0 l 258 289 l 614 289 q 641 195 628 240 q 665 112 654 150 q 685 44 676 74 q 699 0 694 15 l 849 0 m 535 1071 q 450 1088 489 1071 q 384 1133 411 1104 q 344 1203 357 1163 q 335 1289 331 1243 l 403 1289 q 435 1180 396 1222 q 543 1138 475 1138 q 658 1180 611 1138 q 717 1289 706 1222 l 785 1289 q 756 1203 779 1243 q 699 1133 733 1163 q 623 1088 665 1104 q 535 1071 581 1071 m 471 686 q 479 706 472 689 q 492 736 486 722 q 496 706 493 722 q 500 686 499 689 q 512 644 504 671 q 530 583 519 618 q 553 505 540 547 q 578 417 565 463 l 326 417 l 471 686 z "},"Ĺ":{"ha":786,"x_min":74,"x_max":744,"o":"m 74 0 l 197 1007 l 350 1007 l 244 144 l 744 144 l 726 0 l 74 0 m 440 1065 q 516 1158 479 1111 q 592 1251 553 1206 l 719 1251 l 531 1065 l 440 1065 z "},"Ć":{"ha":883,"x_min":63,"x_max":913,"o":"m 832 72 q 781 45 813 60 q 708 18 750 31 q 616 -3 667 6 q 510 -11 565 -11 q 318 24 401 -11 q 178 122 235 60 q 92 265 121 183 q 63 439 63 347 q 111 669 63 564 q 241 853 160 775 q 429 974 322 931 q 651 1018 536 1018 q 733 1013 692 1018 q 809 997 774 1007 q 872 974 844 988 q 913 947 899 961 q 892 919 900 931 q 876 897 885 908 q 858 869 868 885 q 831 829 847 854 q 790 850 814 842 q 741 864 767 858 q 689 872 715 869 q 640 875 663 875 q 477 842 554 875 q 342 753 400 808 q 251 624 285 697 q 217 472 217 551 q 240 349 217 408 q 304 243 263 289 q 406 170 346 197 q 540 143 465 143 q 625 151 583 143 q 700 171 667 160 q 756 193 733 182 q 785 210 779 204 l 832 72 m 557 1065 q 633 1158 596 1111 q 708 1251 671 1206 l 836 1251 l 647 1065 l 557 1065 z "},"Č":{"ha":883,"x_min":63,"x_max":913,"o":"m 832 72 q 781 45 813 60 q 708 18 750 31 q 616 -3 667 6 q 510 -11 565 -11 q 318 24 401 -11 q 178 122 235 60 q 92 265 121 183 q 63 439 63 347 q 111 669 63 564 q 241 853 160 775 q 429 974 322 931 q 651 1018 536 1018 q 733 1013 692 1018 q 809 997 774 1007 q 872 974 844 988 q 913 947 899 961 q 892 919 900 931 q 876 897 885 908 q 858 869 868 885 q 831 829 847 854 q 790 850 814 842 q 741 864 767 858 q 689 872 715 869 q 640 875 663 875 q 477 842 554 875 q 342 753 400 808 q 251 624 285 697 q 217 472 217 551 q 240 349 217 408 q 304 243 263 289 q 406 170 346 197 q 540 143 465 143 q 625 151 583 143 q 700 171 667 160 q 756 193 733 182 q 785 210 779 204 l 832 72 m 646 1032 q 745 1159 694 1096 q 846 1286 796 1222 l 757 1286 q 737 1263 750 1278 q 709 1233 724 1249 q 681 1201 694 1217 q 663 1178 668 1186 q 649 1201 658 1186 q 629 1233 639 1217 q 610 1263 619 1249 q 597 1286 601 1278 l 507 1286 q 577 1159 543 1222 q 646 1032 611 1096 z "},"Ę":{"ha":853,"x_min":74,"x_max":858,"o":"m 754 0 l 74 0 l 197 1007 l 858 1007 l 842 869 l 333 869 l 297 575 l 750 575 l 732 435 l 279 435 l 243 140 l 771 140 l 754 0 m 754 0 l 676 0 l 675 -10 q 665 -42 672 -31 q 648 -62 657 -54 q 628 -74 639 -69 q 607 -86 617 -79 q 552 -147 567 -114 q 538 -219 538 -179 q 546 -270 538 -246 q 571 -314 554 -294 q 613 -345 588 -333 q 672 -357 638 -357 q 765 -330 721 -357 q 835 -247 810 -303 q 802 -230 819 -239 q 769 -211 785 -221 q 742 -248 761 -233 q 694 -262 722 -262 q 649 -244 664 -262 q 635 -197 635 -225 q 651 -148 635 -165 q 689 -117 668 -131 q 728 -89 710 -103 q 749 -50 746 -75 l 754 0 z "},"Ě":{"ha":853,"x_min":74,"x_max":858,"o":"m 74 0 l 197 1007 l 858 1007 l 842 869 l 333 869 l 297 575 l 750 575 l 732 435 l 279 435 l 243 140 l 771 140 l 754 0 l 74 0 m 549 1032 q 481 1159 515 1096 q 411 1286 446 1222 l 501 1286 q 515 1263 506 1278 q 533 1233 524 1249 q 553 1201 543 1217 q 567 1178 563 1186 q 585 1201 572 1186 q 613 1233 599 1217 q 641 1263 628 1249 q 661 1286 654 1278 l 750 1286 q 649 1159 699 1222 q 549 1032 599 1096 z "},"Ď":{"ha":986,"x_min":74,"x_max":947,"o":"m 197 1007 l 450 1007 q 683 967 588 1007 q 836 863 778 928 q 921 717 894 799 q 947 550 947 635 q 899 322 947 424 q 772 149 851 221 q 590 39 693 78 q 376 0 488 0 l 74 0 l 197 1007 m 372 144 q 538 172 460 144 q 672 249 615 199 q 763 374 729 300 q 796 544 796 449 q 768 684 796 625 q 695 783 740 743 q 592 842 650 822 q 474 861 535 861 l 331 861 l 243 144 l 372 144 m 546 1032 q 478 1159 513 1096 q 408 1286 443 1222 l 499 1286 q 512 1263 503 1278 q 531 1233 521 1249 q 550 1201 540 1217 q 564 1178 560 1186 q 583 1201 569 1186 q 610 1233 596 1217 q 638 1263 625 1249 q 658 1286 651 1278 l 747 1286 q 646 1159 696 1222 q 546 1032 596 1096 z "},"Đ":{"ha":994,"x_min":42,"x_max":956,"o":"m 54 569 l 153 569 l 207 1007 l 460 1007 q 692 967 597 1007 q 845 863 786 928 q 930 717 904 799 q 956 550 956 635 q 908 322 956 424 q 782 149 861 221 q 600 39 703 78 q 386 0 497 0 l 83 0 l 140 468 l 42 468 l 54 569 m 381 144 q 546 172 468 144 q 681 249 624 199 q 771 374 738 300 q 804 544 804 449 q 777 684 804 625 q 705 783 750 743 q 602 842 660 822 q 483 861 544 861 l 340 861 l 304 569 l 471 569 l 458 468 l 292 468 l 251 144 l 381 144 z "},"Ń":{"ha":1126,"x_min":72,"x_max":1079,"o":"m 1079 1007 l 950 -46 q 885 35 933 -21 q 772 162 836 90 q 637 313 708 233 q 501 465 565 393 q 390 592 438 536 q 329 672 343 647 l 308 708 l 307 664 l 225 0 l 72 0 l 201 1054 q 267 974 218 1029 q 379 847 315 918 q 515 699 443 776 q 649 551 586 621 q 760 426 713 481 q 825 347 808 371 l 846 308 l 847 356 l 928 1007 l 1079 1007 m 565 1065 q 641 1158 604 1111 q 717 1251 678 1206 l 844 1251 l 656 1065 l 565 1065 z "},"Ň":{"ha":1126,"x_min":72,"x_max":1079,"o":"m 1079 1007 l 950 -46 q 885 35 933 -21 q 772 162 836 90 q 637 313 708 233 q 501 465 565 393 q 390 592 438 536 q 329 672 343 647 l 308 708 l 307 664 l 225 0 l 72 0 l 201 1054 q 267 974 218 1029 q 379 847 315 918 q 515 699 443 776 q 649 551 586 621 q 760 426 713 481 q 825 347 808 371 l 846 308 l 847 356 l 928 1007 l 1079 1007 m 625 1032 q 557 1159 592 1096 q 488 1286 522 1222 l 578 1286 q 591 1263 582 1278 q 610 1233 600 1249 q 629 1201 619 1217 q 643 1178 639 1186 q 662 1201 649 1186 q 690 1233 675 1217 q 717 1263 704 1249 q 738 1286 731 1278 l 826 1286 q 725 1159 775 1222 q 625 1032 675 1096 z "},"Ő":{"ha":1133,"x_min":63,"x_max":1099,"o":"m 63 451 q 110 668 63 565 q 239 849 158 771 q 424 972 319 926 q 643 1018 529 1018 q 824 981 740 1018 q 969 881 908 944 q 1064 733 1029 817 q 1099 553 1099 649 q 1050 335 1099 438 q 921 156 1001 233 q 735 34 840 79 q 517 -11 631 -11 q 335 25 418 -11 q 191 124 251 61 q 97 271 131 186 q 63 451 63 356 m 214 464 q 238 334 214 394 q 306 228 263 274 q 408 158 349 183 q 538 132 468 132 q 692 165 618 132 q 823 253 767 197 q 913 383 879 308 q 947 540 947 457 q 923 670 947 610 q 856 776 899 731 q 755 847 814 821 q 626 872 696 872 q 470 840 544 872 q 339 751 396 807 q 248 622 282 696 q 214 464 214 547 m 440 1060 q 515 1153 478 1106 q 590 1246 553 1200 l 718 1246 l 531 1060 l 440 1060 m 747 1060 q 822 1153 785 1106 q 897 1246 860 1200 l 1025 1246 l 836 1060 l 747 1060 z "},"Ř":{"ha":869,"x_min":74,"x_max":807,"o":"m 74 0 l 197 1007 l 472 1007 q 604 988 544 1007 q 706 934 664 969 q 772 847 749 899 q 796 728 796 794 q 785 637 796 683 q 751 547 774 590 q 691 465 728 503 q 603 401 654 428 q 701 208 647 314 q 807 0 754 101 l 625 0 q 578 90 603 43 q 531 184 554 138 q 484 276 507 231 q 440 360 461 321 l 413 360 l 271 360 l 226 0 l 74 0 m 288 503 l 425 503 q 528 524 486 503 q 594 577 569 546 q 631 643 619 608 q 642 704 642 678 q 633 758 642 729 q 606 810 625 786 q 553 850 586 835 q 471 865 521 865 l 332 865 l 288 503 m 492 1032 q 424 1159 458 1096 q 354 1286 389 1222 l 444 1286 q 458 1263 449 1278 q 476 1233 467 1249 q 496 1201 486 1217 q 510 1178 506 1186 q 528 1201 515 1186 q 556 1233 542 1217 q 584 1263 571 1249 q 604 1286 597 1278 l 693 1286 q 592 1159 642 1222 q 492 1032 542 1096 z "},"Ů":{"ha":989,"x_min":96,"x_max":954,"o":"m 549 1174 q 560 1142 549 1154 q 592 1131 572 1131 q 631 1146 615 1131 q 647 1183 647 1161 q 635 1215 647 1203 q 604 1228 624 1228 q 565 1212 582 1228 q 549 1174 549 1196 m 479 1168 q 490 1217 479 1194 q 520 1258 501 1240 q 563 1287 539 1276 q 613 1297 588 1297 q 687 1266 657 1297 q 717 1190 717 1235 q 706 1140 717 1164 q 676 1099 694 1117 q 633 1072 657 1082 q 583 1061 608 1061 q 509 1092 539 1061 q 479 1168 479 1124 m 443 -11 q 297 15 363 -11 q 185 90 231 42 q 117 205 139 138 q 106 356 96 272 l 186 1007 l 338 1007 l 258 360 q 265 270 253 311 q 305 198 278 229 q 372 149 332 167 q 461 132 411 132 q 554 149 510 132 q 634 198 599 167 q 692 270 669 229 q 721 360 715 311 l 800 1007 l 954 1007 l 874 356 q 826 205 864 272 q 729 90 788 138 q 597 15 671 42 q 443 -11 524 -11 z "},"Ű":{"ha":989,"x_min":96,"x_max":954,"o":"m 443 -11 q 297 15 363 -11 q 185 90 231 42 q 117 205 139 138 q 106 356 96 272 l 186 1007 l 338 1007 l 258 360 q 265 270 253 311 q 305 198 278 229 q 372 149 332 167 q 461 132 411 132 q 554 149 510 132 q 634 198 599 167 q 692 270 669 229 q 721 360 715 311 l 800 1007 l 954 1007 l 874 356 q 826 205 864 272 q 729 90 788 138 q 597 15 671 42 q 443 -11 524 -11 m 349 1060 q 424 1153 386 1106 q 499 1246 461 1200 l 626 1246 l 439 1060 l 349 1060 m 656 1060 q 731 1153 693 1106 q 806 1246 768 1200 l 933 1246 l 744 1060 l 656 1060 z "},"Ţ":{"ha":761,"x_min":110,"x_max":782,"o":"m 782 1007 l 764 863 l 510 863 l 404 0 l 253 0 l 358 863 l 110 863 l 128 1007 l 782 1007 m 403 -31 l 246 -319 l 132 -319 q 203 -176 168 -247 q 275 -31 238 -104 l 403 -31 z "},"ŕ":{"ha":432,"x_min":33,"x_max":468,"o":"m 407 443 q 331 433 368 443 q 263 401 293 422 q 212 349 232 381 q 186 278 192 318 l 151 0 l 33 0 l 104 581 l 208 581 q 204 502 206 538 q 200 432 203 467 q 256 500 222 469 q 324 551 289 531 q 394 584 360 572 q 453 596 428 596 l 407 443 m 190 675 q 265 768 228 721 q 340 861 303 815 l 468 861 l 281 675 l 190 675 z "},"ă":{"ha":744,"x_min":26,"x_max":685,"o":"m 26 256 q 55 385 26 324 q 131 494 83 447 q 242 568 179 540 q 371 596 304 596 q 446 585 413 596 q 502 560 479 575 q 538 528 525 544 q 556 499 551 511 l 571 581 l 685 581 l 614 0 l 494 0 l 504 74 q 478 47 496 63 q 435 19 461 32 q 375 -4 410 6 q 297 -14 340 -14 q 186 8 236 -14 q 101 66 136 29 q 46 152 65 103 q 26 256 26 201 m 147 271 q 193 151 147 199 q 315 103 239 103 q 401 119 361 103 q 469 165 440 136 q 515 231 499 193 q 532 313 532 269 q 486 432 532 385 q 361 479 440 479 q 278 463 317 479 q 210 419 239 447 q 164 352 181 390 q 147 271 147 314 m 414 694 q 330 711 368 694 q 265 757 292 728 q 224 826 238 786 q 215 913 211 867 l 283 913 q 315 803 276 846 q 422 761 354 761 q 538 803 490 761 q 597 913 586 846 l 665 913 q 637 826 660 867 q 579 757 614 786 q 502 711 544 728 q 414 694 460 694 z "},"ĺ":{"ha":283,"x_min":35,"x_max":450,"o":"m 153 0 l 35 0 l 167 1079 l 285 1079 l 153 0 m 171 1103 q 247 1196 210 1149 q 322 1289 285 1243 l 450 1289 l 261 1103 l 171 1103 z "},"ć":{"ha":575,"x_min":26,"x_max":567,"o":"m 440 143 q 472 98 457 119 q 501 53 486 76 q 408 4 458 22 q 300 -14 357 -14 q 190 8 240 -14 q 103 67 140 29 q 47 154 67 104 q 26 261 26 204 q 55 390 26 329 q 132 496 83 450 q 243 569 181 542 q 375 596 306 596 q 481 578 433 596 q 564 529 528 560 l 476 439 q 426 469 456 458 q 360 479 396 479 q 275 463 314 479 q 208 419 236 447 q 163 352 179 390 q 146 271 146 314 q 191 151 146 200 q 314 103 236 103 q 382 113 350 103 q 440 143 414 124 m 289 675 q 364 768 326 721 q 439 861 401 815 l 567 861 l 379 675 l 289 675 z "},"č":{"ha":575,"x_min":26,"x_max":571,"o":"m 440 143 q 472 98 457 119 q 501 53 486 76 q 408 4 458 22 q 300 -14 357 -14 q 190 8 240 -14 q 103 67 140 29 q 47 154 67 104 q 26 261 26 204 q 55 390 26 329 q 132 496 83 450 q 243 569 181 542 q 375 596 306 596 q 481 578 433 596 q 564 529 528 560 l 476 439 q 426 469 456 458 q 360 479 396 479 q 275 463 314 479 q 208 419 236 447 q 163 352 179 390 q 146 271 146 314 q 191 151 146 200 q 314 103 236 103 q 382 113 350 103 q 440 143 414 124 m 371 675 q 302 802 336 739 q 232 929 268 865 l 322 929 q 335 906 326 921 q 354 876 344 892 q 374 844 364 860 q 388 821 383 829 q 406 844 393 829 q 434 876 419 860 q 462 906 449 892 q 482 929 475 921 l 571 929 q 470 802 521 865 q 371 675 419 739 z "},"ę":{"ha":640,"x_min":26,"x_max":621,"o":"m 338 0 l 260 0 l 258 -10 l 258 -11 q 164 19 207 -4 q 90 79 121 43 q 43 162 60 115 q 26 260 26 208 q 55 389 26 328 q 131 496 83 450 q 242 569 179 542 q 371 596 304 596 q 535 537 469 596 q 621 382 601 478 q 517 344 575 367 q 396 298 458 322 q 271 250 333 274 q 154 207 208 226 q 215 131 174 160 q 311 103 256 103 q 388 117 349 103 q 456 154 428 131 l 533 68 q 442 15 493 36 q 336 -11 390 -6 l 338 0 m 300 -14 q 279 -13 289 -14 q 258 -11 269 -12 q 248 -42 256 -31 q 231 -62 240 -54 q 211 -74 222 -69 q 190 -86 200 -79 q 135 -147 150 -114 q 121 -219 121 -179 q 129 -270 121 -246 q 154 -314 138 -294 q 196 -345 171 -333 q 256 -357 221 -357 q 349 -330 304 -357 q 418 -247 393 -303 q 385 -230 403 -239 q 353 -211 368 -221 q 325 -248 344 -233 q 278 -262 306 -262 q 233 -244 247 -262 q 218 -197 218 -225 q 235 -148 218 -165 q 272 -117 251 -131 q 311 -89 293 -103 q 332 -50 329 -75 l 336 -11 q 317 -13 326 -12 q 300 -14 308 -14 m 475 410 q 428 462 463 444 q 357 479 394 479 q 277 463 315 479 q 210 419 239 446 q 164 358 181 392 q 147 289 147 324 l 147 282 q 229 313 185 296 q 317 348 274 331 q 402 381 361 365 q 475 410 443 397 z "},"ě":{"ha":640,"x_min":26,"x_max":621,"o":"m 533 68 q 425 8 488 31 q 300 -14 363 -14 q 190 8 240 -14 q 103 66 140 29 q 47 153 67 103 q 26 260 26 203 q 55 389 26 328 q 131 496 83 450 q 242 569 179 542 q 371 596 304 596 q 535 537 469 596 q 621 382 601 478 q 517 344 575 367 q 396 298 458 322 q 271 250 333 274 q 154 207 208 226 q 215 131 174 160 q 311 103 256 103 q 388 117 349 103 q 456 154 428 131 l 533 68 m 475 410 q 428 462 463 444 q 357 479 394 479 q 277 463 315 479 q 210 419 239 446 q 164 358 181 392 q 147 289 147 324 l 147 282 q 229 313 185 296 q 317 348 274 331 q 402 381 361 365 q 475 410 443 397 m 358 675 q 290 802 324 739 q 219 929 256 865 l 310 929 q 323 906 314 921 q 342 876 332 892 q 362 844 353 860 q 376 821 371 829 q 394 844 382 829 q 422 876 407 860 q 449 906 436 892 q 469 929 463 921 l 558 929 q 458 802 508 865 q 358 675 407 739 z "},"ď":{"ha":747,"x_min":29,"x_max":932,"o":"m 29 254 q 56 392 29 329 q 130 500 83 454 q 238 571 176 546 q 369 596 300 596 q 445 585 413 596 q 501 560 478 575 q 538 528 524 546 q 558 496 551 510 l 629 1079 l 749 1079 l 617 0 l 497 0 l 503 43 q 506 62 504 51 q 510 79 508 72 q 474 47 494 63 q 426 17 453 31 q 365 -6 399 3 q 290 -14 332 -14 q 179 7 228 -14 q 97 65 131 28 q 47 150 64 101 q 29 254 29 199 m 150 271 q 196 151 150 199 q 318 103 242 103 q 403 119 364 103 q 472 165 443 136 q 518 231 501 193 q 535 313 535 269 q 489 432 535 385 q 364 479 443 479 q 281 463 319 479 q 213 419 242 447 q 167 352 183 390 q 150 271 150 314 m 839 796 l 781 831 q 833 901 815 858 q 849 992 851 943 l 928 1001 q 908 890 932 943 q 839 796 883 836 z "},"đ":{"ha":747,"x_min":29,"x_max":813,"o":"m 29 254 q 56 392 29 329 q 130 500 83 454 q 238 571 176 546 q 369 596 300 596 q 445 585 413 596 q 501 560 478 575 q 538 528 524 546 q 558 496 551 510 l 600 840 l 719 840 l 617 0 l 497 0 l 503 43 q 506 62 504 51 q 510 79 508 72 q 474 47 494 63 q 426 17 453 31 q 365 -6 399 3 q 290 -14 332 -14 q 179 7 228 -14 q 97 65 131 28 q 47 150 64 101 q 29 254 29 199 m 150 271 q 196 151 150 199 q 318 103 242 103 q 403 119 364 103 q 472 165 443 136 q 518 231 501 193 q 535 313 535 269 q 489 432 535 385 q 364 479 443 479 q 281 463 319 479 q 213 419 242 447 q 167 352 183 390 q 150 271 150 314 m 383 840 l 600 840 l 613 943 l 396 943 l 383 840 m 629 1079 l 749 1079 l 732 943 l 613 943 l 629 1079 m 800 840 l 813 943 l 732 943 l 719 840 l 800 840 z "},"ń":{"ha":704,"x_min":33,"x_max":638,"o":"m 104 581 l 208 581 q 204 502 206 538 q 200 432 203 467 q 306 551 242 507 q 457 596 371 596 q 591 547 544 596 q 631 422 638 499 l 579 0 l 460 0 l 506 368 q 484 444 508 413 q 400 478 460 475 q 322 463 358 478 q 258 424 286 449 q 210 364 229 399 q 186 288 192 329 l 151 0 l 33 0 l 104 581 m 342 675 q 417 768 379 721 q 492 861 454 815 l 619 861 l 432 675 l 342 675 z "},"ň":{"ha":704,"x_min":33,"x_max":638,"o":"m 104 581 l 208 581 q 204 502 206 538 q 200 432 203 467 q 306 551 242 507 q 457 596 371 596 q 591 547 544 596 q 631 422 638 499 l 579 0 l 460 0 l 506 368 q 484 444 508 413 q 400 478 460 475 q 322 463 358 478 q 258 424 286 449 q 210 364 229 399 q 186 288 192 329 l 151 0 l 33 0 l 104 581 m 399 675 q 330 802 364 739 q 260 929 296 865 l 350 929 q 363 906 354 921 q 383 876 372 892 q 403 844 393 860 q 417 821 413 829 q 435 844 422 829 q 463 876 449 860 q 490 906 476 892 q 510 929 503 921 l 599 929 q 498 802 549 865 q 399 675 447 739 z "},"ő":{"ha":699,"x_min":26,"x_max":733,"o":"m 26 257 q 55 388 26 326 q 132 496 83 450 q 244 569 181 542 q 376 596 307 596 q 486 574 436 596 q 572 516 536 553 q 626 429 607 479 q 646 324 646 379 q 619 193 646 254 q 544 86 592 132 q 434 13 497 40 q 300 -14 371 -14 q 191 6 242 -14 q 104 61 140 25 q 47 147 68 97 q 26 257 26 196 m 146 271 q 158 204 146 235 q 192 151 171 174 q 244 116 214 129 q 311 103 275 103 q 392 119 353 103 q 460 163 431 135 q 508 229 490 192 q 526 308 526 267 q 514 376 526 344 q 478 430 501 407 q 424 466 456 453 q 357 479 393 479 q 277 463 315 479 q 210 417 239 446 q 163 351 181 389 q 146 271 146 314 m 149 675 q 224 768 186 721 q 299 861 261 815 l 426 861 l 239 675 l 149 675 m 456 675 q 531 768 493 721 q 606 861 568 815 l 733 861 l 544 675 l 456 675 z "},"ř":{"ha":432,"x_min":33,"x_max":482,"o":"m 407 443 q 331 433 368 443 q 263 401 293 422 q 212 349 232 381 q 186 278 192 318 l 151 0 l 33 0 l 104 581 l 208 581 q 204 502 206 538 q 200 432 203 467 q 256 500 222 469 q 324 551 289 531 q 394 584 360 572 q 453 596 428 596 l 407 443 m 282 675 q 213 802 247 739 q 143 929 179 865 l 233 929 q 247 906 238 921 q 266 876 256 892 q 286 844 276 860 q 300 821 296 829 q 319 844 306 829 q 346 876 332 860 q 373 906 360 892 q 393 929 386 921 l 482 929 q 381 802 432 865 q 282 675 331 739 z "},"ů":{"ha":703,"x_min":40,"x_max":644,"o":"m 347 747 q 359 717 347 729 q 390 706 371 706 q 429 721 413 706 q 446 758 446 736 q 433 790 446 778 q 403 803 421 803 q 363 787 379 803 q 347 747 347 771 m 276 744 q 288 794 276 771 q 317 835 299 817 q 360 863 336 853 q 411 874 385 874 q 485 842 456 874 q 514 767 514 811 q 503 717 514 740 q 473 675 492 693 q 431 647 454 657 q 382 636 407 636 q 306 668 336 636 q 276 744 276 700 m 572 -12 l 472 -12 l 478 149 q 374 32 438 78 q 222 -14 311 -14 q 87 34 133 -14 q 47 160 40 82 l 99 581 l 217 581 l 172 213 q 194 139 169 169 q 278 104 219 108 q 356 119 319 104 q 420 158 392 133 q 467 218 449 183 q 490 294 485 253 l 525 581 l 644 581 l 572 -12 z "},"ű":{"ha":703,"x_min":40,"x_max":732,"o":"m 572 -12 l 472 -12 l 478 149 q 374 32 438 78 q 222 -14 311 -14 q 87 34 133 -14 q 47 160 40 82 l 99 581 l 217 581 l 172 213 q 194 139 169 169 q 278 104 219 108 q 356 119 319 104 q 420 158 392 133 q 467 218 449 183 q 490 294 485 253 l 525 581 l 644 581 l 572 -12 m 147 675 q 222 768 185 721 q 297 861 260 815 l 425 861 l 238 675 l 147 675 m 454 675 q 529 768 492 721 q 604 861 567 815 l 732 861 l 543 675 l 454 675 z "},"ţ":{"ha":419,"x_min":-47,"x_max":428,"o":"m 186 836 l 304 836 l 272 579 l 428 579 l 415 474 l 260 474 l 201 0 l 83 0 l 142 474 l 38 474 l 50 579 l 154 579 l 186 836 m 225 -31 l 67 -319 l -47 -319 q 24 -176 -11 -247 q 97 -31 60 -104 l 225 -31 z "},"Ħ":{"ha":1071,"x_min":63,"x_max":1096,"o":"m 83 0 l 172 719 l 63 719 l 72 800 l 182 800 l 207 1007 l 358 1007 l 333 800 l 838 800 l 863 1007 l 1015 1007 l 990 800 l 1096 800 l 1086 719 l 981 719 q 963 574 972 650 q 944 424 953 499 q 926 280 935 350 q 910 153 917 210 q 897 56 903 97 q 890 0 892 15 l 739 0 l 793 435 l 289 435 l 235 0 l 83 0 m 811 579 l 828 719 l 324 719 l 307 579 l 811 579 z "},"Ĥ":{"ha":1051,"x_min":74,"x_max":1006,"o":"m 74 0 l 197 1007 l 349 1007 l 296 579 l 800 579 l 853 1007 l 1006 1007 q 997 940 1003 989 q 983 822 992 890 q 964 672 974 754 q 943 503 954 589 q 922 335 932 418 q 903 185 913 253 q 889 67 894 117 q 881 0 883 18 l 729 0 l 782 435 l 278 435 l 225 0 l 74 0 m 638 1321 q 706 1194 671 1257 q 775 1067 740 1131 l 686 1067 q 672 1090 682 1075 q 652 1120 663 1104 q 633 1151 642 1136 q 619 1175 624 1167 q 599 1151 613 1167 q 572 1120 586 1136 q 545 1090 558 1104 q 526 1067 532 1075 l 436 1067 q 538 1194 488 1131 q 638 1321 588 1257 z "},"İ":{"ha":396,"x_min":74,"x_max":367,"o":"m 197 1007 l 349 1007 l 225 0 l 74 0 l 197 1007 m 214 1142 q 242 1202 214 1178 q 300 1226 269 1226 q 346 1206 325 1226 q 367 1156 367 1186 q 339 1096 367 1119 q 282 1072 311 1072 q 235 1092 256 1072 q 214 1142 214 1111 z "},"Ğ":{"ha":950,"x_min":61,"x_max":939,"o":"m 886 482 l 835 60 q 689 8 772 26 q 522 -11 606 -11 q 328 22 414 -11 q 183 113 243 54 q 92 251 124 171 q 61 426 61 332 q 84 590 61 513 q 148 733 107 667 q 245 851 189 799 q 368 941 301 904 q 508 998 435 978 q 658 1018 582 1018 q 733 1013 694 1018 q 808 999 771 1008 q 878 976 844 990 q 939 946 913 963 l 850 822 q 751 860 811 846 q 639 875 692 875 q 483 842 560 875 q 347 753 407 810 q 251 620 288 696 q 215 457 215 544 q 238 331 215 390 q 303 228 261 272 q 407 158 346 183 q 543 132 468 132 q 620 138 575 132 q 707 160 665 144 l 729 351 l 533 351 l 550 482 l 886 482 m 647 1064 q 563 1081 601 1064 q 498 1126 525 1097 q 458 1196 471 1156 q 449 1282 444 1236 l 517 1282 q 549 1173 510 1215 q 656 1131 588 1131 q 772 1173 724 1131 q 831 1282 819 1215 l 899 1282 q 870 1196 893 1236 q 813 1126 847 1156 q 735 1081 778 1097 q 647 1064 693 1064 z "},"Ĵ":{"ha":457,"x_min":-110,"x_max":513,"o":"m -110 -208 l -92 -65 q -1 -47 -43 -62 q 75 1 42 -31 q 130 79 108 32 q 160 192 151 126 l 260 1007 l 413 1007 l 313 188 q 265 22 301 94 q 172 -101 228 -50 q 43 -178 115 -151 q -110 -208 -29 -206 m 374 1321 q 442 1194 408 1257 q 513 1067 476 1131 l 424 1067 q 410 1090 419 1075 q 390 1120 400 1104 q 369 1151 379 1136 q 356 1175 360 1167 q 336 1151 349 1167 q 310 1120 324 1136 q 283 1090 296 1104 q 264 1067 269 1075 l 174 1067 q 274 1194 224 1131 q 374 1321 325 1257 z "},"ħ":{"ha":704,"x_min":33,"x_max":639,"o":"m 165 1079 l 283 1079 l 256 843 l 463 843 l 451 763 l 244 763 l 206 440 q 306 552 244 510 q 454 596 367 594 q 591 549 543 597 q 631 422 639 501 l 579 0 l 460 0 l 506 368 q 484 444 508 413 q 400 478 460 475 q 322 463 358 478 q 258 424 286 449 q 210 364 229 399 q 186 288 192 329 l 151 0 l 33 0 l 126 763 l 40 763 l 51 843 l 138 843 l 165 1079 z "},"ĥ":{"ha":704,"x_min":33,"x_max":675,"o":"m 165 1079 l 283 1079 l 206 440 q 306 552 244 510 q 454 596 367 594 q 591 549 543 597 q 631 422 639 501 l 579 0 l 460 0 l 506 368 q 484 444 508 413 q 400 478 460 475 q 322 463 358 478 q 258 424 286 449 q 210 364 229 399 q 186 288 192 329 l 151 0 l 33 0 l 165 1079 m 538 1321 q 606 1194 571 1257 q 675 1067 640 1131 l 586 1067 q 572 1090 582 1075 q 552 1120 563 1104 q 533 1151 542 1136 q 519 1175 524 1167 q 499 1151 513 1167 q 472 1120 486 1136 q 445 1090 458 1104 q 426 1067 432 1075 l 336 1067 q 438 1194 388 1131 q 538 1321 488 1257 z "},"ı":{"ha":281,"x_min":33,"x_max":222,"o":"m 151 0 l 33 0 l 104 581 l 222 581 l 151 0 z "},"ğ":{"ha":744,"x_min":7,"x_max":686,"o":"m 28 256 q 56 390 28 328 q 130 497 83 451 q 238 569 176 543 q 365 596 299 596 q 447 583 413 596 q 506 554 482 571 q 542 522 529 538 q 557 499 554 506 q 565 540 560 518 q 572 581 569 561 l 686 581 l 618 26 q 506 -199 600 -118 q 267 -279 411 -279 q 178 -269 217 -279 q 110 -242 140 -258 q 56 -203 81 -225 q 7 -157 31 -181 l 93 -76 q 174 -140 131 -117 q 279 -164 217 -164 q 428 -119 372 -164 q 496 4 485 -75 l 501 44 q 507 69 503 56 q 513 89 511 82 q 477 53 497 72 q 429 20 457 35 q 367 -4 401 6 q 292 -14 333 -14 q 183 7 232 -14 q 100 64 135 28 q 47 149 65 100 q 28 256 28 199 m 149 271 q 194 151 149 199 q 317 103 240 103 q 402 119 363 103 q 471 165 442 136 q 517 231 500 193 q 533 313 533 269 q 488 432 533 385 q 363 479 442 479 q 279 463 318 479 q 211 419 240 447 q 165 352 182 390 q 149 271 149 314 m 419 694 q 335 711 374 694 q 270 757 297 728 q 230 826 243 786 q 221 913 217 867 l 289 913 q 321 803 282 846 q 428 761 360 761 q 544 803 496 761 q 603 913 592 846 l 671 913 q 642 826 665 867 q 585 757 619 786 q 508 711 550 728 q 419 694 465 694 z "},"ĵ":{"ha":282,"x_min":-75,"x_max":342,"o":"m -3 -281 l -75 -192 q -3 -112 -31 -160 q 33 3 25 -64 l 104 581 l 222 581 l 151 -1 q 100 -165 140 -96 q -3 -281 60 -235 m 204 928 q 272 801 238 864 q 342 674 307 738 l 253 674 q 239 697 249 682 q 219 727 229 711 q 199 758 208 743 q 186 782 190 774 q 166 758 179 774 q 139 727 153 743 q 112 697 125 711 q 93 674 99 682 l 3 674 q 104 801 54 738 q 204 928 154 864 z "},"Ċ":{"ha":883,"x_min":63,"x_max":913,"o":"m 832 72 q 781 45 813 60 q 708 18 750 31 q 616 -3 667 6 q 510 -11 565 -11 q 318 24 401 -11 q 178 122 235 60 q 92 265 121 183 q 63 439 63 347 q 111 669 63 564 q 241 853 160 775 q 429 974 322 931 q 651 1018 536 1018 q 733 1013 692 1018 q 809 997 774 1007 q 872 974 844 988 q 913 947 899 961 q 892 919 900 931 q 876 897 885 908 q 858 869 868 885 q 831 829 847 854 q 790 850 814 842 q 741 864 767 858 q 689 872 715 869 q 640 875 663 875 q 477 842 554 875 q 342 753 400 808 q 251 624 285 697 q 217 472 217 551 q 240 349 217 408 q 304 243 263 289 q 406 170 346 197 q 540 143 465 143 q 625 151 583 143 q 700 171 667 160 q 756 193 733 182 q 785 210 779 204 l 832 72 m 565 1131 q 594 1191 565 1167 q 653 1215 622 1215 q 698 1195 678 1215 q 718 1144 718 1175 q 690 1085 718 1108 q 633 1061 663 1061 q 586 1081 607 1061 q 565 1131 565 1100 z "},"Ĉ":{"ha":883,"x_min":63,"x_max":913,"o":"m 832 72 q 781 45 813 60 q 708 18 750 31 q 616 -3 667 6 q 510 -11 565 -11 q 318 24 401 -11 q 178 122 235 60 q 92 265 121 183 q 63 439 63 347 q 111 669 63 564 q 241 853 160 775 q 429 974 322 931 q 651 1018 536 1018 q 733 1013 692 1018 q 809 997 774 1007 q 872 974 844 988 q 913 947 899 961 q 892 919 900 931 q 876 897 885 908 q 858 869 868 885 q 831 829 847 854 q 790 850 814 842 q 741 864 767 858 q 689 872 715 869 q 640 875 663 875 q 477 842 554 875 q 342 753 400 808 q 251 624 285 697 q 217 472 217 551 q 240 349 217 408 q 304 243 263 289 q 406 170 346 197 q 540 143 465 143 q 625 151 583 143 q 700 171 667 160 q 756 193 733 182 q 785 210 779 204 l 832 72 m 663 1321 q 731 1194 697 1257 q 801 1067 765 1131 l 713 1067 q 697 1090 707 1075 q 677 1120 688 1104 q 658 1151 667 1136 q 644 1175 649 1167 q 624 1151 638 1167 q 597 1120 611 1136 q 571 1090 583 1104 q 553 1067 558 1075 l 463 1067 q 563 1194 513 1131 q 663 1321 614 1257 z "},"Ġ":{"ha":950,"x_min":61,"x_max":939,"o":"m 886 482 l 835 60 q 689 8 772 26 q 522 -11 606 -11 q 328 22 414 -11 q 183 113 243 54 q 92 251 124 171 q 61 426 61 332 q 84 590 61 513 q 148 733 107 667 q 245 851 189 799 q 368 941 301 904 q 508 998 435 978 q 658 1018 582 1018 q 733 1013 694 1018 q 808 999 771 1008 q 878 976 844 990 q 939 946 913 963 l 850 822 q 751 860 811 846 q 639 875 692 875 q 483 842 560 875 q 347 753 407 810 q 251 620 288 696 q 215 457 215 544 q 238 331 215 390 q 303 228 261 272 q 407 158 346 183 q 543 132 468 132 q 620 138 575 132 q 707 160 665 144 l 729 351 l 533 351 l 550 482 l 886 482 m 551 1131 q 579 1191 551 1167 q 638 1215 607 1215 q 683 1195 663 1215 q 703 1144 703 1175 q 675 1085 703 1108 q 618 1061 647 1061 q 572 1081 592 1061 q 551 1131 551 1100 z "},"Ĝ":{"ha":950,"x_min":61,"x_max":939,"o":"m 886 482 l 835 60 q 689 8 772 26 q 522 -11 606 -11 q 328 22 414 -11 q 183 113 243 54 q 92 251 124 171 q 61 426 61 332 q 84 590 61 513 q 148 733 107 667 q 245 851 189 799 q 368 941 301 904 q 508 998 435 978 q 658 1018 582 1018 q 733 1013 694 1018 q 808 999 771 1008 q 878 976 844 990 q 939 946 913 963 l 850 822 q 751 860 811 846 q 639 875 692 875 q 483 842 560 875 q 347 753 407 810 q 251 620 288 696 q 215 457 215 544 q 238 331 215 390 q 303 228 261 272 q 407 158 346 183 q 543 132 468 132 q 620 138 575 132 q 707 160 665 144 l 729 351 l 533 351 l 550 482 l 886 482 m 682 1321 q 751 1194 717 1257 q 821 1067 785 1131 l 732 1067 q 718 1090 728 1075 q 698 1120 708 1104 q 678 1151 688 1136 q 664 1175 668 1167 q 644 1151 657 1167 q 618 1120 632 1136 q 591 1090 604 1104 q 572 1067 578 1075 l 482 1067 q 583 1194 532 1131 q 682 1321 633 1257 z "},"Ŭ":{"ha":989,"x_min":96,"x_max":954,"o":"m 443 -11 q 297 15 363 -11 q 185 90 231 42 q 117 205 139 138 q 106 356 96 272 l 186 1007 l 338 1007 l 258 360 q 265 270 253 311 q 305 198 278 229 q 372 149 332 167 q 461 132 411 132 q 554 149 510 132 q 634 198 599 167 q 692 270 669 229 q 721 360 715 311 l 800 1007 l 954 1007 l 874 356 q 826 205 864 272 q 729 90 788 138 q 597 15 671 42 q 443 -11 524 -11 m 579 1064 q 494 1081 533 1064 q 428 1126 456 1097 q 388 1196 401 1156 q 379 1282 375 1236 l 447 1282 q 481 1173 442 1215 q 588 1131 519 1131 q 703 1173 656 1131 q 761 1282 751 1215 l 829 1282 q 801 1196 824 1236 q 744 1126 778 1156 q 667 1081 710 1097 q 579 1064 625 1064 z "},"Ŝ":{"ha":786,"x_min":-6,"x_max":768,"o":"m 768 951 l 700 828 q 591 861 646 849 q 485 874 536 874 q 400 863 439 874 q 334 834 361 853 q 292 790 307 815 q 276 736 276 765 q 310 667 276 693 q 393 619 343 640 q 501 575 443 597 q 608 520 558 553 q 692 438 658 488 q 725 314 725 389 q 698 182 725 242 q 618 79 671 122 q 486 13 565 36 q 303 -11 407 -11 q 194 -3 242 -11 q 108 19 146 6 q 42 47 71 32 q -6 75 14 63 l 78 207 q 194 156 129 175 q 315 136 260 136 q 389 144 344 136 q 474 170 433 151 q 544 220 515 189 q 574 300 574 251 q 540 378 574 347 q 457 434 507 410 q 349 481 407 458 q 240 533 290 503 q 157 605 190 563 q 124 713 124 647 q 148 820 124 767 q 219 917 172 874 q 333 986 265 960 q 490 1013 401 1013 q 587 1004 540 1013 q 672 985 633 996 q 735 965 710 975 q 768 951 761 956 m 518 1321 q 587 1194 553 1257 q 657 1067 621 1131 l 568 1067 q 554 1090 564 1075 q 534 1120 544 1104 q 514 1151 524 1136 q 500 1175 504 1167 q 481 1151 493 1167 q 454 1120 468 1136 q 427 1090 440 1104 q 408 1067 414 1075 l 318 1067 q 419 1194 368 1131 q 518 1321 469 1257 z "},"ċ":{"ha":575,"x_min":26,"x_max":564,"o":"m 440 143 q 472 98 457 119 q 501 53 486 76 q 408 4 458 22 q 300 -14 357 -14 q 190 8 240 -14 q 103 67 140 29 q 47 154 67 104 q 26 261 26 204 q 55 390 26 329 q 132 496 83 450 q 243 569 181 542 q 375 596 306 596 q 481 578 433 596 q 564 529 528 560 l 476 439 q 426 469 456 458 q 360 479 396 479 q 275 463 314 479 q 208 419 236 447 q 163 352 179 390 q 146 271 146 314 q 191 151 146 200 q 314 103 236 103 q 382 113 350 103 q 440 143 414 124 m 328 796 q 356 856 328 832 q 415 881 385 881 q 460 860 440 881 q 481 810 481 840 q 453 750 481 774 q 396 726 425 726 q 349 746 369 726 q 328 796 328 765 z "},"ĉ":{"ha":575,"x_min":26,"x_max":564,"o":"m 440 143 q 472 98 457 119 q 501 53 486 76 q 408 4 458 22 q 300 -14 357 -14 q 190 8 240 -14 q 103 67 140 29 q 47 154 67 104 q 26 261 26 204 q 55 390 26 329 q 132 496 83 450 q 243 569 181 542 q 375 596 306 596 q 481 578 433 596 q 564 529 528 560 l 476 439 q 426 469 456 458 q 360 479 396 479 q 275 463 314 479 q 208 419 236 447 q 163 352 179 390 q 146 271 146 314 q 191 151 146 200 q 314 103 236 103 q 382 113 350 103 q 440 143 414 124 m 408 928 q 476 801 442 864 q 546 674 511 738 l 457 674 q 443 697 453 682 q 423 727 433 711 q 403 758 413 743 q 390 782 394 774 q 370 758 383 774 q 343 727 357 743 q 316 697 329 711 q 297 674 303 682 l 207 674 q 308 801 258 738 q 408 928 358 864 z "},"ġ":{"ha":744,"x_min":7,"x_max":686,"o":"m 28 256 q 56 390 28 328 q 130 497 83 451 q 238 569 176 543 q 365 596 299 596 q 447 583 413 596 q 506 554 482 571 q 542 522 529 538 q 557 499 554 506 q 565 540 560 518 q 572 581 569 561 l 686 581 l 618 26 q 506 -199 600 -118 q 267 -279 411 -279 q 178 -269 217 -279 q 110 -242 140 -258 q 56 -203 81 -225 q 7 -157 31 -181 l 93 -76 q 174 -140 131 -117 q 279 -164 217 -164 q 428 -119 372 -164 q 496 4 485 -75 l 501 44 q 507 69 503 56 q 513 89 511 82 q 477 53 497 72 q 429 20 457 35 q 367 -4 401 6 q 292 -14 333 -14 q 183 7 232 -14 q 100 64 135 28 q 47 149 65 100 q 28 256 28 199 m 149 271 q 194 151 149 199 q 317 103 240 103 q 402 119 363 103 q 471 165 442 136 q 517 231 500 193 q 533 313 533 269 q 488 432 533 385 q 363 479 442 479 q 279 463 318 479 q 211 419 240 447 q 165 352 182 390 q 149 271 149 314 m 356 796 q 383 856 356 832 q 442 881 411 881 q 487 860 467 881 q 507 810 507 840 q 479 750 507 774 q 422 726 451 726 q 376 746 396 726 q 356 796 356 765 z "},"ĝ":{"ha":744,"x_min":7,"x_max":686,"o":"m 28 256 q 56 390 28 328 q 130 497 83 451 q 238 569 176 543 q 365 596 299 596 q 447 583 413 596 q 506 554 482 571 q 542 522 529 538 q 557 499 554 506 q 565 540 560 518 q 572 581 569 561 l 686 581 l 618 26 q 506 -199 600 -118 q 267 -279 411 -279 q 178 -269 217 -279 q 110 -242 140 -258 q 56 -203 81 -225 q 7 -157 31 -181 l 93 -76 q 174 -140 131 -117 q 279 -164 217 -164 q 428 -119 372 -164 q 496 4 485 -75 l 501 44 q 507 69 503 56 q 513 89 511 82 q 477 53 497 72 q 429 20 457 35 q 367 -4 401 6 q 292 -14 333 -14 q 183 7 232 -14 q 100 64 135 28 q 47 149 65 100 q 28 256 28 199 m 149 271 q 194 151 149 199 q 317 103 240 103 q 402 119 363 103 q 471 165 442 136 q 517 231 500 193 q 533 313 533 269 q 488 432 533 385 q 363 479 442 479 q 279 463 318 479 q 211 419 240 447 q 165 352 182 390 q 149 271 149 314 m 414 929 q 483 802 449 865 q 553 675 517 739 l 464 675 q 450 698 460 683 q 430 728 440 713 q 410 760 419 744 q 396 783 400 775 q 376 760 389 775 q 350 728 364 744 q 323 698 336 713 q 304 675 310 683 l 214 675 q 315 802 264 739 q 414 929 365 865 z "},"ŭ":{"ha":703,"x_min":40,"x_max":644,"o":"m 572 -12 l 472 -12 l 478 149 q 374 32 438 78 q 222 -14 311 -14 q 87 34 133 -14 q 47 160 40 82 l 99 581 l 217 581 l 172 213 q 194 139 169 169 q 278 104 219 108 q 356 119 319 104 q 420 158 392 133 q 467 218 449 183 q 490 294 485 253 l 525 581 l 644 581 l 572 -12 m 386 694 q 302 711 340 694 q 237 757 264 728 q 197 826 210 786 q 188 913 183 867 l 256 913 q 288 803 249 846 q 394 761 326 761 q 510 803 463 761 q 569 913 558 846 l 638 913 q 609 826 632 867 q 551 757 586 786 q 474 711 517 728 q 386 694 432 694 z "},"ŝ":{"ha":471,"x_min":-1,"x_max":442,"o":"m 424 529 l 351 446 q 342 453 350 447 q 322 464 335 458 q 293 474 310 469 q 258 479 276 479 q 208 467 233 479 q 182 421 182 454 q 199 382 182 397 q 240 353 215 367 q 292 328 264 340 q 345 297 321 315 q 386 251 369 278 q 403 185 403 225 q 387 107 403 143 q 342 44 371 71 q 271 3 313 18 q 179 -12 229 -12 q 76 6 125 -12 q -1 61 26 25 q 23 86 8 71 q 51 115 38 101 q 73 138 64 129 q 83 147 82 147 q 92 139 83 146 q 117 124 101 132 q 153 110 133 117 q 194 104 174 104 q 257 122 231 104 q 283 171 283 140 q 267 207 283 193 q 225 233 250 221 q 172 256 200 244 q 118 287 143 268 q 76 333 93 306 q 60 404 60 361 q 80 493 60 457 q 131 552 100 529 q 198 585 161 575 q 268 594 235 594 q 352 578 308 594 q 424 529 396 561 m 304 929 q 372 802 338 865 q 442 675 407 739 l 353 675 q 339 698 349 683 q 319 728 329 713 q 299 760 308 744 q 286 783 290 775 q 266 760 279 775 q 239 728 253 744 q 212 698 225 713 q 193 675 199 683 l 103 675 q 204 802 154 739 q 304 929 254 865 z "},"œ":{"ha":986,"x_min":26,"x_max":967,"o":"m 879 68 q 771 8 833 31 q 646 -14 708 -14 q 479 38 547 -14 q 300 -14 400 -14 q 191 6 242 -14 q 104 61 140 25 q 47 147 68 97 q 26 257 26 196 q 55 388 26 326 q 132 496 83 450 q 244 569 181 542 q 376 596 307 596 q 467 582 425 596 q 542 544 508 568 q 626 582 582 568 q 717 596 669 596 q 881 537 815 596 q 967 382 947 478 q 863 344 921 367 q 742 298 804 322 q 617 250 679 274 q 500 207 554 226 q 560 131 519 160 q 657 103 601 103 q 734 117 694 103 q 801 154 774 131 l 879 68 m 357 479 q 277 463 315 479 q 210 417 239 446 q 163 351 181 389 q 146 271 146 314 q 158 204 146 235 q 192 151 171 174 q 244 116 214 129 q 311 103 275 103 q 404 124 363 103 q 381 188 389 151 q 372 260 372 224 q 392 364 372 315 q 444 457 411 413 q 357 479 404 479 m 821 410 q 774 462 808 444 q 703 479 740 479 q 623 463 661 479 q 556 419 585 446 q 510 358 526 392 q 493 289 493 324 l 493 282 q 575 313 531 296 q 663 348 619 331 q 748 381 707 365 q 821 410 789 397 z "},"Œ":{"ha":1326,"x_min":63,"x_max":1332,"o":"m 517 -11 q 335 25 418 -11 q 192 124 253 61 q 97 271 131 186 q 63 451 63 356 q 110 668 63 565 q 239 849 158 771 q 424 972 319 926 q 643 1018 529 1018 q 743 1007 694 1018 l 1332 1007 l 1315 869 l 847 869 l 811 575 l 1222 575 l 1206 435 l 794 435 l 758 140 l 1246 140 l 1228 0 l 624 0 q 517 -11 568 -11 m 626 872 q 470 840 544 872 q 340 751 396 807 q 249 622 283 696 q 215 464 215 547 q 240 334 215 394 q 307 228 264 274 q 409 158 350 183 q 538 132 468 132 q 572 133 554 132 q 607 138 589 135 l 696 865 q 662 870 679 868 q 626 872 644 872 z "},"Ÿ":{"ha":908,"x_min":79,"x_max":976,"o":"m 522 332 l 482 0 l 329 0 l 369 332 q 340 399 363 347 q 288 520 318 450 q 225 669 258 590 q 162 819 192 749 q 109 940 132 889 q 79 1007 86 992 l 251 1007 q 272 961 258 993 q 303 887 285 929 q 341 794 321 844 q 381 693 361 743 q 420 597 401 643 q 453 514 439 550 l 463 468 q 475 491 469 479 q 486 514 481 503 q 540 597 510 550 q 602 693 569 643 q 667 794 635 743 q 726 887 699 844 q 774 961 753 929 q 806 1007 796 993 l 976 1007 l 522 332 m 603 1144 q 611 1179 603 1163 q 632 1207 619 1196 q 660 1225 644 1218 q 692 1232 676 1232 q 738 1213 718 1232 q 758 1161 758 1193 q 731 1099 758 1124 q 672 1075 703 1075 q 624 1094 644 1075 q 603 1144 603 1114 m 339 1144 q 347 1179 339 1163 q 368 1207 356 1196 q 397 1225 381 1218 q 429 1232 413 1232 q 475 1212 454 1232 q 496 1161 496 1192 q 467 1099 496 1124 q 410 1075 439 1075 q 360 1094 382 1075 q 339 1144 339 1114 z "},"Ẽ":{"ha":853,"x_min":74,"x_max":858,"o":"m 74 0 l 197 1007 l 858 1007 l 842 869 l 333 869 l 297 575 l 750 575 l 732 435 l 279 435 l 243 140 l 771 140 l 754 0 l 74 0 m 543 1135 q 510 1163 524 1156 q 476 1171 496 1171 q 431 1158 457 1171 q 394 1107 404 1146 l 326 1111 q 347 1164 332 1140 q 383 1204 363 1188 q 428 1230 404 1221 q 474 1239 451 1239 q 531 1226 507 1239 q 575 1192 556 1214 q 610 1164 594 1171 q 644 1157 625 1157 q 690 1169 664 1157 q 726 1221 715 1181 l 793 1217 q 772 1165 788 1188 q 736 1125 757 1142 q 692 1099 715 1108 q 647 1090 668 1090 q 543 1135 585 1090 z "},"Ŗ":{"ha":869,"x_min":74,"x_max":807,"o":"m 74 0 l 197 1007 l 472 1007 q 604 988 544 1007 q 706 934 664 969 q 772 847 749 899 q 796 728 796 794 q 785 637 796 683 q 751 547 774 590 q 691 465 728 503 q 603 401 654 428 q 701 208 647 314 q 807 0 754 101 l 625 0 q 578 90 603 43 q 531 184 554 138 q 484 276 507 231 q 440 360 461 321 l 413 360 l 271 360 l 226 0 l 74 0 m 288 503 l 425 503 q 528 524 486 503 q 594 577 569 546 q 631 643 619 608 q 642 704 642 678 q 633 758 642 729 q 606 810 625 786 q 553 850 586 835 q 471 865 521 865 l 332 865 l 288 503 m 474 -31 l 317 -319 l 203 -319 q 274 -176 239 -247 q 346 -31 310 -104 l 474 -31 z "},"Ĩ":{"ha":396,"x_min":57,"x_max":522,"o":"m 197 1007 l 349 1007 l 225 0 l 74 0 l 197 1007 m 274 1108 q 240 1137 254 1129 q 206 1144 225 1144 q 160 1132 186 1144 q 125 1081 133 1119 l 57 1085 q 78 1138 63 1114 q 113 1178 93 1161 q 157 1203 133 1194 q 203 1213 181 1213 q 261 1200 236 1213 q 306 1165 286 1188 q 340 1138 325 1144 q 375 1131 356 1131 q 420 1142 394 1131 q 457 1194 446 1154 l 522 1190 q 503 1138 518 1161 q 467 1099 488 1115 q 422 1073 446 1082 q 378 1064 399 1064 q 274 1108 315 1064 z "},"Ļ":{"ha":786,"x_min":74,"x_max":744,"o":"m 74 0 l 197 1007 l 350 1007 l 244 144 l 744 144 l 726 0 l 74 0 m 507 -31 l 350 -319 l 236 -319 q 308 -176 272 -247 q 379 -31 343 -104 l 507 -31 z "},"Ē":{"ha":853,"x_min":74,"x_max":858,"o":"m 74 0 l 197 1007 l 858 1007 l 842 869 l 333 869 l 297 575 l 750 575 l 732 435 l 279 435 l 243 140 l 771 140 l 754 0 l 74 0 m 386 1074 l 396 1154 l 721 1154 l 711 1074 l 386 1074 z "},"Ģ":{"ha":950,"x_min":61,"x_max":939,"o":"m 886 482 l 835 60 q 689 8 772 26 q 522 -11 606 -11 q 328 22 414 -11 q 183 113 243 54 q 92 251 124 171 q 61 426 61 332 q 84 590 61 513 q 148 733 107 667 q 245 851 189 799 q 368 941 301 904 q 508 998 435 978 q 658 1018 582 1018 q 733 1013 694 1018 q 808 999 771 1008 q 878 976 844 990 q 939 946 913 963 l 850 822 q 751 860 811 846 q 639 875 692 875 q 483 842 560 875 q 347 753 407 810 q 251 620 288 696 q 215 457 215 544 q 238 331 215 390 q 303 228 261 272 q 407 158 346 183 q 543 132 468 132 q 620 138 575 132 q 707 160 665 144 l 729 351 l 533 351 l 550 482 l 886 482 m 554 -31 l 396 -319 l 282 -319 q 353 -176 318 -247 q 426 -31 389 -104 l 554 -31 z "},"Ŧ":{"ha":761,"x_min":110,"x_max":782,"o":"m 240 613 l 250 693 l 338 693 l 358 863 l 110 863 l 128 1007 l 782 1007 l 764 863 l 510 863 l 489 693 l 575 693 l 565 613 l 479 613 l 404 0 l 253 0 l 328 613 l 240 613 z "},"ŗ":{"ha":431,"x_min":-31,"x_max":451,"o":"m 406 443 q 329 433 367 443 q 261 401 292 422 q 210 349 231 381 q 185 278 190 318 l 150 0 l 32 0 l 104 581 l 208 581 q 203 502 206 538 q 199 432 201 467 q 254 500 221 469 q 323 551 288 531 q 392 584 358 572 q 451 596 426 596 l 406 443 m 242 -31 l 83 -319 l -31 -319 q 41 -176 6 -247 q 114 -31 76 -104 l 242 -31 z "},"ē":{"ha":640,"x_min":26,"x_max":621,"o":"m 533 68 q 425 8 488 31 q 300 -14 363 -14 q 190 8 240 -14 q 103 66 140 29 q 47 153 67 103 q 26 260 26 203 q 55 389 26 328 q 131 496 83 450 q 242 569 179 542 q 371 596 304 596 q 535 537 469 596 q 621 382 601 478 q 517 344 575 367 q 396 298 458 322 q 271 250 333 274 q 154 207 208 226 q 215 131 174 160 q 311 103 256 103 q 388 117 349 103 q 456 154 428 131 l 533 68 m 475 410 q 428 462 463 444 q 357 479 394 479 q 277 463 315 479 q 210 419 239 446 q 164 358 181 392 q 147 289 147 324 l 147 282 q 229 313 185 296 q 317 348 274 331 q 402 381 361 365 q 475 410 443 397 m 224 671 l 233 751 l 558 751 l 549 671 l 224 671 z "},"ģ":{"ha":744,"x_min":7,"x_max":686,"o":"m 28 256 q 56 390 28 328 q 130 497 83 451 q 238 569 176 543 q 365 596 299 596 q 447 583 413 596 q 506 554 482 571 q 542 522 529 538 q 557 499 554 506 q 565 540 560 518 q 572 581 569 561 l 686 581 l 618 26 q 506 -199 600 -118 q 267 -279 411 -279 q 178 -269 217 -279 q 110 -242 140 -258 q 56 -203 81 -225 q 7 -157 31 -181 l 93 -76 q 174 -140 131 -117 q 279 -164 217 -164 q 428 -119 372 -164 q 496 4 485 -75 l 501 44 q 507 69 503 56 q 513 89 511 82 q 477 53 497 72 q 429 20 457 35 q 367 -4 401 6 q 292 -14 333 -14 q 183 7 232 -14 q 100 64 135 28 q 47 149 65 100 q 28 256 28 199 m 149 271 q 194 151 149 199 q 317 103 240 103 q 402 119 363 103 q 471 165 442 136 q 517 231 500 193 q 533 313 533 269 q 488 432 533 385 q 363 479 442 479 q 279 463 318 479 q 211 419 240 447 q 165 352 182 390 q 149 271 149 314 m 340 704 l 499 993 l 613 993 q 541 849 576 921 q 468 704 506 778 l 340 704 z "},"ŧ":{"ha":419,"x_min":38,"x_max":428,"o":"m 82 671 l 93 751 l 176 751 l 186 836 l 304 836 l 294 751 l 418 751 l 407 671 l 283 671 l 272 579 l 428 579 l 415 474 l 260 474 l 201 0 l 83 0 l 142 474 l 38 474 l 50 579 l 154 579 l 165 671 l 82 671 z "},"Ā":{"ha":899,"x_min":-47,"x_max":849,"o":"m 849 0 q 828 70 843 19 q 790 193 813 121 q 742 351 768 265 q 690 526 717 438 q 636 702 663 615 q 588 860 610 789 q 551 983 567 932 q 531 1054 536 1035 l -47 0 l 103 0 l 258 289 l 614 289 q 641 195 628 240 q 665 112 654 150 q 685 44 676 74 q 699 0 694 15 l 849 0 m 471 686 q 479 706 472 689 q 492 736 486 722 q 496 706 493 722 q 500 686 499 689 q 512 644 504 671 q 530 583 519 618 q 553 505 540 547 q 578 417 565 463 l 326 417 l 471 686 m 371 1090 l 382 1171 l 707 1171 l 696 1090 l 371 1090 z "},"Į":{"ha":396,"x_min":-65,"x_max":349,"o":"m 197 1007 l 349 1007 l 225 0 l 74 0 l 197 1007 m 151 0 l 74 0 l 72 -10 q 62 -42 69 -31 q 45 -62 54 -54 q 25 -74 36 -69 q 4 -86 14 -79 q -51 -147 -36 -114 q -65 -219 -65 -179 q -57 -270 -65 -246 q -32 -314 -49 -294 q 10 -345 -15 -333 q 69 -357 35 -357 q 162 -330 118 -357 q 232 -247 206 -303 q 199 -230 217 -239 q 167 -211 182 -221 q 139 -248 158 -233 q 92 -262 119 -262 q 47 -244 61 -262 q 32 -197 32 -225 q 49 -148 32 -165 q 85 -117 65 -131 q 124 -89 106 -103 q 144 -50 142 -75 l 151 0 z "},"ĩ":{"ha":282,"x_min":-51,"x_max":414,"o":"m 151 0 l 33 0 l 104 581 l 222 581 l 151 0 m 165 707 q 131 735 146 728 q 97 743 117 743 q 51 731 78 743 q 17 679 25 718 l -51 683 q -31 736 -46 713 q 5 776 -15 760 q 49 802 25 793 q 94 811 72 811 q 153 799 128 811 q 197 764 178 786 q 232 736 217 743 q 267 729 247 729 q 312 741 286 729 q 349 793 338 753 l 414 789 q 394 737 410 760 q 358 697 379 714 q 314 672 338 681 q 269 663 290 663 q 165 707 207 663 z "},"ļ":{"ha":283,"x_min":-115,"x_max":285,"o":"m 151 0 l 33 0 l 167 1079 l 285 1079 l 151 0 m 157 -31 l -1 -319 l -115 -319 q -44 -176 -79 -247 q 29 -31 -8 -104 l 157 -31 z "},"Ė":{"ha":853,"x_min":74,"x_max":858,"o":"m 74 0 l 197 1007 l 858 1007 l 842 869 l 333 869 l 297 575 l 750 575 l 732 435 l 279 435 l 243 140 l 771 140 l 754 0 l 74 0 m 471 1131 q 478 1164 471 1149 q 499 1190 486 1179 q 526 1208 511 1201 q 557 1215 542 1215 q 603 1195 583 1215 q 624 1144 624 1175 q 596 1085 624 1108 q 539 1061 568 1061 q 492 1081 513 1061 q 471 1131 471 1100 z "},"Ī":{"ha":396,"x_min":74,"x_max":461,"o":"m 197 1007 l 349 1007 l 225 0 l 74 0 l 197 1007 m 125 1090 l 136 1171 l 461 1171 l 450 1090 l 125 1090 z "},"Ņ":{"ha":1126,"x_min":74,"x_max":1081,"o":"m 1081 1007 l 951 -46 q 886 35 935 -21 q 774 162 838 90 q 638 313 710 233 q 503 465 567 393 q 392 592 439 536 q 331 672 344 647 l 310 708 l 308 664 l 226 0 l 74 0 l 203 1054 q 268 974 219 1029 q 381 847 317 918 q 516 699 444 776 q 651 551 588 621 q 762 426 714 481 q 826 347 810 371 l 847 308 l 849 356 l 929 1007 l 1081 1007 m 590 -31 l 433 -319 l 319 -319 q 391 -176 356 -247 q 463 -31 426 -104 l 590 -31 z "},"Ķ":{"ha":896,"x_min":74,"x_max":963,"o":"m 671 0 q 592 119 629 63 q 519 233 556 176 q 447 349 483 290 q 369 469 410 407 q 329 434 349 450 q 289 401 310 418 q 266 201 276 294 q 242 0 256 107 l 74 0 l 197 1007 l 365 1007 l 319 631 q 314 606 317 618 q 308 582 311 594 q 324 599 317 592 q 342 618 332 607 q 556 812 451 711 q 769 1007 660 913 l 963 1007 q 729 789 844 899 q 496 571 614 679 q 591 426 546 496 q 679 286 636 356 q 766 146 722 217 q 858 0 810 75 l 671 0 m 513 -31 l 356 -319 l 242 -319 q 313 -176 278 -247 q 385 -31 349 -104 l 513 -31 z "},"ņ":{"ha":704,"x_min":33,"x_max":638,"o":"m 104 581 l 208 581 q 204 502 206 538 q 200 432 203 467 q 306 551 242 507 q 457 596 371 596 q 591 547 544 596 q 631 422 638 499 l 579 0 l 460 0 l 506 368 q 484 444 508 413 q 400 478 460 475 q 322 463 358 478 q 258 424 286 449 q 210 364 229 399 q 186 288 192 329 l 151 0 l 33 0 l 104 581 m 376 -31 l 219 -319 l 106 -319 q 177 -176 142 -247 q 249 -31 213 -104 l 376 -31 z "},"ķ":{"ha":610,"x_min":33,"x_max":581,"o":"m 519 596 l 581 525 q 469 431 522 476 q 357 335 415 385 q 458 167 408 251 q 558 0 508 83 l 422 0 q 343 128 383 65 q 264 257 303 192 l 174 183 l 151 0 l 33 0 l 165 1079 l 283 1079 l 190 322 q 356 459 278 393 q 519 596 435 525 m 376 -31 l 219 -319 l 106 -319 q 177 -176 142 -247 q 249 -31 213 -104 l 376 -31 z "},"Ō":{"ha":1132,"x_min":51,"x_max":1097,"o":"m 64 503 q 128 701 76 607 q 259 865 181 794 q 436 977 338 936 q 642 1018 535 1018 q 823 981 739 1018 q 967 881 907 944 q 1063 733 1028 817 q 1097 553 1097 649 q 1049 335 1097 438 q 919 156 1000 233 q 734 34 839 79 q 515 -11 629 -11 q 320 29 408 -11 q 170 140 232 69 q 80 303 108 210 q 64 503 51 396 m 215 501 q 226 358 206 425 q 291 240 247 290 q 398 161 335 190 q 536 132 461 132 q 691 165 617 132 q 822 253 765 197 q 912 383 878 308 q 946 540 946 457 q 922 670 946 610 q 855 776 897 731 q 753 847 813 821 q 625 872 694 872 q 480 843 550 872 q 354 764 410 814 q 262 646 299 714 q 215 501 225 578 m 492 1090 l 503 1171 l 828 1171 l 817 1090 l 492 1090 z "},"Ū":{"ha":989,"x_min":96,"x_max":954,"o":"m 443 -11 q 297 15 363 -11 q 185 90 231 42 q 117 205 139 138 q 106 356 96 272 l 186 1007 l 338 1007 l 258 360 q 265 270 253 311 q 305 198 278 229 q 372 149 332 167 q 461 132 411 132 q 554 149 510 132 q 634 198 599 167 q 692 270 669 229 q 721 360 715 311 l 800 1007 l 954 1007 l 874 356 q 826 205 864 272 q 729 90 788 138 q 597 15 671 42 q 443 -11 524 -11 m 419 1090 l 431 1171 l 756 1171 l 744 1090 l 419 1090 z "},"ō":{"ha":699,"x_min":21,"x_max":646,"o":"m 29 292 q 68 410 38 354 q 146 506 99 465 q 252 572 193 547 q 376 596 311 596 q 486 574 436 596 q 572 516 536 553 q 626 429 607 479 q 646 324 646 379 q 619 193 646 254 q 544 86 592 132 q 434 13 497 40 q 300 -14 371 -14 q 183 8 236 -14 q 92 71 129 31 q 38 167 56 111 q 29 292 21 224 m 147 290 q 152 217 142 251 q 185 158 163 183 q 240 117 207 132 q 311 103 272 103 q 392 119 353 103 q 460 163 431 135 q 508 229 490 192 q 526 308 526 267 q 514 376 526 344 q 478 430 501 407 q 424 466 456 453 q 357 479 393 479 q 282 465 318 479 q 217 424 246 450 q 170 364 189 399 q 147 290 151 329 m 231 671 l 240 751 l 565 751 l 556 671 l 231 671 z "},"ū":{"ha":703,"x_min":40,"x_max":644,"o":"m 572 -12 l 472 -12 l 478 149 q 374 32 438 78 q 222 -14 311 -14 q 87 34 133 -14 q 47 160 40 82 l 99 581 l 217 581 l 172 213 q 194 139 169 169 q 278 104 219 108 q 356 119 319 104 q 420 158 392 133 q 467 218 449 183 q 490 294 485 253 l 525 581 l 644 581 l 572 -12 m 219 671 l 229 751 l 554 751 l 544 671 l 219 671 z "},"ā":{"ha":744,"x_min":26,"x_max":685,"o":"m 26 256 q 55 385 26 324 q 131 494 83 447 q 242 568 179 540 q 371 596 304 596 q 446 585 413 596 q 502 560 479 575 q 538 528 525 544 q 556 499 551 511 l 571 581 l 685 581 l 614 0 l 494 0 l 504 74 q 478 47 496 63 q 435 19 461 32 q 375 -4 410 6 q 297 -14 340 -14 q 186 8 236 -14 q 101 66 136 29 q 46 152 65 103 q 26 256 26 201 m 147 271 q 193 151 147 199 q 315 103 239 103 q 401 119 361 103 q 469 165 440 136 q 515 231 499 193 q 532 313 532 269 q 486 432 532 385 q 361 479 440 479 q 278 463 317 479 q 210 419 239 447 q 164 352 181 390 q 147 271 147 314 m 246 671 l 256 751 l 581 751 l 571 671 l 246 671 z "},"Ų":{"ha":989,"x_min":96,"x_max":954,"o":"m 501 0 l 424 0 l 424 -10 q 284 21 347 -7 q 178 96 221 49 q 115 209 135 143 q 106 356 96 275 l 186 1007 l 338 1007 l 258 360 q 265 270 253 311 q 305 198 278 229 q 372 149 332 167 q 461 132 411 132 q 554 149 510 132 q 634 198 599 167 q 692 270 669 229 q 721 360 715 311 l 800 1007 l 954 1007 l 874 356 q 831 217 864 281 q 749 107 799 154 q 635 31 699 60 q 501 -7 572 1 l 501 0 m 443 -11 q 433 -10 438 -11 q 424 -10 429 -10 q 414 -42 421 -31 q 397 -62 407 -54 q 376 -74 388 -69 q 356 -86 365 -79 q 301 -147 315 -114 q 286 -219 286 -179 q 294 -270 286 -246 q 319 -314 303 -294 q 361 -345 336 -333 q 421 -357 386 -357 q 513 -330 469 -357 q 583 -247 557 -303 q 551 -230 568 -239 q 518 -211 533 -221 q 489 -248 508 -233 q 442 -262 469 -262 q 397 -244 413 -262 q 382 -197 382 -225 q 399 -148 382 -165 q 436 -117 415 -131 q 475 -89 457 -103 q 496 -50 493 -75 l 501 -7 q 443 -11 472 -11 z "},"ī":{"ha":282,"x_min":13,"x_max":347,"o":"m 151 0 l 33 0 l 104 581 l 222 581 l 151 0 m 13 671 l 22 751 l 347 751 l 338 671 l 13 671 z "},"ų":{"ha":704,"x_min":40,"x_max":644,"o":"m 549 0 l 472 0 l 478 149 q 374 32 438 78 q 222 -14 311 -14 q 87 34 133 -14 q 47 160 40 82 l 99 581 l 217 581 l 172 213 q 194 139 169 169 q 278 104 219 108 q 356 119 319 104 q 420 158 392 133 q 467 218 449 183 q 490 294 485 253 l 525 581 l 644 581 l 572 -12 l 547 -12 l 549 0 m 472 0 l 471 0 l 469 -10 q 459 -42 467 -31 q 442 -62 451 -54 q 422 -74 433 -69 q 401 -86 411 -79 q 347 -147 361 -114 q 332 -219 332 -179 q 340 -270 332 -246 q 365 -314 349 -294 q 407 -345 382 -333 q 467 -357 432 -357 q 560 -330 515 -357 q 629 -247 604 -303 q 597 -230 614 -239 q 564 -211 579 -221 q 536 -248 556 -233 q 489 -262 517 -262 q 444 -244 458 -262 q 429 -197 429 -225 q 446 -148 429 -165 q 483 -117 463 -131 q 522 -89 504 -103 q 543 -50 540 -75 l 547 -12 l 472 -12 l 472 0 z "},"Ũ":{"ha":989,"x_min":96,"x_max":954,"o":"m 443 -11 q 297 15 363 -11 q 185 90 231 42 q 117 205 139 138 q 106 356 96 272 l 186 1007 l 338 1007 l 258 360 q 265 270 253 311 q 305 198 278 229 q 372 149 332 167 q 461 132 411 132 q 554 149 510 132 q 634 198 599 167 q 692 270 669 229 q 721 360 715 311 l 800 1007 l 954 1007 l 874 356 q 826 205 864 272 q 729 90 788 138 q 597 15 671 42 q 443 -11 524 -11 m 574 1108 q 540 1137 554 1129 q 506 1144 525 1144 q 460 1132 486 1144 q 425 1081 433 1119 l 357 1085 q 378 1138 363 1114 q 413 1178 393 1161 q 457 1203 433 1194 q 503 1213 481 1213 q 561 1200 536 1213 q 606 1165 586 1188 q 640 1138 625 1144 q 675 1131 656 1131 q 720 1142 694 1131 q 757 1194 746 1154 l 822 1190 q 803 1138 818 1161 q 767 1099 788 1115 q 722 1073 746 1082 q 678 1064 699 1064 q 574 1108 615 1064 z "},"ũ":{"ha":703,"x_min":40,"x_max":644,"o":"m 572 -12 l 472 -12 l 478 149 q 374 32 438 78 q 222 -14 311 -14 q 87 34 133 -14 q 47 160 40 82 l 99 581 l 217 581 l 172 213 q 194 139 169 169 q 278 104 219 108 q 356 119 319 104 q 420 158 392 133 q 467 218 449 183 q 490 294 485 253 l 525 581 l 644 581 l 572 -12 m 388 707 q 353 735 368 728 q 319 743 339 743 q 274 731 300 743 q 238 679 247 718 l 169 683 q 190 736 175 713 q 226 776 206 760 q 271 802 247 793 q 317 811 294 811 q 375 799 350 811 q 419 764 400 786 q 453 736 439 743 q 488 729 468 729 q 533 741 507 729 q 569 793 558 753 l 636 789 q 615 737 631 760 q 580 697 600 714 q 536 672 560 681 q 492 663 513 663 q 388 707 429 663 z "},"ė":{"ha":640,"x_min":26,"x_max":621,"o":"m 533 68 q 425 8 488 31 q 300 -14 363 -14 q 190 8 240 -14 q 103 66 140 29 q 47 153 67 103 q 26 260 26 203 q 55 389 26 328 q 131 496 83 450 q 242 569 179 542 q 371 596 304 596 q 535 537 469 596 q 621 382 601 478 q 517 344 575 367 q 396 298 458 322 q 271 250 333 274 q 154 207 208 226 q 215 131 174 160 q 311 103 256 103 q 388 117 349 103 q 456 154 428 131 l 533 68 m 475 410 q 428 462 463 444 q 357 479 394 479 q 277 463 315 479 q 210 419 239 446 q 164 358 181 392 q 147 289 147 324 l 147 282 q 229 313 185 296 q 317 348 274 331 q 402 381 361 365 q 475 410 443 397 m 318 796 q 346 856 318 832 q 404 881 374 881 q 449 860 429 881 q 469 810 469 840 q 442 750 469 774 q 385 726 414 726 q 338 746 358 726 q 318 796 318 765 z "},"į":{"ha":281,"x_min":-106,"x_max":268,"o":"m 115 796 q 144 856 115 832 q 203 881 172 881 q 248 860 228 881 q 268 810 268 840 q 240 750 268 774 q 183 726 213 726 q 136 746 157 726 q 115 796 115 765 m 151 0 l 33 0 l 104 581 l 222 581 l 151 0 m 111 0 l 33 0 l 32 -10 q 22 -42 29 -31 q 5 -62 14 -54 q -15 -74 -4 -69 q -36 -86 -26 -79 q -91 -147 -76 -114 q -106 -219 -106 -179 q -97 -270 -106 -246 q -72 -314 -89 -294 q -31 -345 -56 -333 q 29 -357 -6 -357 q 122 -330 78 -357 q 192 -247 165 -303 q 159 -230 176 -239 q 126 -211 142 -221 q 99 -248 118 -233 q 51 -262 79 -262 q 6 -244 21 -262 q -8 -197 -8 -225 q 8 -148 -8 -165 q 45 -117 25 -131 q 83 -89 65 -103 q 104 -50 101 -75 l 111 0 z "},"…":{"ha":763,"x_min":36,"x_max":653,"o":"m 36 69 q 44 103 36 88 q 65 131 53 119 q 94 150 78 143 q 126 157 110 157 q 172 136 151 157 q 193 85 193 115 q 165 24 193 47 q 107 0 136 0 q 58 19 79 0 q 36 69 36 38 m 267 69 q 275 103 267 88 q 296 131 283 119 q 324 150 308 143 q 356 157 340 157 q 402 137 382 157 q 422 85 422 117 q 394 24 422 47 q 336 0 367 0 q 288 19 308 0 q 267 69 267 38 m 497 69 q 506 103 497 88 q 526 131 514 119 q 555 150 539 143 q 586 157 571 157 q 633 137 613 157 q 653 85 653 117 q 625 24 653 47 q 567 0 597 0 q 518 19 539 0 q 497 69 497 38 z "},"‰":{"ha":1447,"x_min":72,"x_max":1369,"o":"m 679 150 q 691 113 679 128 q 726 99 703 99 q 772 117 756 99 q 789 164 789 136 q 776 199 789 185 q 740 213 764 213 q 696 194 713 213 q 679 150 679 176 m 711 -25 q 647 -12 676 -25 q 595 22 617 0 q 561 73 574 43 q 549 138 549 103 q 566 214 549 178 q 612 277 583 250 q 678 320 640 304 q 756 336 715 336 q 819 324 790 336 q 871 289 849 311 q 906 237 893 267 q 918 174 918 207 q 901 96 918 132 q 854 33 883 60 q 788 -10 825 6 q 711 -25 750 -25 m 200 540 q 213 505 200 519 q 250 490 226 490 q 294 509 278 490 q 311 554 311 528 q 299 590 311 576 q 264 604 288 604 q 217 586 235 604 q 200 540 200 568 m 235 367 q 170 379 200 367 q 119 414 140 392 q 85 466 97 436 q 72 531 72 496 q 90 606 72 571 q 135 669 107 642 q 201 712 164 696 q 279 728 239 728 q 343 715 314 728 q 394 681 372 703 q 428 629 415 658 q 440 567 440 600 q 423 489 440 525 q 377 426 406 453 q 311 383 349 399 q 235 367 274 367 m 169 0 q 424 352 297 178 q 676 704 550 526 l 817 704 q 563 352 690 526 q 310 0 436 178 l 169 0 m 1131 150 q 1142 113 1131 128 q 1178 99 1154 99 q 1224 117 1207 99 q 1240 164 1240 136 q 1228 199 1240 185 q 1192 213 1215 213 q 1147 194 1164 213 q 1131 150 1131 176 m 1163 -25 q 1098 -12 1128 -25 q 1047 22 1068 0 q 1013 73 1025 43 q 1000 138 1000 103 q 1017 214 1000 178 q 1063 277 1035 250 q 1129 320 1092 304 q 1207 336 1167 336 q 1271 324 1242 336 q 1322 289 1300 311 q 1357 237 1344 267 q 1369 174 1369 207 q 1352 96 1369 132 q 1306 33 1335 60 q 1239 -10 1276 6 q 1163 -25 1201 -25 z "},"ˆ":{"ha":625,"x_min":240,"x_max":579,"o":"m 440 929 q 509 802 475 865 q 579 675 543 739 l 490 675 q 476 698 486 683 q 456 728 467 713 q 437 760 446 744 q 424 783 428 775 q 403 760 417 775 q 376 728 390 744 q 349 698 363 713 q 331 675 336 683 l 240 675 q 341 802 290 739 q 440 929 392 865 z "},"˜":{"ha":831,"x_min":306,"x_max":771,"o":"m 522 707 q 488 735 503 728 q 454 743 474 743 q 408 731 435 743 q 374 679 382 718 l 306 683 q 326 736 311 713 q 362 776 342 760 q 406 802 382 793 q 451 811 429 811 q 510 799 485 811 q 554 764 535 786 q 589 736 574 743 q 624 729 604 729 q 669 741 643 729 q 706 793 694 753 l 771 789 q 751 737 767 760 q 715 697 736 714 q 671 672 694 681 q 626 663 647 663 q 522 707 564 663 z "},"ﬁ":{"ha":782,"x_min":42,"x_max":724,"o":"m 42 464 l 56 581 l 154 581 l 171 717 q 290 987 193 899 q 543 1079 386 1075 l 529 965 q 363 896 421 960 q 290 714 306 832 l 274 581 l 724 581 l 653 0 l 533 0 l 590 464 l 260 464 l 203 0 l 83 0 l 140 464 l 42 464 z "},"ﬂ":{"ha":764,"x_min":42,"x_max":765,"o":"m 42 465 l 56 582 l 154 582 l 171 717 q 290 987 193 899 q 543 1079 386 1075 l 765 1079 l 633 0 l 515 0 l 633 965 l 529 965 q 363 896 421 960 q 290 714 306 832 l 274 582 l 457 582 l 443 465 l 260 465 l 203 0 l 83 0 l 140 465 l 42 465 z "},"˚":{"ha":722,"x_min":360,"x_max":597,"o":"m 431 747 q 442 717 431 729 q 474 706 454 706 q 513 721 496 706 q 529 758 529 736 q 517 790 529 778 q 486 803 504 803 q 447 787 463 803 q 431 747 431 771 m 360 744 q 371 794 360 771 q 401 835 382 817 q 444 863 419 853 q 494 874 468 874 q 568 842 539 874 q 597 767 597 811 q 586 717 597 740 q 556 675 575 693 q 514 647 538 657 q 465 636 490 636 q 390 668 419 636 q 360 744 360 700 z "},"⁄":{"ha":501,"x_min":-57,"x_max":593,"o":"m -57 0 q 203 531 74 267 q 465 1063 333 796 l 593 1063 l 71 0 l -57 0 z "},"ƒ":{"ha":504,"x_min":-133,"x_max":563,"o":"m 278 465 l 238 132 q 119 -139 215 -51 q -133 -232 24 -226 l -119 -118 q 46 -47 -11 -111 q 118 135 103 17 l 158 465 l 61 465 l 75 582 l 174 582 l 190 717 q 308 987 213 899 q 563 1079 404 1075 l 549 965 q 383 896 440 960 q 310 714 325 832 l 293 582 l 476 582 l 463 465 l 278 465 z "},"†":{"ha":483,"x_min":92,"x_max":439,"o":"m 131 3 l 194 528 l 92 528 l 107 651 l 210 651 l 235 854 l 363 854 l 338 651 l 439 651 l 424 528 l 322 528 l 258 3 l 131 3 z "},"‡":{"ha":538,"x_min":47,"x_max":481,"o":"m 156 3 l 192 293 l 47 293 l 63 418 l 207 418 l 221 528 l 118 528 l 133 651 l 236 651 l 261 854 l 389 854 l 364 651 l 465 651 l 450 528 l 349 528 l 335 418 l 481 418 l 465 293 l 319 293 l 283 3 l 156 3 z "},"™":{"ha":814,"x_min":128,"x_max":793,"o":"m 433 1067 q 461 1019 439 1056 q 508 940 483 982 q 555 863 533 899 q 582 817 576 826 l 793 1067 l 747 692 l 690 692 l 715 894 q 717 903 715 899 q 718 910 718 907 l 571 729 q 551 763 567 736 q 517 822 535 790 q 483 879 499 853 q 467 910 468 906 l 467 894 l 442 692 l 388 692 l 433 1067 m 368 1051 l 361 1000 l 269 1000 l 232 692 l 179 692 l 217 1000 l 128 1000 l 135 1051 l 368 1051 z "},"−":{"ha":674,"x_min":63,"x_max":585,"o":"m 569 224 l 63 224 l 78 349 l 585 349 l 569 224 z "},"∫":{"ha":463,"x_min":-42,"x_max":510,"o":"m 226 885 q 252 984 235 950 q 294 1033 269 1018 q 351 1049 319 1047 q 417 1050 382 1050 l 510 1050 l 496 926 l 436 926 q 399 922 414 926 q 373 901 383 917 q 356 857 363 885 q 343 783 349 829 l 240 -49 q 214 -146 232 -112 q 171 -194 196 -179 q 115 -210 146 -208 q 50 -211 83 -211 l -42 -211 l -26 -86 l 33 -86 q 69 -81 54 -86 q 95 -60 85 -75 q 113 -16 106 -44 q 125 58 119 13 l 226 885 z "},"∏":{"ha":681,"x_min":71,"x_max":629,"o":"m 197 -108 l 71 -108 l 214 1056 l 629 1056 l 486 -108 l 360 -108 l 488 933 l 325 933 l 197 -108 z "},"π":{"ha":613,"x_min":43,"x_max":579,"o":"m 249 368 l 203 0 l 75 0 l 121 368 l 43 368 l 58 492 l 579 492 l 564 368 l 488 368 l 442 0 l 315 0 l 361 368 l 249 368 z "},"€":{"ha":750,"x_min":50,"x_max":751,"o":"m 75 564 l 171 564 q 236 719 194 651 q 333 832 278 786 q 453 902 388 878 q 589 926 518 926 q 682 915 640 926 q 751 885 724 903 l 681 772 q 631 795 657 788 q 569 803 606 803 q 468 785 513 803 q 390 735 424 767 q 334 659 357 703 q 297 564 311 615 l 589 564 l 581 496 l 285 496 l 283 486 q 280 449 281 467 q 278 414 279 431 l 571 414 l 563 347 l 281 347 q 308 239 288 283 q 356 166 328 194 q 418 125 385 138 q 485 113 451 113 q 597 147 540 113 l 646 31 q 469 -11 564 -11 q 344 13 401 -11 q 243 81 286 36 q 174 193 200 126 q 146 347 149 260 l 50 347 l 58 414 l 147 414 q 149 438 147 425 q 151 463 150 450 q 153 479 153 471 q 157 496 154 488 l 67 496 l 75 564 z "},"≤":{"ha":757,"x_min":68,"x_max":743,"o":"m 678 475 l 657 301 l 85 657 l 743 1011 l 722 839 l 386 657 l 678 475 m 575 79 l 68 79 l 83 204 l 590 204 l 575 79 z "},"≥":{"ha":769,"x_min":67,"x_max":754,"o":"m 117 475 l 453 657 l 161 839 l 182 1011 l 754 657 l 96 301 l 117 475 m 82 204 l 589 204 l 574 79 l 67 79 l 82 204 z "},"≠":{"ha":925,"x_min":63,"x_max":838,"o":"m 838 550 l 822 425 l 564 425 l 421 276 l 804 276 l 789 151 l 299 151 q 208 59 251 103 q 128 -22 164 15 l 63 42 l 169 151 l 76 151 l 92 276 l 293 276 l 438 425 l 110 425 l 125 550 l 560 550 l 760 756 l 824 690 l 686 550 l 838 550 z "},"≈":{"ha":624,"x_min":67,"x_max":560,"o":"m 283 268 q 249 297 264 289 q 215 304 235 304 q 169 292 196 304 q 135 240 143 279 l 67 244 q 88 297 72 274 q 123 338 103 321 q 167 363 143 354 q 213 372 190 372 q 271 360 246 372 q 315 325 296 347 q 350 297 335 304 q 385 290 365 290 q 430 302 404 290 q 467 354 456 314 l 532 350 q 513 298 528 321 q 476 258 497 275 q 432 233 456 242 q 388 224 408 224 q 283 268 325 224 m 310 475 q 276 503 290 496 q 243 511 263 511 q 197 499 224 511 q 161 447 171 486 l 93 451 q 114 504 99 481 q 150 544 129 528 q 194 570 171 561 q 240 579 218 579 q 299 567 274 579 q 343 532 324 554 q 377 504 363 511 q 411 497 392 497 q 456 509 431 497 q 493 561 482 521 l 560 557 q 539 505 554 528 q 503 465 524 482 q 458 440 482 449 q 414 431 435 431 q 310 475 351 431 z "},"∑":{"ha":688,"x_min":10,"x_max":719,"o":"m 193 6 l 551 6 l 575 -118 l 10 -118 l 242 469 l 154 1056 l 719 1056 l 665 933 l 307 933 l 379 469 l 193 6 z "},"Ω":{"ha":928,"x_min":29,"x_max":861,"o":"m 44 124 l 214 124 q 126 222 163 158 q 90 393 90 285 q 124 592 90 507 q 217 735 158 678 q 353 819 275 792 q 518 847 431 847 q 685 815 617 847 q 795 725 754 782 q 849 592 836 668 q 847 428 861 515 q 817 319 836 367 q 772 234 797 271 q 718 170 747 197 q 658 124 689 143 l 818 124 l 803 0 l 500 0 l 515 124 q 650 238 596 157 q 718 425 704 318 q 719 533 725 479 q 689 628 713 586 q 622 697 665 671 q 508 724 578 724 q 385 696 436 724 q 299 625 333 668 q 245 530 264 582 q 221 432 226 478 q 221 326 213 375 q 249 238 229 276 q 298 169 268 199 q 363 124 328 140 l 347 0 l 29 0 l 44 124 z "},"√":{"ha":732,"x_min":28,"x_max":772,"o":"m 39 486 l 207 486 l 304 188 l 683 856 l 772 856 l 281 -6 l 142 413 l 28 413 l 39 486 z "},"∆":{"ha":578,"x_min":50,"x_max":522,"o":"m 368 1026 l 522 357 l 50 357 l 368 1026 m 175 432 l 418 432 l 340 794 l 175 432 z "},"◊":{"ha":576,"x_min":67,"x_max":539,"o":"m 67 510 l 367 1026 l 539 510 l 239 -6 l 67 510 m 157 510 l 264 188 l 450 510 l 343 833 l 157 510 z "},"∞":{"ha":703,"x_min":79,"x_max":628,"o":"m 472 300 q 400 313 433 300 q 346 349 367 325 q 280 313 318 325 q 204 300 242 300 q 147 311 171 300 q 108 339 124 322 q 86 376 93 356 q 79 417 79 397 q 89 463 79 439 q 118 508 99 488 q 167 541 138 528 q 236 554 196 554 q 308 541 274 554 q 364 504 342 528 q 429 541 392 528 q 504 554 467 554 q 561 544 538 554 q 599 517 585 533 q 621 479 614 500 q 628 439 628 458 q 618 392 628 417 q 590 347 608 368 q 541 313 571 326 q 472 300 511 300 m 318 428 q 291 465 318 451 q 228 478 264 478 q 174 462 192 478 q 156 419 156 446 q 168 388 156 401 q 215 375 181 375 q 251 379 233 375 q 284 390 269 383 q 308 407 299 397 q 318 428 318 417 m 494 478 q 429 462 458 478 q 393 426 400 446 l 392 422 q 421 388 392 400 q 482 375 450 375 q 538 393 522 375 q 553 433 553 411 q 539 465 553 453 q 494 478 525 478 z "}}}
